<svg xmlns="http://www.w3.org/2000/svg" xmlns:xlink="http://www.w3.org/1999/xlink" width="396.718" height="108.89" viewBox="0 0 396.718 108.89">
  <defs>
    <linearGradient id="linear-gradient" x1="0.057" y1="0.5" x2="1.054" y2="0.5" gradientUnits="objectBoundingBox">
      <stop offset="0" stop-color="#042360"/>
      <stop offset="1" stop-color="#4e5e87"/>
    </linearGradient>
    <filter id="Rect치ngulo_61" x="0" y="0.941" width="396.718" height="107.948" filterUnits="userSpaceOnUse">
      <feOffset dy="4.246" input="SourceAlpha"/>
      <feGaussianBlur stdDeviation="4.246" result="blur"/>
      <feFlood flood-color="#22d0ff" flood-opacity="0.129"/>
      <feComposite operator="in" in2="blur"/>
      <feComposite in="SourceGraphic"/>
    </filter>
    <linearGradient id="linear-gradient-2" x1="8.359" y1="4.567" x2="-2.302" y2="-0.949" gradientUnits="objectBoundingBox">
      <stop offset="0" stop-color="#fff" stop-opacity="0"/>
      <stop offset="1" stop-color="#fff"/>
    </linearGradient>
    <linearGradient id="linear-gradient-3" x1="1.309" y1="2.168" x2="-4.054" y2="-8.885" xlink:href="#linear-gradient-2"/>
    <linearGradient id="linear-gradient-4" x1="2.135" y1="2.815" x2="-3.437" y2="-5.076" xlink:href="#linear-gradient-2"/>
    <linearGradient id="linear-gradient-5" x1="5.044" y1="3.931" x2="-2.569" y2="-1.818" xlink:href="#linear-gradient-2"/>
    <linearGradient id="linear-gradient-6" x1="3.274" y1="3.369" x2="-2.953" y2="-3.072" xlink:href="#linear-gradient-2"/>
    <linearGradient id="linear-gradient-7" x1="6.27" y1="-2.412" x2="-1.88" y2="1.7" xlink:href="#linear-gradient-2"/>
    <linearGradient id="linear-gradient-8" x1="1.921" y1="-1.083" x2="-1.647" y2="2.893" xlink:href="#linear-gradient-2"/>
    <linearGradient id="linear-gradient-9" x1="0.064" y1="0.5" x2="0.727" y2="0.5" xlink:href="#linear-gradient-2"/>
    <linearGradient id="linear-gradient-10" x1="0.753" y1="-0.208" x2="-1.672" y2="6.588" xlink:href="#linear-gradient-2"/>
    <linearGradient id="linear-gradient-11" x1="3.287" y1="-1.59" x2="-1.735" y2="2.177" xlink:href="#linear-gradient-2"/>
    <linearGradient id="linear-gradient-12" x1="1.178" y1="-0.628" x2="-1.592" y2="3.982" xlink:href="#linear-gradient-2"/>
  </defs>
  <g id="Grupo_151" data-name="Grupo 151" transform="translate(12.738 0)">
    <g transform="matrix(1, 0, 0, 1, -12.74, 0)" filter="url(#Rect치ngulo_61)">
      <rect id="Rect치ngulo_61-2" data-name="Rect치ngulo 61" width="371.241" height="82.472" rx="10.318" transform="translate(12.74 9.43)" fill="url(#linear-gradient)"/>
    </g>
    <g id="Grupo_120" data-name="Grupo 120" transform="translate(24.455)">
      <g id="Grupo_119" data-name="Grupo 119">
        <path id="Trazado_768" data-name="Trazado 768" d="M978.507,8225.67q-.965.532-1.9,1.1a.271.271,0,0,0-.093.365l4.729,8.191a.263.263,0,0,0,.369.092c.618-.384,1.246-.754,1.887-1.1a.264.264,0,0,0,.1-.363l-4.725-8.184A.272.272,0,0,0,978.507,8225.67Z" transform="translate(-952.218 -8219.43)" fill="#fff"/>
        <path id="Trazado_769" data-name="Trazado 769" d="M990.865,8246.545l-6.45-11.171a.275.275,0,0,0-.365-.1q-.971.529-1.9,1.113a.272.272,0,0,0-.09.366l6.446,11.162a.265.265,0,0,0,.371.09q.913-.587,1.883-1.088A.265.265,0,0,0,990.865,8246.545Z" transform="translate(-950.41 -8216.299)" fill="#fff"/>
        <path id="Trazado_770" data-name="Trazado 770" d="M987.877,8222.048c-.715.173-1.424.365-2.127.568a.27.27,0,0,0-.184.329l2.438,9.1a.262.262,0,0,0,.33.185c.7-.207,1.4-.393,2.112-.563a.263.263,0,0,0,.195-.325l-2.44-9.1A.268.268,0,0,0,987.877,8222.048Z" transform="translate(-949.257 -8220.603)" fill="#fff"/>
        <path id="Trazado_771" data-name="Trazado 771" d="M994.411,8245.412l-3.344-12.481a.27.27,0,0,0-.324-.192c-.719.169-1.431.354-2.132.564a.273.273,0,0,0-.182.332l3.346,12.488a.263.263,0,0,0,.337.181c.687-.22,1.386-.411,2.1-.566A.262.262,0,0,0,994.411,8245.412Z" transform="translate(-948.323 -8217.118)" fill="#fff"/>
        <path id="Trazado_772" data-name="Trazado 772" d="M996.73,8245.469c.365,0,.725.012,1.085.028a.265.265,0,0,0,.28-.266v-13.205c-.427-.016-.854-.033-1.284-.033-.4,0-.794.012-1.188.026a.268.268,0,0,0-.257.269v12.943a.265.265,0,0,0,.28.266C996,8245.48,996.365,8245.469,996.73,8245.469Z" transform="translate(-946.059 -8217.357)" fill="#fff"/>
        <path id="Trazado_773" data-name="Trazado 773" d="M998.094,8230.909v-9.671a.271.271,0,0,0-.263-.271q-.549-.012-1.1-.012t-1.1.012a.271.271,0,0,0-.263.271v9.4a.267.267,0,0,0,.276.268c.389-.015.777-.028,1.17-.028C997.24,8230.876,997.667,8230.9,998.094,8230.909Z" transform="translate(-946.059 -8220.955)" fill="#fff"/>
        <path id="Trazado_774" data-name="Trazado 774" d="M959.842,8248.524q-.306,1.053-.569,2.128a.272.272,0,0,0,.192.325l9.163,2.455a.265.265,0,0,0,.325-.2c.17-.712.354-1.416.56-2.114a.262.262,0,0,0-.184-.329l-9.157-2.455A.273.273,0,0,0,959.842,8248.524Z" transform="translate(-957.828 -8212.031)" fill="#fff"/>
        <path id="Trazado_775" data-name="Trazado 775" d="M983.333,8254.545l-12.434-3.331a.273.273,0,0,0-.331.183c-.209.7-.394,1.416-.561,2.134a.27.27,0,0,0,.194.322l12.423,3.33a.263.263,0,0,0,.325-.2c.155-.711.346-1.411.568-2.1A.265.265,0,0,0,983.333,8254.545Z" transform="translate(-954.328 -8211.095)" fill="#fff"/>
        <path id="Trazado_776" data-name="Trazado 776" d="M964,8239.376c-.382.628-.75,1.261-1.1,1.905a.271.271,0,0,0,.1.364l8.213,4.742a.264.264,0,0,0,.365-.1q.523-.962,1.1-1.893a.264.264,0,0,0-.091-.368l-8.213-4.739A.269.269,0,0,0,964,8239.376Z" transform="translate(-956.655 -8214.992)" fill="#fff"/>
        <path id="Trazado_777" data-name="Trazado 777" d="M985.129,8251.271l-11.14-6.432a.274.274,0,0,0-.366.092c-.387.625-.756,1.259-1.1,1.908a.275.275,0,0,0,.1.364l11.142,6.433a.264.264,0,0,0,.367-.11q.5-.968,1.086-1.881A.263.263,0,0,0,985.129,8251.271Z" transform="translate(-953.518 -8213.181)" fill="#fff"/>
        <path id="Trazado_778" data-name="Trazado 778" d="M977.446,8238.29l-6.7-6.7a.268.268,0,0,0-.377-.006q-.8.76-1.557,1.557a.27.27,0,0,0,0,.378l6.7,6.7a.263.263,0,0,0,.379,0q.752-.8,1.545-1.547A.265.265,0,0,0,977.446,8238.29Z" transform="translate(-954.74 -8217.515)" fill="#fff"/>
        <path id="Trazado_779" data-name="Trazado 779" d="M987.7,8248.544l-9.1-9.1a.273.273,0,0,0-.378-.006q-.8.757-1.558,1.561a.272.272,0,0,0,.007.376l9.1,9.1a.263.263,0,0,0,.382-.01q.732-.807,1.537-1.538A.263.263,0,0,0,987.7,8248.544Z" transform="translate(-952.18 -8214.955)" fill="#fff"/>
        <path id="Trazado_780" data-name="Trazado 780" d="M1008.289,8222.616c-.7-.2-1.412-.4-2.127-.568a.267.267,0,0,0-.325.193l-2.431,9.067a.266.266,0,0,0,.2.326c.711.168,1.416.352,2.114.556a.262.262,0,0,0,.329-.185l2.428-9.061A.27.27,0,0,0,1008.289,8222.616Z" transform="translate(-943.441 -8220.603)" fill="url(#linear-gradient-2)"/>
        <path id="Trazado_781" data-name="Trazado 781" d="M1036,8250.652q-.262-1.074-.569-2.13a.273.273,0,0,0-.329-.185l-9.007,2.414a.264.264,0,0,0-.184.331c.207.7.391,1.4.561,2.112a.263.263,0,0,0,.326.2l9.01-2.413A.272.272,0,0,0,1036,8250.652Z" transform="translate(-936.105 -8212.031)" fill="url(#linear-gradient-3)"/>
        <path id="Trazado_782" data-name="Trazado 782" d="M967.943,8258.138h-9.48a.27.27,0,0,0-.269.266c-.008.365-.013.732-.013,1.1s.005.734.013,1.1a.269.269,0,0,0,.269.264h9.48a.268.268,0,0,0,.267-.277c-.013-.361-.025-.722-.025-1.088s.012-.727.025-1.088A.268.268,0,0,0,967.943,8258.138Z" transform="translate(-958.181 -8208.834)" fill="#fff"/>
        <path id="Trazado_783" data-name="Trazado 783" d="M982.674,8259.5c0-.364.012-.727.031-1.086a.267.267,0,0,0-.265-.28H969.573a.267.267,0,0,0-.267.26c-.015.367-.025.735-.025,1.106s.01.738.024,1.106a.269.269,0,0,0,.268.259h12.866a.266.266,0,0,0,.265-.279C982.686,8260.229,982.674,8259.868,982.674,8259.5Z" transform="translate(-954.563 -8208.834)" fill="#fff"/>
        <path id="Trazado_784" data-name="Trazado 784" d="M1032.284,8241.281c-.354-.645-.723-1.277-1.1-1.905a.269.269,0,0,0-.365-.092l-8.094,4.671a.267.267,0,0,0-.093.37q.575.927,1.1,1.888a.264.264,0,0,0,.363.1l8.089-4.672A.269.269,0,0,0,1032.284,8241.281Z" transform="translate(-937.185 -8214.992)" fill="url(#linear-gradient-4)"/>
        <path id="Trazado_785" data-name="Trazado 785" d="M1017.936,8226.774q-.939-.571-1.905-1.1a.271.271,0,0,0-.363.1l-4.687,8.119a.262.262,0,0,0,.1.362q.963.524,1.894,1.095a.26.26,0,0,0,.366-.094l4.686-8.115A.271.271,0,0,0,1017.936,8226.774Z" transform="translate(-940.981 -8219.43)" fill="url(#linear-gradient-5)"/>
        <path id="Trazado_786" data-name="Trazado 786" d="M1019.494,8240.138l6.618-6.616a.27.27,0,0,0,0-.378q-.762-.8-1.557-1.557a.27.27,0,0,0-.378.006l-6.619,6.618a.264.264,0,0,0,.005.379q.8.75,1.547,1.543A.263.263,0,0,0,1019.494,8240.138Z" transform="translate(-938.849 -8217.515)" fill="url(#linear-gradient-6)"/>
        <path id="Trazado_787" data-name="Trazado 787" d="M1006.346,8299.42c.716-.174,1.425-.365,2.128-.569a.271.271,0,0,0,.184-.33l-3.186-11.634a.262.262,0,0,0-.329-.182q-1.046.3-2.114.556a.264.264,0,0,0-.2.326l3.189,11.644A.27.27,0,0,0,1006.346,8299.42Z" transform="translate(-943.628 -8199.525)" fill="url(#linear-gradient-7)"/>
        <path id="Trazado_788" data-name="Trazado 788" d="M1014.061,8278.9l11.262,11.083a.271.271,0,0,0,.377,0c.53-.508,1.049-1.024,1.557-1.556a.271.271,0,0,0-.005-.38l-11.262-11.082a.264.264,0,0,0-.377.006q-.752.8-1.546,1.546A.262.262,0,0,0,1014.061,8278.9Z" transform="translate(-939.99 -8202.721)" fill="url(#linear-gradient-8)"/>
        <path id="Trazado_789" data-name="Trazado 789" d="M959.273,8268.939q.263,1.075.569,2.131a.272.272,0,0,0,.329.184l9.157-2.455a.261.261,0,0,0,.184-.328c-.206-.7-.39-1.4-.56-2.115a.261.261,0,0,0-.325-.193l-9.163,2.453A.272.272,0,0,0,959.273,8268.939Z" transform="translate(-957.828 -8206.221)" fill="#fff"/>
        <path id="Trazado_790" data-name="Trazado 790" d="M982.624,8262.625l-12.423,3.33a.27.27,0,0,0-.194.322c.167.718.351,1.432.561,2.135a.272.272,0,0,0,.331.182l12.434-3.331a.264.264,0,0,0,.183-.337c-.221-.687-.412-1.385-.568-2.1A.263.263,0,0,0,982.624,8262.625Z" transform="translate(-954.328 -8207.374)" fill="#fff"/>
        <path id="Trazado_791" data-name="Trazado 791" d="M996.468,8259.5c0,.362-.02.719-.052,1.074a.264.264,0,0,0,.263.291h41.211a.269.269,0,0,0,.268-.259c.013-.368.025-.735.025-1.106s-.012-.739-.025-1.106a.269.269,0,0,0-.268-.26H996.679a.264.264,0,0,0-.263.292C996.448,8258.785,996.468,8259.145,996.468,8259.5Z" transform="translate(-945.717 -8208.834)" fill="url(#linear-gradient-9)"/>
        <path id="Trazado_792" data-name="Trazado 792" d="M1027.433,8260.869h9.306a.274.274,0,0,0,.272-.261c.014-.368.022-.735.022-1.1s-.008-.736-.022-1.1a.274.274,0,0,0-.272-.263h-9.306a.268.268,0,0,0-.266.278c.013.361.025.724.025,1.088s-.013.727-.025,1.09A.267.267,0,0,0,1027.433,8260.869Z" transform="translate(-935.693 -8208.834)" fill="#fff"/>
        <path id="Trazado_793" data-name="Trazado 793" d="M1037.775,8271.706q.306-1.053.569-2.129a.271.271,0,0,0-.191-.324l-18.545-5.049a.263.263,0,0,0-.326.193c-.17.711-.354,1.417-.561,2.114a.262.262,0,0,0,.183.329l18.541,5.049A.27.27,0,0,0,1037.775,8271.706Z" transform="translate(-938.449 -8206.859)" fill="url(#linear-gradient-10)"/>
        <path id="Trazado_794" data-name="Trazado 794" d="M1016.613,8296.084q.965-.532,1.9-1.1a.272.272,0,0,0,.094-.365l-7.05-12.266a.262.262,0,0,0-.367-.093q-.931.57-1.892,1.094a.262.262,0,0,0-.1.362l7.052,12.27A.273.273,0,0,0,1016.613,8296.084Z" transform="translate(-941.562 -8200.986)" fill="url(#linear-gradient-11)"/>
        <path id="Trazado_795" data-name="Trazado 795" d="M1033.015,8281.753c.38-.626.751-1.261,1.1-1.9a.271.271,0,0,0-.1-.364l-15.554-8.93a.267.267,0,0,0-.363.1q-.525.961-1.1,1.888a.267.267,0,0,0,.093.37l15.559,8.931A.27.27,0,0,0,1033.015,8281.753Z" transform="translate(-939.02 -8204.797)" fill="url(#linear-gradient-12)"/>
        <path id="Trazado_796" data-name="Trazado 796" d="M996.73,8276.188c-.365,0-.725-.011-1.085-.028a.265.265,0,0,0-.28.265v12.943a.27.27,0,0,0,.257.27c.394.015.789.026,1.188.026.43,0,.857-.019,1.284-.033v-13.206a.265.265,0,0,0-.28-.265C997.455,8276.177,997.094,8276.188,996.73,8276.188Z" transform="translate(-946.059 -8202.96)" fill="#fff"/>
        <path id="Trazado_797" data-name="Trazado 797" d="M995.365,8290.145v9.4a.27.27,0,0,0,.263.272q.549.012,1.1.012t1.1-.012a.27.27,0,0,0,.263-.272v-9.671c-.427.014-.854.033-1.284.033-.393,0-.781-.014-1.17-.027A.266.266,0,0,0,995.365,8290.145Z" transform="translate(-946.059 -8198.488)" fill="#fff"/>
        <path id="Trazado_798" data-name="Trazado 798" d="M985.77,8270.612l-9.1,9.1a.272.272,0,0,0-.007.376q.756.8,1.558,1.561a.273.273,0,0,0,.378-.006l9.1-9.1a.263.263,0,0,0-.011-.383q-.8-.731-1.537-1.538A.263.263,0,0,0,985.77,8270.612Z" transform="translate(-952.18 -8204.794)" fill="#fff"/>
        <path id="Trazado_799" data-name="Trazado 799" d="M975.518,8280.276l-6.7,6.7a.27.27,0,0,0,0,.378q.762.8,1.557,1.557a.268.268,0,0,0,.377,0l6.7-6.7a.265.265,0,0,0-.005-.379q-.794-.753-1.545-1.547A.26.26,0,0,0,975.518,8280.276Z" transform="translate(-954.74 -8201.643)" fill="#fff"/>
        <path id="Trazado_800" data-name="Trazado 800" d="M983.765,8266.882l-11.142,6.431a.275.275,0,0,0-.1.365q.523.973,1.1,1.907a.272.272,0,0,0,.366.092l11.14-6.432a.263.263,0,0,0,.089-.374c-.391-.606-.753-1.235-1.086-1.881A.262.262,0,0,0,983.765,8266.882Z" transform="translate(-953.518 -8205.997)" fill="#fff"/>
        <path id="Trazado_801" data-name="Trazado 801" d="M962.9,8278.818c.354.645.723,1.277,1.1,1.905a.266.266,0,0,0,.365.092l8.213-4.739a.266.266,0,0,0,.093-.368q-.573-.932-1.1-1.891a.263.263,0,0,0-.365-.1L963,8278.456A.268.268,0,0,0,962.9,8278.818Z" transform="translate(-956.655 -8203.77)" fill="#fff"/>
        <path id="Trazado_802" data-name="Trazado 802" d="M985.75,8298.229q1.054.308,2.127.57a.271.271,0,0,0,.325-.194l2.44-9.1a.262.262,0,0,0-.195-.324c-.711-.171-1.416-.356-2.112-.563a.261.261,0,0,0-.33.184l-2.438,9.1A.269.269,0,0,0,985.75,8298.229Z" transform="translate(-949.257 -8198.903)" fill="#fff"/>
        <path id="Trazado_803" data-name="Trazado 803" d="M991.775,8275.554l-3.346,12.488a.272.272,0,0,0,.182.331c.7.212,1.414.4,2.132.564a.27.27,0,0,0,.324-.192l3.344-12.48a.262.262,0,0,0-.2-.325c-.713-.156-1.412-.347-2.1-.566A.264.264,0,0,0,991.775,8275.554Z" transform="translate(-948.323 -8203.22)" fill="#fff"/>
        <path id="Trazado_804" data-name="Trazado 804" d="M988.5,8273.573l-6.446,11.162a.274.274,0,0,0,.09.366q.935.583,1.9,1.112a.274.274,0,0,0,.365-.1l6.45-11.171a.266.266,0,0,0-.109-.368c-.647-.332-1.274-.7-1.883-1.087A.264.264,0,0,0,988.5,8273.573Z" transform="translate(-950.41 -8203.848)" fill="#fff"/>
        <path id="Trazado_805" data-name="Trazado 805" d="M976.6,8293.979c.626.38,1.261.75,1.9,1.1a.272.272,0,0,0,.365-.1l4.725-8.184a.264.264,0,0,0-.1-.363c-.641-.35-1.268-.72-1.887-1.1a.263.263,0,0,0-.369.091l-4.729,8.191A.272.272,0,0,0,976.6,8293.979Z" transform="translate(-952.218 -8199.983)" fill="#fff"/>
      </g>
    </g>
    <text id="Create_Account" data-name="Create Account" transform="translate(92.772 59.792)" fill="#fff" font-size="26" font-family="Poppins-Medium, Poppins" font-weight="500"><tspan x="0" y="0">Create Account</tspan></text>
  </g>
</svg>
