<svg id="Capa_1" data-name="Capa 1" xmlns="http://www.w3.org/2000/svg" viewBox="0 0 347.233 43.554"><defs><style>.cls-1{fill:#3863cb;}</style></defs><title>logo5</title><path class="cls-1" d="M124.843,18.867l-1-1.253-.514-.641-2.112-2.64,0,0-2.653-3.315-.007-.01L116.66,8.639l0,0-2.64-3.3h0l-.973-1.216-.6-.755h0l-2.479-3.1a.348.348,0,0,0-.569.039l-6.84,11.355-.458.761L94.251,25.445a1.154,1.154,0,0,0,.089,1.317L106.762,42.2a3.336,3.336,0,0,0,5.467-.372l12.729-21.271A1.482,1.482,0,0,0,124.843,18.867Z"/><path class="cls-1" d="M133.759,5.826v5.559h6.755v2.287h-6.755v5.689h7.534v2.417H130.8V3.435h10.5V5.826Z"/><path class="cls-1" d="M159.584,3.435,153.478,15.1v6.678h-2.987V15.1L144.359,3.435h3.429l4.209,8.5,4.209-8.5Z"/><path class="cls-1" d="M166.312,5.826v5.559h6.755v2.287h-6.755v5.689h7.535v2.417h-10.5V3.435h10.5V5.826Z"/><path class="cls-1" d="M201.516,3.435l-4.573,18.343h-3.637L189.435,7.592l-3.871,14.186h-3.637L177.354,3.435H180.6l3.169,14.913L187.8,3.435h3.274L195.1,18.348l3.17-14.913Z"/><path class="cls-1" d="M216.663,17.8h-7.742l-1.4,3.976h-3.17L211.1,3.721h3.4l6.729,18.057h-3.17Zm-.832-2.286-3.04-8.573-3.039,8.573Z"/><path class="cls-1" d="M227.964,19.465h6.34v2.313H225V3.435h2.962Z"/><path class="cls-1" d="M241.136,19.465h6.34v2.313h-9.3V3.435h2.962Z"/><path class="cls-1" d="M254.308,5.826v5.559h6.755v2.287h-6.755v5.689h7.535v2.417h-10.5V3.435h10.5V5.826Z"/><path class="cls-1" d="M278.081,3.435V5.826h-5.118V21.778h-2.989V5.826h-5.092V3.435Z"/><path class="cls-1" d="M140.118,30.06a4.458,4.458,0,0,1,1.6,2.471h-1.67a2.974,2.974,0,0,0-1.1-1.4,3.172,3.172,0,0,0-1.842-.517,2.874,2.874,0,0,0-1.554.428,2.936,2.936,0,0,0-1.076,1.222,4.546,4.546,0,0,0,0,3.7,2.936,2.936,0,0,0,1.076,1.222,2.874,2.874,0,0,0,1.554.428,3.165,3.165,0,0,0,1.842-.518,2.972,2.972,0,0,0,1.1-1.387h1.67a4.42,4.42,0,0,1-1.6,2.464,4.78,4.78,0,0,1-2.982.9,4.707,4.707,0,0,1-2.443-.628,4.264,4.264,0,0,1-1.643-1.753,6.013,6.013,0,0,1,0-5.149,4.319,4.319,0,0,1,1.643-1.76,4.672,4.672,0,0,1,2.443-.634A4.765,4.765,0,0,1,140.118,30.06Z"/><path class="cls-1" d="M153.741,38.991,151.312,35.1h-1.118v3.893H148.62V29.246h3.437a3.562,3.562,0,0,1,2.533.814,2.825,2.825,0,0,1,.863,2.154,2.739,2.739,0,0,1-.642,1.877,3.057,3.057,0,0,1-1.856.939l2.553,3.961Zm-3.547-5.01h1.739q1.905,0,1.905-1.684a1.662,1.662,0,0,0-.462-1.25,2.013,2.013,0,0,0-1.443-.448h-1.739Z"/><path class="cls-1" d="M169.56,29.246l-3.244,6.2v3.547h-1.587V35.444l-3.258-6.2h1.822l2.236,4.514,2.237-4.514Z"/><path class="cls-1" d="M177.635,35.209v3.782h-1.574V29.246h3.313a3.568,3.568,0,0,1,2.533.8,2.87,2.87,0,0,1,.849,2.195,2.792,2.792,0,0,1-.87,2.173,3.6,3.6,0,0,1-2.512.794Zm3.519-2.967a1.649,1.649,0,0,0-.462-1.263,2.117,2.117,0,0,0-1.484-.436h-1.573v3.383h1.573Q181.155,33.926,181.154,32.242Z"/><path class="cls-1" d="M195.731,29.246v1.27h-2.719v8.475h-1.587V30.516h-2.706v-1.27Z"/><path class="cls-1" d="M209.2,29.757a4.536,4.536,0,0,1,1.725,1.774,5.589,5.589,0,0,1,0,5.148A4.581,4.581,0,0,1,209.2,38.46a5.023,5.023,0,0,1-4.914,0,4.629,4.629,0,0,1-1.733-1.781,5.542,5.542,0,0,1,0-5.148,4.583,4.583,0,0,1,1.733-1.774,5.071,5.071,0,0,1,4.914,0Zm-4.12,1.256a2.917,2.917,0,0,0-1.139,1.229,4.467,4.467,0,0,0,0,3.726,2.911,2.911,0,0,0,1.139,1.229,3.245,3.245,0,0,0,1.669.428,3.183,3.183,0,0,0,1.65-.428,2.933,2.933,0,0,0,1.132-1.229,4.467,4.467,0,0,0,0-3.726,2.939,2.939,0,0,0-1.132-1.229,3.183,3.183,0,0,0-1.65-.428A3.245,3.245,0,0,0,205.076,31.013Z"/><path class="cls-1" d="M233.531,34.809a2.357,2.357,0,0,1,.545,1.546,2.428,2.428,0,0,1-.814,1.926,3.492,3.492,0,0,1-2.36.71h-3.879V29.246h3.809a3.4,3.4,0,0,1,2.243.656,2.51,2.51,0,0,1,.3,3.3,2.341,2.341,0,0,1-1.269.766A2.412,2.412,0,0,1,233.531,34.809ZM228.6,33.443h1.947a1.847,1.847,0,0,0,1.263-.387,1.367,1.367,0,0,0,.435-1.077,1.349,1.349,0,0,0-.435-1.062,1.937,1.937,0,0,0-1.319-.387H228.6Zm3.375,3.843a1.394,1.394,0,0,0,.49-1.138,1.411,1.411,0,0,0-.5-1.146,2.122,2.122,0,0,0-1.4-.414H228.6v3.106h1.988A2.109,2.109,0,0,0,231.971,37.286Z"/><path class="cls-1" d="M246.693,36.88h-4.114l-.745,2.111H240.15l3.589-9.593h1.808l3.575,9.593h-1.684Zm-.442-1.215-1.616-4.555-1.614,4.555Z"/><path class="cls-1" d="M263.5,38.991h-1.573L257.2,31.8v7.191h-1.574V29.26H257.2l4.734,7.219V29.26H263.5Z"/><path class="cls-1" d="M273.788,34.064l4.293,4.927h-1.919l-3.851-4.514v4.514h-1.573V29.246h1.573v4.459l3.865-4.459h1.905Z"/><path class="cls-1" d="M90.743,26.762a1.12,1.12,0,0,1-.191-.373,1.145,1.145,0,0,1,.1-.945L102.327,6.066,97.689.27a.348.348,0,0,0-.569.037L81.978,25.444a1.153,1.153,0,0,0,.089,1.318L94.489,42.2a3.336,3.336,0,0,0,5.467-.372l1.241-2.074Z"/><path class="cls-1" d="M78.9,26.762a1.2,1.2,0,0,1-.089-1.318L90.483,6.066,85.845.27a.348.348,0,0,0-.569.037L70.134,25.444a1.153,1.153,0,0,0,.089,1.318L82.645,42.2a3.336,3.336,0,0,0,5.467-.372l1.241-2.074Z"/></svg>