<svg id="Capa_1" data-name="Capa 1" xmlns="http://www.w3.org/2000/svg" viewBox="0 0 347.233 43.554"><defs><style>.cls-1{fill:#3863cb;}</style></defs><title>logo 2</title><g id="WW3Sy3"><path class="cls-1" d="M159.267,1.74c1.282.157,2.569.277,3.844.479,7.01,1.108,10.092,4.418,10.352,11.794.2,5.761.115,11.547-.176,17.306-.344,6.825-4,10.342-10.8,10.949-.749.067-1.49.224-2.235.339h-7.519c-.8-.119-1.594-.269-2.4-.351-6.117-.623-10.048-3.7-10.465-9.3a146.059,146.059,0,0,1-.191-20.043c.43-6.783,3.476-9.536,10.2-10.669,1.271-.214,2.558-.339,3.838-.505Zm5.366,20.46c-.132-2.691-.182-5.466-.431-8.223a4.1,4.1,0,0,0-3.882-4.146,32.3,32.3,0,0,0-7.14-.117c-2.925.3-4.333,1.7-4.44,4.7-.19,5.313-.125,10.643.055,15.958a4,4,0,0,0,3.849,4.169,35.157,35.157,0,0,0,7.619,0c2.454-.271,3.7-1.782,3.939-4.289C164.45,27.613,164.5,24.946,164.633,22.2Z"/><path class="cls-1" d="M89.63,1.74h5.885c.9.129,1.79.314,2.691.378,6.759.476,10.68,3.682,11.129,10.273a140.32,140.32,0,0,1-.1,19.731c-.455,6.211-3.37,8.829-9.542,9.979-1.061.2-2.132.339-3.2.506H88.65c-.69-.116-1.376-.277-2.071-.34-6.5-.59-10.259-3.692-10.739-10.12A143.123,143.123,0,0,1,75.8,12.08c.381-5.745,3.669-8.673,9.367-9.675C86.648,2.144,88.142,1.959,89.63,1.74Zm10.8,20.521.255-.009c-.165-2.925-.214-5.863-.535-8.772a3.852,3.852,0,0,0-3.635-3.623A39.39,39.39,0,0,0,88.9,9.808c-2.66.291-4.094,1.942-4.161,4.637-.128,5.156-.136,10.321.013,15.477.085,2.919,1.833,4.557,4.776,4.811a39.2,39.2,0,0,0,5.376.05c3.663-.189,5.33-1.841,5.5-5.509C100.524,26.941,100.434,24.6,100.434,22.261Z"/><path class="cls-1" d="M202.882,28.543V2.559h8.223V41.953c-3.257,0-6.456.05-9.65-.059-.433-.015-.959-.763-1.241-1.281Q193.693,28.64,187.23,16.637a2.628,2.628,0,0,0-1.143-1.2V41.865h-8.159c-.041-.575-.117-1.146-.116-1.717.02-11.93.067-23.86.05-35.789,0-1.415.281-2.058,1.874-1.956a61.065,61.065,0,0,0,6.7.008,2.3,2.3,0,0,1,2.4,1.444c4.233,7.8,8.522,15.562,12.8,23.336.26.474.535.941.8,1.411Z"/><path class="cls-1" d="M230.984,41.82V2.6h27.154V9.882h-2.273c-4.848,0-9.7.034-14.544-.023-1.209-.014-1.649.358-1.607,1.58.075,2.163.021,4.33.021,6.648h17.79V25.51c-.554.029-1.13.084-1.706.085-4.848.007-9.7.031-14.544-.016-1.116-.011-1.572.313-1.528,1.475.072,1.9.082,3.815,0,5.718-.052,1.254.334,1.706,1.657,1.687,4.956-.073,9.913-.029,14.871-.029h1.894v7.39Z"/><path class="cls-1" d="M260.766,41.967c.563-.841.907-1.372,1.269-1.891,3.868-5.535,7.713-11.087,11.633-16.584a1.914,1.914,0,0,0,.017-2.573c-3.73-5.563-7.4-11.167-11.085-16.758-.3-.452-.577-.916-.973-1.547a11.594,11.594,0,0,1,1.331-.167c2.888-.013,5.776.032,8.662-.029a2.216,2.216,0,0,1,2.108,1.152q5.961,8.787,12.033,17.5a1.637,1.637,0,0,1-.062,2.268q-6.334,8.727-12.567,17.527a2.3,2.3,0,0,1-2.142,1.124C267.725,41.93,264.459,41.967,260.766,41.967Z"/><path class="cls-1" d="M225.387,41.88h-8.676V2.555h8.676Z"/><path class="cls-1" d="M283.155,34.133l5.967-8.3,11.253,16.16h-2.309c-2.718,0-5.436.048-8.151-.039a2.537,2.537,0,0,1-1.745-.82C286.46,38.888,284.87,36.553,283.155,34.133Z"/><path class="cls-1" d="M299.717,2.4,289.146,18.428c-1.95-2.861-3.8-5.534-5.582-8.245a1.267,1.267,0,0,1,.05-1.128c1.311-2,2.654-3.989,4.062-5.924a1.905,1.905,0,0,1,1.317-.7C292.419,2.378,295.846,2.4,299.717,2.4Z"/><path class="cls-1" d="M122.265,2.439V34.383h15.053v7.446h-23.8c-.039-.538-.117-1.109-.116-1.68.019-11.927.08-23.854.038-35.781-.006-1.619.495-2.052,2.039-1.961C117.647,2.534,119.824,2.439,122.265,2.439Z"/><path class="cls-1" d="M49.415,41.907h-8.7V2.538c.593-.034,1.167-.094,1.741-.094,6.428-.007,12.856-.03,19.283.017a17.859,17.859,0,0,1,3.871.477c4.414,1.027,5.928,4.4,6.554,8.4a24.817,24.817,0,0,1-.658,10.832c-1.161,4.023-4.241,6.256-8.837,6.351-3.866.08-7.735.066-11.6,0-1.261-.021-1.713.323-1.684,1.647C49.468,34.02,49.415,37.877,49.415,41.907ZM49.39,15.485h.018c0,1.743-.058,3.49.042,5.228.025.421.568,1.159.879,1.163,3.318.034,6.646.075,9.954-.149,2.063-.139,2.972-1.252,3.117-3.333a48.494,48.494,0,0,0,.078-5.551A3.4,3.4,0,0,0,59.894,9.2c-3.042-.167-6.094-.138-9.14-.242-1.094-.037-1.417.433-1.38,1.465C49.434,12.105,49.39,13.8,49.39,15.485Z"/></g></svg>