<svg id="Capa_1" data-name="Capa 1" xmlns="http://www.w3.org/2000/svg" viewBox="0 0 347.233 43.554"><defs><style>.cls-1{fill:#3863cb;}</style></defs><title>logo3 </title><g id="l3Imme"><path class="cls-1" d="M80.782,13.425,76.007,18.2,67.653,9.826c-.241.227-.4.374-.558.529q-3.764,3.761-7.518,7.531c-.337.341-.534.378-.888.013-1.352-1.393-2.738-2.753-4.109-4.127-.117-.117-.221-.247-.3-.33L67.543.185Z"/><path class="cls-1" d="M67.545,33.794l8.413-8.422,4.81,4.828L67.6,43.369,54.418,30.186l4.765-4.769Z"/><path class="cls-1" d="M113.849,21.056c.65.389,1.194.755,1.772,1.054,4.4,2.278,4.09,10.165-.406,12.094a18.488,18.488,0,0,1-6.149,1.514c-4.309.229-8.639.047-12.959.09-.992.01-1.307-.313-1.3-1.3q.045-12.762,0-25.525c0-1.012.362-1.3,1.328-1.293,4.276.039,8.556-.069,12.828.07a11.064,11.064,0,0,1,4.359,1.059,6.836,6.836,0,0,1,1.31,11.548C114.4,20.557,114.178,20.763,113.849,21.056Zm-8.65,9.318a40.65,40.65,0,0,0,4.4-.187c2.016-.256,3.008-1.319,2.983-2.969a3.056,3.056,0,0,0-3.03-3.052c-2.486-.152-5.045.018-7.538-.052-.785-.022-1.126.31-1.105,1.115.036,1.336.044,2.674,0,4.01-.031.909.413,1.162,1.221,1.141C103.149,30.354,104.174,30.374,105.2,30.374Zm-.314-17.363c-4.723,0-4.02-.439-3.971,4.075a7.73,7.73,0,0,0,.056,1.193.8.8,0,0,0,.854.658c2.38.056,4.216.126,6.965,0,2.374-.153,2.837-1.571,2.787-2.934-.048-1.343-.559-3-2.811-3C107.528,13,106.309,13,104.885,13.011Z"/><path class="cls-1" d="M229.318,24.356q0-7.416,0-14.83c0-1.82,0-1.821,1.834-1.825,1.025,0,2.052.041,3.074-.01.93-.047,1.245.323,1.234,1.246-.038,3.253-.013,6.507-.013,9.76,0,5.169-.03,10.339.022,15.508.012,1.176-.3,1.508-1.538,1.644-2.726.3-4.474-.613-6.07-2.916-3.194-4.61-6.752-8.968-10.162-13.428-.285-.372-.583-.733-1.122-1.409-.039.865-.077,1.33-.078,1.795,0,4.724-.042,9.448.023,14.171.018,1.3-.195,1.776-1.692,1.749-.885-.017-1.78-.019-2.672-.02-1.78,0-1.786,0-1.787-1.737q0-11.9,0-23.8c0-.49.026-.981,0-1.47-.044-.81.334-1.148,1.12-1.083a1,1,0,0,0,.134,0c4.438-.164,4.438-.165,7.124,3.355q4.7,6.164,9.408,12.326c.287.377.6.737.894,1.105Z"/><path class="cls-1" d="M161.048,24.248v-1.7c0-4.409.043-8.818-.025-13.226-.02-1.309.435-1.752,1.7-1.643a18.567,18.567,0,0,0,2.936,0c1.138-.082,1.452.419,1.44,1.487-.042,3.874-.016,7.749-.016,11.623,0,4.5-.031,9,.021,13.494.013,1.166-.362,1.532-1.534,1.525-3.71-.021-3.7.017-5.976-2.967q-5.183-6.8-10.387-13.582c-.209-.273-.454-.517-.964-1.094V19.9c0,4.72-.04,9.441.026,14.161.018,1.3-.275,1.927-1.691,1.745a19.045,19.045,0,0,0-2.4-.018c-2.057,0-2.059,0-2.059-2q0-12.024,0-24.048c0-.312.021-.624,0-.935-.053-.793.294-1.131,1.1-1.111,1.291.032,2.592-.078,3.87.051a2.427,2.427,0,0,1,1.473.9c3.736,4.821,7.426,9.68,11.132,14.526.317.414.661.808.992,1.212Z"/><path class="cls-1" d="M276.612,21.76c0-4.186.037-8.373-.023-12.559-.017-1.176.362-1.532,1.529-1.522q9.086.072,18.171,0c1.182-.01,1.509.355,1.509,1.536,0,.8,0,1.614,0,2.4,0,1.151-.33,1.569-1.512,1.553-3.963-.057-7.928.026-11.891-.047-1.3-.024-1.635.391-1.635,1.677,0,.925,0,1.739,0,2.669,0,1.187.4,1.444,1.471,1.429,3.384-.048,6.77.027,10.153-.039,1.244-.024,1.6.435,1.6,1.632,0,3.838.034,3.837-3.758,3.838-2.716,0-5.434.03-8.15-.014-.972-.016-1.375.3-1.316,1.306a28.162,28.162,0,0,1,0,3.338c-.062,1.022.377,1.3,1.334,1.289,4.1-.035,8.2.032,12.292-.04,1.286-.023,1.676.362,1.657,1.655-.057,3.928,0,3.929-3.882,3.929-5.3,0-10.6-.036-15.9.026-1.259.015-1.7-.313-1.681-1.631C276.661,30.045,276.612,25.9,276.612,21.76Z"/><path class="cls-1" d="M203.589,35.759c-2.079,0-4.018.039-5.952-.042-.292-.012-.661-.536-.822-.9q-.945-2.136-1.765-4.325a1.393,1.393,0,0,0-1.489-1.039c-3.249.024-6.5-.034-9.747.056a2.051,2.051,0,0,0-1.438,1.006,40.752,40.752,0,0,0-1.738,4.189,1.437,1.437,0,0,1-1.574,1.1c-1.637-.058-3.278-.017-5.111-.017.168-.557.244-.934.392-1.281,3.662-8.6,7.344-17.187,10.984-25.794A1.675,1.675,0,0,1,187.2,7.449a25.61,25.61,0,0,0,3.336,0,1.46,1.46,0,0,1,1.592,1.08q5.529,13.028,11.1,26.037C203.36,34.885,203.429,35.226,203.589,35.759ZM185.046,23.874h7.29l-3.471-8.457-.362.022Z"/><path class="cls-1" d="M269.135,11.534c-1.369,1.575-2.615,3.008-3.938,4.528-2.676-2.231-5.492-3.734-9.006-2.955a7.712,7.712,0,0,0-4.514,2.905A9.65,9.65,0,0,0,252.24,28.1c3.177,3.39,7.508,3.158,13.036-.681,1.219,1.156,2.456,2.289,3.622,3.49.131.136-.023.768-.234.984a13.155,13.155,0,0,1-8.82,4.214c-4.025.253-7.806-.245-11.116-2.83A14.877,14.877,0,0,1,244.06,16.87a14.264,14.264,0,0,1,13.4-9.683c3.766-.053,7.263.664,10.268,3.079C268.176,10.623,268.58,11.03,269.135,11.534Z"/><path class="cls-1" d="M67.629,16.955,72.4,21.728l-4.819,4.82L62.76,21.723Z"/><path class="cls-1" d="M50.774,17.038l4.7,4.7-4.723,4.726L45.981,21.7Z"/><path class="cls-1" d="M84.391,26.487l-4.648-4.658,4.707-4.72,4.706,4.7Z"/><path class="cls-1" d="M132.732,21.9c0,4.1-.049,8.194.028,12.289.025,1.316-.415,1.738-1.681,1.623a19.174,19.174,0,0,0-3.069-.005c-1.1.078-1.493-.327-1.473-1.439.055-3.071.018-6.144.018-9.216q0-7.815,0-15.628c0-1.815.009-1.816,1.875-1.821.98,0,1.963.054,2.938-.014,1.057-.072,1.39.352,1.38,1.389C132.707,13.35,132.731,17.624,132.732,21.9Z"/></g></svg>