<svg id="Capa_1" data-name="Capa 1" xmlns="http://www.w3.org/2000/svg" viewBox="0 0 347.233 43.554"><defs><style>.cls-1{fill:#3863cb;}</style></defs><title>logo7</title><g id="IbUuCB"><path class="cls-1" d="M78.841,19.624c-.166.251-.338.5-.5.755-1.482,2.4-2.929,4.821-4.462,7.187a9.512,9.512,0,0,1-1.922,2.185,2.6,2.6,0,0,1-4.162-.83,6.8,6.8,0,0,1-.685-2.718c-.1-1.894-.033-3.8-.038-5.7,0-.273-.023-.547-.046-1.059-1.068,1.7-2.016,3.2-2.954,4.7-1.8,2.881-3.583,5.77-5.391,8.644-.276.439-.388.737.056,1.181a17.079,17.079,0,0,0,23.907.637,1.929,1.929,0,0,1,2.726-.074,2.037,2.037,0,0,1,.212,2.81,2.973,2.973,0,0,1-.721.737,46.334,46.334,0,0,1-5.391,3.377,20.884,20.884,0,0,1-24.41-5.526A21.679,21.679,0,0,1,53.309,9.928,21.209,21.209,0,0,1,74.427.607,21.456,21.456,0,0,1,92.046,19.16a13.539,13.539,0,0,1-.6,6.964A6.85,6.85,0,0,1,85,30.341a6.368,6.368,0,0,1-5.808-5.876c-.148-1.281-.118-2.583-.164-3.876-.01-.3,0-.607,0-.91ZM71.119,24.3c.289-.429.449-.651.593-.883,1.27-2.056,2.521-4.124,3.812-6.167a8,8,0,0,1,2.785-3,2.8,2.8,0,0,1,4.021,1.045,4.9,4.9,0,0,1,.688,2.013c.128,1.833.089,3.678.161,5.516a7.606,7.606,0,0,0,.291,2.033,1.928,1.928,0,0,0,2.856,1.136,3.333,3.333,0,0,0,1.8-2.865,16.816,16.816,0,0,0-2.38-10.254,17.062,17.062,0,0,0-18.3-8.114A17.343,17.343,0,0,0,53.883,20.662a16.325,16.325,0,0,0,1.9,9.06c.167-.225.312-.392.427-.577q3.174-5.091,6.341-10.184c1.127-1.806,2.229-3.629,3.419-5.393a2.705,2.705,0,0,1,2.847-1.4,2.767,2.767,0,0,1,2.16,2.52,12.01,12.01,0,0,1,.131,1.887C71.127,19.067,71.119,21.56,71.119,24.3Z"/><path class="cls-1" d="M177.92,22.484q-1.665,1.8-3.331,3.6c-.215.232-.413.48-.638.7a1.311,1.311,0,0,1-2.158-.021c-1.148-1.21-2.268-2.448-3.39-3.682a6.707,6.707,0,0,1-.486-.685l-.252.164c-.016.273-.045.545-.046.817q-.006,2.936,0,5.869c0,.23,0,.461,0,.691-.03,1.642-.833,2.658-2.092,2.649-1.186-.008-2.016-1.053-2.02-2.622-.011-5.207-.018-10.414.02-15.621a4.009,4.009,0,0,1,.541-1.326,4.266,4.266,0,0,1,1.37.666c2.23,2.442,4.4,4.939,6.6,7.408.777.872.914.87,1.679.011q3.184-3.576,6.352-7.167c.038-.043.072-.09.113-.13.422-.41.769-1.041,1.5-.761s.5.962.506,1.507q.017,7.638.006,15.276c0,.288.008.577-.018.863a1.984,1.984,0,0,1-1.8,1.889,2.054,2.054,0,0,1-2.074-1.494,4.533,4.533,0,0,1-.14-1.192c-.013-2.129-.006-4.257-.007-6.386v-.928Z"/><path class="cls-1" d="M288.48,19.982a15.965,15.965,0,0,1,2.31-1.149,6.539,6.539,0,0,1,8.488,5.882,8.5,8.5,0,0,1-.977,4.829,6.221,6.221,0,0,1-8.121,2.612c-.255-.113-.508-.229-.913-.412,0,1.433,0,2.742,0,4.049a5.1,5.1,0,0,1-.069,1.115,2.044,2.044,0,0,1-2.133,1.521,1.989,1.989,0,0,1-1.706-2.057c-.018-3.709-.01-7.417-.011-11.126,0-1.523,0-3.047,0-4.571,0-1.137.379-1.735,1.194-1.937.757-.188,1.3.159,1.855,1.173A.209.209,0,0,0,288.48,19.982Zm6.883,5.782c.009-1.872-1.094-3.295-2.553-3.449a3.1,3.1,0,0,0-3.509,2.979,3.461,3.461,0,0,0,2.85,3.816c1.39.221,2.77-1.019,3.131-2.819C295.327,26.067,295.352,25.839,295.363,25.764Z"/><path class="cls-1" d="M116.052,32.729a10,10,0,0,1-.858-19.965,9.159,9.159,0,0,1,6.364,1.656,1.888,1.888,0,0,1,.739,2.6,1.818,1.818,0,0,1-2.679.566,6.128,6.128,0,0,0-6.69-.188,6.615,6.615,0,0,0-2.548,7.238,5.73,5.73,0,0,0,5.544,4.492,6.279,6.279,0,0,0,4.14-1.481c1.1-.892,2.093-.909,2.8-.048.743.9.5,2.025-.612,2.892A9.53,9.53,0,0,1,116.052,32.729Z"/><path class="cls-1" d="M259.791,32.729a10.007,10.007,0,0,1-.81-19.98,9.082,9.082,0,0,1,6.134,1.585c1.124.789,1.438,1.749.846,2.707-.6.977-1.581,1.17-2.758.5a6.138,6.138,0,0,0-6.548-.169,6.6,6.6,0,0,0-2.632,7.129,5.734,5.734,0,0,0,5.6,4.638,6.645,6.645,0,0,0,4.416-1.7,1.752,1.752,0,0,1,2.892,1.642,2.243,2.243,0,0,1-.679,1.151A9.478,9.478,0,0,1,259.791,32.729Z"/><path class="cls-1" d="M195.147,31.016a6.1,6.1,0,0,1-6.717,1.265c-2.649-1.1-3.867-3.374-4.066-6.133a6.992,6.992,0,0,1,2.926-6.533,5.948,5.948,0,0,1,7.138.2c.216.181.428.365.667.569a1.476,1.476,0,0,0,.139-.251c.3-1.02.922-1.536,1.743-1.435a1.675,1.675,0,0,1,1.394,1.807c.033,1.494.013,2.989.013,4.484,0,1.839.043,3.681-.027,5.518a2.759,2.759,0,0,1-.577,1.633C196.928,33.086,195.681,32.539,195.147,31.016Zm-6.789-5.392a3.292,3.292,0,0,0,2.863,3.511,3.2,3.2,0,0,0,3.061-2.753,3.382,3.382,0,0,0-1.228-3.541,2.776,2.776,0,0,0-3.014-.265A3.021,3.021,0,0,0,188.358,25.624Z"/><path class="cls-1" d="M278.769,31.039c-2.29,1.851-5.048,2.237-7.231,1.027a7.4,7.4,0,0,1-3.551-7.327c.446-3.715,3.1-6.253,6.514-6.225,1.478.011,2.5.458,4.223,1.867.078-.191.149-.36.217-.531a1.541,1.541,0,0,1,1.7-1.145,1.652,1.652,0,0,1,1.353,1.658c.024.488.009.977.009,1.466q0,4.267,0,8.535a4.231,4.231,0,0,1-.042.859,1.576,1.576,0,0,1-1.305,1.327,1.483,1.483,0,0,1-1.622-.877A5.006,5.006,0,0,1,278.769,31.039ZM278.05,25.6c-.1-2.415-2.21-3.963-4.272-3.091-1.708.722-2.339,3.194-1.3,5.058a2.736,2.736,0,0,0,2.587,1.554,2.805,2.805,0,0,0,2.532-1.794A12.074,12.074,0,0,0,278.05,25.6Z"/><path class="cls-1" d="M216,26.918c0,.974.008,1.949-.005,2.923a5.65,5.65,0,0,1-.1,1.112,1.928,1.928,0,0,1-1.857,1.628,1.963,1.963,0,0,1-1.931-1.432,3.368,3.368,0,0,1-.136-1.016c-.009-4.917-.028-9.835.022-14.752a3.1,3.1,0,0,1,.627-1.8,1.881,1.881,0,0,1,3.221.786,4.852,4.852,0,0,1,.147,1.364C216,18.515,216,21.3,216,24.353c.36-.364.57-.559.761-.771,1.253-1.387,2.49-2.787,3.756-4.162a1.779,1.779,0,0,1,2.17-.567,1.92,1.92,0,0,1,1.1,2.055,2.789,2.789,0,0,1-.625,1.189c-.783.917-1.591,1.82-2.456,2.66-.5.488-.431.8-.006,1.28.936,1.051,1.839,2.134,2.711,3.239a1.932,1.932,0,0,1-.209,2.841,1.8,1.8,0,0,1-2.726-.362c-1.32-1.48-2.6-2.995-3.9-4.5a4.827,4.827,0,0,1-.329-.487Z"/><path class="cls-1" d="M232.528,26.971c-1.092,0-2.185-.012-3.277,0-.786.011-.923.233-.571.947a2.479,2.479,0,0,0,2.412,1.381,11.328,11.328,0,0,0,2.941-.51c1.176-.352,1.9-.229,2.382.64a1.648,1.648,0,0,1-.8,2.331,7.922,7.922,0,0,1-7.687.2,5.915,5.915,0,0,1-3.5-5.613c-.1-2.6.361-5.045,2.675-6.646a6.7,6.7,0,0,1,7.048-.479,6.131,6.131,0,0,1,3.475,5.907,1.622,1.622,0,0,1-1.732,1.82c-1.12.046-2.242.01-3.363.01Zm1.161-2.828a2.444,2.444,0,0,0-2.8-1.787c-1.379.092-2.176.69-2.353,1.787Z"/><path class="cls-1" d="M138.3,25.54a7.112,7.112,0,0,1-6.879,7.188,7.26,7.26,0,0,1-7.167-7.138,7.169,7.169,0,0,1,7.114-7.076A7.022,7.022,0,0,1,138.3,25.54Zm-3.934.112a3.228,3.228,0,0,0-2.048-3.154,3.17,3.17,0,0,0-3.295.879,3.763,3.763,0,0,0,.728,5.207,2.693,2.693,0,0,0,4.063-1.057A12.17,12.17,0,0,0,134.367,25.652Z"/><path class="cls-1" d="M150.98,20a5.716,5.716,0,0,1,4.064-1.5,5.269,5.269,0,0,1,5.355,4.456,6,6,0,0,1,.156,1.11c.019,2.158.043,4.317.011,6.475a1.985,1.985,0,0,1-1.856,2.022A2.041,2.041,0,0,1,156.6,30.8a5.411,5.411,0,0,1-.057-.945c-.009-1.785.012-3.57-.023-5.353-.026-1.3-.606-1.991-1.686-2.145-1.6-.229-2.444.212-2.841,1.544a5.386,5.386,0,0,0-.209,1.441c-.026,1.611,0,3.223-.014,4.835-.01,1.465-.812,2.4-2.03,2.4-1.2,0-1.993-.948-2-2.426q-.016-4.706,0-9.411c0-1.126.38-1.754,1.164-1.987S150.26,18.847,150.98,20Z"/><path class="cls-1" d="M240.977,25.578c0-.719-.046-1.441.012-2.156.062-.77-.161-1.117-1-1.224a1.84,1.84,0,0,1,.209-3.672c.611,0,.8-.271.781-.845-.029-.862-.02-1.726,0-2.588a2,2,0,0,1,1.9-2.14A2.1,2.1,0,0,1,245,15.022a22.2,22.2,0,0,1,.007,2.5c-.044.751.225,1.056.986,1a1.96,1.96,0,0,1,1.957.833,1.834,1.834,0,0,1-1.414,2.875c-1.518.259-1.52.259-1.517,1.8,0,1.179-.016,2.359.022,3.537.039,1.226.349,1.518,1.545,1.6a1.835,1.835,0,0,1,1.905,1.8,1.81,1.81,0,0,1-1.936,1.766c-.173.006-.345,0-.518,0-3.383.007-4.893-1.434-5.034-4.827-.032-.775,0-1.553,0-2.329Z"/><path class="cls-1" d="M204.865,20a5.516,5.516,0,0,1,3.716-1.488,1.959,1.959,0,0,1,2.084,1.755,1.822,1.822,0,0,1-1.777,1.947c-3.013.187-3.2,1.467-3.207,3.836,0,1.439.013,2.879-.008,4.317a2.012,2.012,0,1,1-4.011.108c-.046-3.366-.03-6.734-.006-10.1a1.581,1.581,0,0,1,1.2-1.618C203.847,18.483,204.412,19.094,204.865,20Z"/><path class="cls-1" d="M140.45,25.6c0-1.552-.015-3.1.005-4.656a2.047,2.047,0,0,1,1.995-2.251,2.139,2.139,0,0,1,2.024,2.253q.035,4.7,0,9.4a2.113,2.113,0,0,1-1.429,2.143,1.853,1.853,0,0,1-2.19-.774,2.87,2.87,0,0,1-.385-1.371C140.422,28.762,140.45,27.181,140.45,25.6Z"/><path class="cls-1" d="M144.774,15.128a2.318,2.318,0,1,1-4.633-.119,2.386,2.386,0,0,1,2.324-2.317A2.434,2.434,0,0,1,144.774,15.128Z"/></g></svg>