<svg id="Capa_1" data-name="Capa 1" xmlns="http://www.w3.org/2000/svg" viewBox="0 0 347.233 43.554"><defs><style>.cls-1,.cls-2,.cls-3{fill:#3863cb;}.cls-2{opacity:0.26;}.cls-3{opacity:0.14;}</style></defs><title>logo6</title><g id="gLPsCc"><path class="cls-1" d="M279.377,31.6V10.835c.677,0,1.341,0,2.006,0,.971.006,1.943.039,2.914.018a.967.967,0,0,1,.874.442q3.861,4.989,7.746,9.96c.1.131.211.257.4.49V10.908c.212-.019.357-.042.5-.043,1.592,0,3.184.009,4.776-.009.382,0,.524.094.523.5q-.018,9.879,0,19.758c0,.373-.115.494-.489.489q-2.087-.027-4.173,0a.84.84,0,0,1-.753-.372q-4.018-5.186-8.059-10.354a1.438,1.438,0,0,0-.517-.456V21c0,3.318-.009,6.636.011,9.954,0,.492-.107.669-.635.656-1.524-.037-3.05-.013-4.575-.013Z"/><path class="cls-1" d="M116.983,20.622c.4.172.7.3,1,.434a4.7,4.7,0,0,1,3,4.429,5.034,5.034,0,0,1-2.607,4.817,9.645,9.645,0,0,1-4.884,1.171c-3.57.029-7.139,0-10.709.017-.416,0-.54-.119-.54-.537q.018-9.855.006-19.709c0-.288-.011-.518.4-.515,3.8.021,7.608.007,11.412.05a7.122,7.122,0,0,1,3.468.916,4.657,4.657,0,0,1,2.524,4.518,4.651,4.651,0,0,1-2.589,4.13ZM110.7,23l0,.049c-.7,0-1.407.019-2.109-.007-.4-.014-.571.094-.557.528.028.92.023,1.841,0,2.761-.009.391.119.526.516.521,1.372-.019,2.745.022,4.116-.023a4.893,4.893,0,0,0,1.554-.331,1.52,1.52,0,0,0,1-1.488,1.7,1.7,0,0,0-1.621-1.834C112.645,23.032,111.667,23.049,110.7,23Zm-.3-7.616c-.635,0-1.271.015-1.906-.006-.356-.012-.464.125-.457.468.017.886.019,1.773,0,2.659-.008.368.113.5.488.5,1.137-.018,2.276.026,3.411-.021a4.785,4.785,0,0,0,1.506-.322,1.466,1.466,0,0,0,.929-1.521,1.454,1.454,0,0,0-.954-1.454,5.065,5.065,0,0,0-1.361-.287C111.506,15.344,110.95,15.381,110.4,15.381Z"/><path class="cls-1" d="M237.622,10.871c.223-.015.386-.034.55-.035,1.575,0,3.15.008,4.725-.007.384,0,.522.1.521.509q-.018,9.879-.007,19.758c0,.268.008.494-.378.491-1.726-.014-3.452-.009-5.178-.013a1.139,1.139,0,0,1-.2-.05c-.01-.179-.029-.372-.029-.565,0-2.228-.016-4.458.009-6.686.006-.494-.153-.616-.627-.611q-3.092.036-6.183,0c-.445,0-.57.129-.566.57.021,2.279,0,4.558.017,6.837,0,.382-.091.527-.5.521-1.591-.022-3.184-.008-4.776-.01-.131,0-.263-.015-.448-.026-.014-.191-.039-.367-.039-.542q0-9.8-.012-19.608c0-.5.154-.617.627-.609,1.508.028,3.017.036,4.525,0,.535-.014.634.172.629.659-.025,2.2,0,4.391-.021,6.586,0,.454.144.564.574.56q3.117-.03,6.234,0c.44,0,.571-.122.567-.567-.022-2.178-.01-4.357-.01-6.536Z"/><path class="cls-1" d="M150.091,31.9a10.811,10.811,0,1,1,10.832-10.734A10.8,10.8,0,0,1,150.091,31.9Zm.009-5.122a5.679,5.679,0,0,0,.078-11.358,5.679,5.679,0,1,0-.078,11.358Z"/><path class="cls-1" d="M204.8,31.509c-.284.02-.444.041-.6.041-1.911,0-3.821-.007-5.731.009a.884.884,0,0,1-.789-.411q-2.553-3.4-5.128-6.773c-.11-.145-.226-.286-.392-.494a16.552,16.552,0,0,1-1.213,1.3,2.606,2.606,0,0,0-.915,2.346c.083,1.167.006,2.344.027,3.517.007.4-.134.522-.523.518q-2.388-.024-4.776,0c-.383,0-.479-.138-.479-.5q.013-9.9,0-19.807c0-.39.141-.477.5-.474,1.592.015,3.184.019,4.776,0,.415-.006.5.153.5.529-.013,2.363-.007,4.726-.006,7.089v.571l.13.038c.118-.13.24-.257.354-.391q3.157-3.716,6.308-7.437a.993.993,0,0,1,.854-.4c1.893.018,3.787.008,5.681.009.16,0,.321.017.593.032-.171.21-.275.349-.392.477q-3.65,4.018-7.308,8.029a.511.511,0,0,0-.04.8q4.068,5.369,8.109,10.759C204.463,31.049,204.588,31.224,204.8,31.509Z"/><path class="cls-1" d="M268.4,31.582h-2.029c-1.223,0-2.446-.013-3.669.009a.56.56,0,0,1-.624-.425c-.379-.985-.8-1.954-1.179-2.937a.506.506,0,0,0-.557-.375q-3.594.015-7.187,0a.509.509,0,0,0-.546.393c-.38.984-.767,1.966-1.18,2.936-.07.164-.278.381-.425.383-1.891.025-3.783.017-5.761.017.081-.223.134-.39.2-.549q4.163-9.858,8.319-19.719a.851.851,0,0,1,.942-.646c1.49.045,2.982.024,4.473.009a.55.55,0,0,1,.6.4q4.242,10.068,8.5,20.13C268.313,31.292,268.337,31.387,268.4,31.582Zm-13.918-8.251h4.574l-2.278-5.795C255.981,19.549,255.245,21.408,254.483,23.331Z"/><path class="cls-1" d="M177.87,17.619a5.836,5.836,0,0,0-8.7-.469,5.67,5.67,0,0,0-.134,7.723,5.507,5.507,0,0,0,4.676,1.883,6.1,6.1,0,0,0,4.386-2.558c1.19,1.278,2.327,2.5,3.524,3.786-.4.406-.758.818-1.163,1.18a10.817,10.817,0,1,1,.5-15.679c.3.3.35.475.03.8C179.935,15.37,178.924,16.485,177.87,17.619Z"/><path class="cls-1" d="M218.9,17.6a5.828,5.828,0,0,0-8.69-.448,5.678,5.678,0,0,0-.129,7.723,5.516,5.516,0,0,0,4.678,1.879,6.184,6.184,0,0,0,4.391-2.549l3.515,3.775c-.374.386-.712.774-1.089,1.118a10.819,10.819,0,1,1,.427-15.614c.295.3.346.477.025.806-.948.971-1.855,1.982-2.779,2.975C219.151,17.376,219.038,17.473,218.9,17.6Z"/><path class="cls-1" d="M123.524,21.082c0-3.25.007-6.5-.009-9.751,0-.445.1-.616.581-.607q2.311.042,4.624,0c.475-.009.585.152.583.6q-.021,7.212-.008,14.426c0,.685,0,.686.684.686,2.681,0,5.362.011,8.042-.009.465,0,.6.134.593.6-.028,1.323-.021,2.647,0,3.971,0,.365-.1.495-.482.494q-7.036-.018-14.074,0c-.428,0-.538-.152-.537-.555C123.529,27.65,123.524,24.366,123.524,21.082Z"/><path class="cls-1" d="M270.255,10.868c.184-.012.347-.031.511-.032,1.558,0,3.117.011,4.675-.009.421-.006.58.086.579.551q-.024,9.83,0,19.66c0,.436-.109.579-.56.571-1.575-.026-3.151-.02-4.726,0-.377,0-.523-.084-.523-.5q.019-9.906.011-19.81C270.22,11.166,270.241,11.036,270.255,10.868Z"/></g><path class="cls-1" d="M76.6,16.533,62.358,31.109l-6.6-6.6a3.672,3.672,0,0,1,0-5.19L67.748,7.323Z"/><path class="cls-2" d="M85.13,7.806,76.6,16.533l-8.853-9.21L73.6,1.469a3.671,3.671,0,0,1,5.191,0Z"/><polygon class="cls-1" points="94.446 17.122 85.736 26.036 76.601 16.533 85.13 7.806 94.446 17.122"/><path class="cls-3" d="M96.64,24.506l-6.31,6.31-4.594-4.78,8.71-8.914,2.194,2.194A3.67,3.67,0,0,1,96.64,24.506Z"/><path class="cls-2" d="M85.736,26.036l-9.135-9.5L62.358,31.109l9.317,9.317L73.6,42.353a3.67,3.67,0,0,0,5.191,0L90.33,30.816Z"/></svg>