<svg id="Capa_1" data-name="Capa 1" xmlns="http://www.w3.org/2000/svg" viewBox="0 0 347.233 43.554"><defs><style>.cls-1{fill:#3863cb;}</style></defs><title>logo 1</title><g id="qROEim"><path class="cls-1" d="M32.089,23.61c1.077.352,1.885.563,2.652.876,2.663,1.086,4.472,2.9,4.767,5.9.315,3.207-.313,6.279-3.348,7.772a19.806,19.806,0,0,1-7.843,2.083c-8.179.263-16.373.045-24.56.136-1.909.021-2.411-.638-2.395-2.465.077-9.022.1-18.046-.011-27.068-.025-2.075.737-2.5,2.618-2.479,7.936.085,15.875-.036,23.81.085A20.8,20.8,0,0,1,33.9,9.525a6.644,6.644,0,0,1,4.8,6.383c.156,3.036-1.493,5.44-4.571,6.815C33.534,22.988,32.938,23.24,32.089,23.61ZM8.906,34.67c6.3,0,12.362.018,18.425-.027a2.731,2.731,0,0,0,1.853-.63c.881-1,2.092-2.168,2.133-3.307a4.783,4.783,0,0,0-1.891-3.427,7.5,7.5,0,0,0-4.019-.989c-4.5-.115-9-.053-13.509-.038-.964,0-1.929.1-2.992.154ZM8.88,21.218c5.742,0,11.22.082,16.7-.033,3.091-.065,5.159-1.693,5.189-3.68.031-2.034-1.838-3.448-5.207-3.538-4.911-.132-9.828-.061-14.742-.054a17.2,17.2,0,0,0-1.935.22Z"/><path class="cls-1" d="M170.909,16.851V39.768c-.412.262-.543.412-.69.429-6.723.769-6.723.768-6.723-5.94,0-7.775.052-15.549-.036-23.322-.022-1.918.522-2.425,2.506-2.629,4.879-.5,8.46,1.009,11.765,4.766,4.848,5.511,10.3,10.49,15.5,15.689.57.57,1.191,1.089,2.245,2.047V20.4c0-3.26.055-6.522-.022-9.78-.036-1.523.3-2.3,2.058-2.254,6.546.173,5.284-.815,5.344,5.195.082,8.108-.024,16.217.054,24.325.018,1.8-.48,2.338-2.365,2.527-4.261.428-7.284-.941-10.21-4.2-5.636-6.269-11.808-12.056-17.768-18.034C172.186,17.8,171.716,17.493,170.909,16.851Z"/><path class="cls-1" d="M236.442,21.1v5.149c-4.626,0-9.124.146-13.606-.057-2.522-.113-3.3.585-3.2,3.179.209,5.446.056,5.448,5.634,5.452q10.656.009,21.314.036a4.769,4.769,0,0,1,.86.187,8.162,8.162,0,0,1,.287,1.359c.189,3.931.181,3.933-3.828,3.933-9.613,0-19.226-.067-28.838.05-2.249.028-2.822-.688-2.8-2.857.112-8.943.064-17.888.031-26.832,0-1.445.178-2.34,2-2.328,10.7.069,21.4.039,32.1.052a8.034,8.034,0,0,1,1.148.189v5.23c-.828.049-1.708.144-2.587.146-7.523.012-15.047.068-22.568-.034-2-.027-2.826.429-2.733,2.61.219,5.178-.66,4.481,4.554,4.529C228.208,21.125,232.207,21.1,236.442,21.1Z"/><path class="cls-1" d="M252.27,39.721,269.2,24.126,252.317,8.442c3.673,0,6.55-.089,9.414.064.7.037,1.421.8,2.021,1.345,3.439,3.143,6.844,6.323,10.4,9.62,3.387-3.114,6.71-6.025,9.852-9.119a6.063,6.063,0,0,1,5.1-1.991c1.987.162,4,.035,6.861.035L279.027,24.075,295.962,39.7c-4.324.236-8.655,2.064-12.285-2.027-2.859-3.222-6.3-5.929-9.609-8.984-3.462,3.173-6.892,6.1-10.047,9.295a7.118,7.118,0,0,1-6.209,2.381c-1.723-.17-3.476-.033-5.215-.033Z"/><path class="cls-1" d="M344.994,4.066a21.427,21.427,0,0,0-2.614,2.193c-7.427,8.516-15.6,16.11-26.162,20.589-3.082,1.307-6.414,2.024-10,3.123-.44-6.7,1.083-11.972,5.077-16.441,3.314-3.706,7.611-5.953,12.1-7.84a47.541,47.541,0,0,1,19.805-3.7c1.536.038,2.556.286,1.694,2.134Z"/><path class="cls-1" d="M113.611,27.914c0,3.624-.086,6.8.034,9.959.067,1.8-.405,2.553-2.357,2.5-6.091-.177-5.008.668-5.054-5.019-.066-8.186.031-16.374-.052-24.56-.019-1.851.525-2.449,2.413-2.433,9.69.084,19.381.037,29.072.039,3.381,0,3.385,0,3.316,3.447-.012.578-.08,1.154-.148,2.1H113.771V22.5h12.353c4.822,0,5.032.268,3.949,5.411Z"/><path class="cls-1" d="M344.994,4.066l-.092.062a5.51,5.51,0,0,1,.763,1.779c.352,9.435-.694,18.588-6.581,26.421-6.949,9.245-20.506,11.7-29.039,5.427a17.347,17.347,0,0,1-1.352-1.248C326.415,31.751,336.979,19.325,344.994,4.066Z"/><path class="cls-1" d="M77.1,14.645c-4.6,0-8.84.04-13.081-.033-.9-.015-2.53-.357-2.571-.7a25.721,25.721,0,0,1,.132-5.168c.012-.144.721-.326,1.106-.327C75.046,8.4,87.408,8.4,99.988,8.4v6.154H84.675c-.059,1.24-.138,2.129-.14,3.019-.011,6.857-.044,13.713.02,20.569.015,1.6-.451,2.311-2.129,2.207-1.65-.1-3.312-.023-5.329-.023Z"/><path class="cls-1" d="M48.032,8.768a3.157,3.157,0,0,1,.532-.255c6.811-.7,6.811-.7,6.811,6.064,0,7.677-.088,15.355.054,23.028.042,2.272-.692,2.981-2.85,2.758a45.357,45.357,0,0,0-4.547-.029Z"/><path class="cls-1" d="M154.026,24.116c0,4.59-.067,9.181.033,13.769.039,1.788-.411,2.542-2.359,2.485-6.084-.179-5,.669-5.049-5.008-.066-8.094.04-16.19-.057-24.284-.024-2.008.46-2.811,2.625-2.725,5.632.223,4.727-.728,4.8,4.747C154.066,16.772,154.027,20.444,154.026,24.116Z"/></g></svg>