<svg id="Capa_1" data-name="Capa 1" xmlns="http://www.w3.org/2000/svg" viewBox="0 0 347.233 43.554"><defs><style>.cls-1{fill:#3863cb;}</style></defs><title>logo4 </title><g id="QcSqBH"><path class="cls-1" d="M62.571.523C73.779,3.618,82.62,11.977,84.15,23.485c.7,5.269.291,10.7.23,16.049-.022,1.923-1.9,3.208-4.033,3.14a3.591,3.591,0,0,1-3.7-3.521c-.074-3.782-.013-7.565-.047-11.348-.027-2.966-1.794-4.8-4.5-4.751A4.075,4.075,0,0,0,67.918,27.1c-.135,3.3-.068,6.617-.088,9.927,0,.63.016,1.262-.018,1.891a3.932,3.932,0,0,1-7.859-.095c-.035-3.677,0-7.355-.018-11.033-.014-2.885-1.717-4.726-4.333-4.735-2.656-.009-4.337,1.787-4.349,4.688-.015,3.52.006,7.04-.009,10.56-.012,2.772-1.525,4.393-4.039,4.375-2.432-.018-3.924-1.637-3.936-4.315-.015-3.52.007-7.04-.01-10.56-.013-2.926-1.664-4.732-4.3-4.747-2.684-.015-4.373,1.838-4.383,4.839-.012,3.415,0,6.83-.005,10.245,0,2.481-1,3.993-2.916,4.453-2.11.506-3.916-.284-4.917-2.659-.289-.686.009-15.24.045-15.592C28.036,11.98,38.186,2.082,50.524.136,51.547-.025,58.931-.482,62.571.523Z"/><path class="cls-1" d="M168.029,43.662c-.694-.21-1.385-.426-2.08-.628a11.457,11.457,0,0,1-8.287-9.725c-.5-5.127.909-9.52,5.773-11.91a31.825,31.825,0,0,1,7.791-2.269c2.824-.565,5.722-.767,8.588-1.12,1.834-.226,3.691-.561,4.153-2.71.526-2.448.417-4.866-1.736-6.639-2.968-2.445-10.487-2.7-13.423-.21-1.189,1.009-1.805,2.718-2.6,4.156a6.35,6.35,0,0,0-.39,1.681h-5.9c-.836-3.456,1.363-8.363,4.664-10.452,4.31-2.726,9.081-3.186,13.968-2.565A25.436,25.436,0,0,1,184.9,2.988c3.974,1.626,5.819,4.809,5.828,9.062q.022,10.638.008,21.275c0,4.263,0,4.263,4.4,4.275,0,1.4.054,2.8-.041,4.2a1.263,1.263,0,0,1-.867.852,27.17,27.17,0,0,1-5.3.249,4.676,4.676,0,0,1-3.939-3.437c-.242-.689-.423-1.4-.669-2.223-.86.781-1.634,1.54-2.465,2.229a21.206,21.206,0,0,1-9.717,4.193Zm16.215-21.2c-4.157.714-7.96,1.338-11.75,2.035a21.921,21.921,0,0,0-3.948,1.034,5.977,5.977,0,0,0-3.979,6.315,5.647,5.647,0,0,0,4.4,5.485,12.013,12.013,0,0,0,4.8.28c4.262-.678,8.237-2.263,9.582-6.8C184.161,28.092,184,25.08,184.244,22.462Z"/><path class="cls-1" d="M252.217,43.662c-.079-.066-.15-.171-.239-.191-9-2.069-13.387-8.141-14.427-16.928a26.489,26.489,0,0,1,2.436-15.655,17.7,17.7,0,0,1,24.24-7.741c5.491,2.8,8.011,7.525,8.747,13.376.313,2.488.348,5.011.522,7.718H244.865c-1.171,4.806,2.329,11.478,6.663,12.974,5.707,1.969,11.667-.336,13.931-5.615.7-1.634,1.513-2.238,3.224-2.034a36.982,36.982,0,0,0,4.132.03,16.351,16.351,0,0,1-.423,1.968c-2.162,6.049-6.05,10.247-12.547,11.629-.554.118-1.092.311-1.637.469ZM266.5,18.8c-.5-4.186-1.309-8.122-5.192-10.324a10.406,10.406,0,0,0-11.223.142c-3.638,2.3-5.177,5.841-5.394,10.182Z"/><path class="cls-1" d="M314.334,42.085h-6.928V40.409c0-7.771.056-15.543-.044-23.312a20.434,20.434,0,0,0-.916-5.7,5.8,5.8,0,0,0-5.128-4.072c-6.567-.936-12.178,3.162-12.517,9.752-.395,7.7-.219,15.428-.289,23.143-.006.616,0,1.232,0,1.925H281.9V2.12h6.262v5l.392.237c.346-.422.666-.868,1.042-1.262,4.7-4.928,10.438-6,16.77-4.232,4.282,1.194,6.5,4.389,7.332,8.63.249,1.276.428,2.565.64,3.848Z"/><path class="cls-1" d="M213.179,21.538c-1.695,1.83-3.274,3.441-4.723,5.161a3.138,3.138,0,0,0-.5,1.876c-.041,4.461-.021,8.923-.021,13.528h-6.37V2.138h6.351V18.967c.7-.65,1.11-1,1.489-1.381,4.834-4.824,9.678-9.637,14.479-14.493a3.2,3.2,0,0,1,2.6-1.111c2.186.083,4.378.025,6.418.025L218.453,17.192l15.972,25.056c-2.242,0-4.205-.132-6.142.038a3.483,3.483,0,0,1-3.71-2.084c-3.32-5.662-6.8-11.231-10.219-16.834C214.06,22.887,213.745,22.419,213.179,21.538Z"/><path class="cls-1" d="M107.655,21.406c-1.733,1.931-3.306,3.617-4.784,5.384a2.683,2.683,0,0,0-.408,1.592c-.032,3.992-.017,7.984-.017,11.976V42.15H96.121V2.128H102.4V18.983c.718-.65,1.136-1,1.521-1.382,4.874-4.858,9.719-9.745,14.646-14.549a4.107,4.107,0,0,1,2.439-1c2.19-.138,4.395-.046,6.318-.046L112.964,17.161c5.209,8.171,10.5,16.467,15.982,25.073-2.909,0-5.464.059-8.012-.055-.447-.021-.971-.7-1.274-1.193-3.555-5.767-7.073-11.557-10.6-17.339C108.73,23.111,108.392,22.582,107.655,21.406Z"/><path class="cls-1" d="M141,42.154h-6.6V2.131h6.257V8.49c3.4-4.565,6.786-8.309,12.883-7.134V8.3c-.445,0-.845.011-1.245,0-6.815-.215-11.231,4-11.283,10.877-.053,6.989-.013,13.978-.013,20.968Z"/></g></svg>