<svg xmlns="http://www.w3.org/2000/svg" width="31.195" height="57.358" viewBox="0 0 31.195 57.358">
  <g id="Grupo_106" data-name="Grupo 106" transform="translate(0)">
    <path id="Trazado_749" data-name="Trazado 749" d="M1291.516,7191.888l28.37,28.37a.377.377,0,0,0,.53.007q.557-.532,1.107-1.082c.366-.368.727-.736,1.083-1.109a.38.38,0,0,0-.007-.53l-28.1-28.1a.375.375,0,0,0-.54.009c-.373.4-.746.8-1.136,1.189C1292.4,7191.073,1291.955,7191.477,1291.516,7191.888Z" transform="translate(-1291.516 -7189.335)" fill="#fff"/>
    <path id="Trazado_750" data-name="Trazado 750" d="M1294.13,7240.262l28.37-28.37a.377.377,0,0,0,.007-.528c-.355-.373-.717-.744-1.083-1.109s-.734-.726-1.107-1.083a.38.38,0,0,0-.531.008l-28.1,28.1a.374.374,0,0,0,.009.54c.4.373.8.746,1.188,1.136C1293.313,7239.382,1293.717,7239.825,1294.13,7240.262Z" transform="translate(-1291.496 -7182.903)" fill="#fff"/>
  </g>
</svg>
