<svg xmlns="http://www.w3.org/2000/svg" width="31.195" height="57.358" viewBox="0 0 31.195 57.358">
  <g id="Grupo_107" data-name="Grupo 107" transform="translate(0)">
    <path id="Trazado_751" data-name="Trazado 751" d="M893.706,7191.888l-28.37,28.37a.377.377,0,0,1-.53.007q-.557-.532-1.107-1.082c-.366-.368-.727-.736-1.083-1.109a.38.38,0,0,1,.007-.53l28.1-28.1a.375.375,0,0,1,.54.009c.373.4.747.8,1.135,1.189C892.824,7191.073,893.267,7191.477,893.706,7191.888Z" transform="translate(-862.511 -7189.335)" fill="#fff"/>
    <path id="Trazado_752" data-name="Trazado 752" d="M891.053,7240.262l-28.37-28.37a.376.376,0,0,1-.007-.528c.355-.373.716-.744,1.083-1.109s.735-.726,1.107-1.083a.38.38,0,0,1,.53.008l28.1,28.1a.374.374,0,0,1-.009.54c-.4.373-.8.746-1.188,1.136C891.87,7239.382,891.464,7239.825,891.053,7240.262Z" transform="translate(-862.492 -7182.903)" fill="#fff"/>
  </g>
</svg>
