<svg id="Capa_1" data-name="Capa 1" xmlns="http://www.w3.org/2000/svg" viewBox="0 0 556.076 556.076"><defs><style>.cls-1{fill:none;stroke:#fff;stroke-linecap:round;stroke-linejoin:round;stroke-width:8.187px;}</style></defs><title>LOGO Y HAMBURGUESA EN AZUL</title><line class="cls-1" x1="93.744" y1="281.81" x2="462.331" y2="281.81"/><path class="cls-1" d="M310.749,182.412a56.07,56.07,0,0,1,15.015,74.9"/><path class="cls-1" d="M231.412,259.027a56.067,56.067,0,0,1,20.319-80.6"/><path class="cls-1" d="M250.017,108.294V141.7"/><path class="cls-1" d="M250.017,153.557V214.99"/><path class="cls-1" d="M278.038,108.294v26.943"/><path class="cls-1" d="M278.038,148.17v66.82"/><path class="cls-1" d="M306.059,73.806v28.02"/><path class="cls-1" d="M306.059,143.859V214.99"/><path class="cls-1" d="M188.585,303.365c1.078,3.233,0,178.9,0,178.9H366.412v-178.9"/><path class="cls-1" d="M222,303.365V431.616s28.022-1.078,28.022,24.788c0,1.077,60.732,0,60.732,0s-2.535-23.711,23.331-23.711V303.365"/><circle class="cls-1" cx="277.499" cy="343.78" r="21.016"/><line class="cls-1" x1="274.175" y1="4.093" x2="274.175" y2="56.729"/><line class="cls-1" x1="203.405" y1="14.428" x2="217.028" y2="65.27"/><line class="cls-1" x1="137.72" y1="42.726" x2="164.038" y2="88.31"/><line class="cls-1" x1="81.598" y1="87.061" x2="118.817" y2="124.28"/><line class="cls-1" x1="38.864" y1="144.411" x2="84.447" y2="170.729"/><line class="cls-1" x1="12.428" y1="210.867" x2="63.27" y2="224.49"/><line class="cls-1" x1="4.093" y1="281.901" x2="56.729" y2="281.901"/><line class="cls-1" x1="14.428" y1="352.671" x2="65.27" y2="339.048"/><line class="cls-1" x1="42.726" y1="418.355" x2="68.749" y2="403.331"/><line class="cls-1" x1="87.061" y1="474.477" x2="105.671" y2="455.868"/><line class="cls-1" x1="144.411" y1="517.212" x2="170.729" y2="471.628"/><line class="cls-1" x1="210.867" y1="543.647" x2="224.49" y2="492.805"/><line class="cls-1" x1="281.901" y1="551.982" x2="281.901" y2="499.347"/><line class="cls-1" x1="352.671" y1="541.648" x2="339.048" y2="490.806"/><line class="cls-1" x1="418.355" y1="513.349" x2="392.038" y2="467.765"/><line class="cls-1" x1="474.477" y1="469.014" x2="448.331" y2="442.868"/><line class="cls-1" x1="517.212" y1="411.665" x2="479.035" y2="389.623"/><line class="cls-1" x1="543.647" y1="345.209" x2="492.805" y2="331.586"/><line class="cls-1" x1="551.982" y1="274.175" x2="499.347" y2="274.175"/><line class="cls-1" x1="541.648" y1="203.405" x2="490.806" y2="217.028"/><line class="cls-1" x1="513.349" y1="137.72" x2="479.437" y2="157.299"/><line class="cls-1" x1="469.014" y1="81.598" x2="449.798" y2="100.815"/><line class="cls-1" x1="411.665" y1="38.864" x2="385.347" y2="84.447"/><line class="cls-1" x1="345.209" y1="12.428" x2="331.586" y2="63.27"/></svg>