<svg id="Capa_1" data-name="Capa 1" xmlns="http://www.w3.org/2000/svg" viewBox="0 0 556.076 556.076"><defs><style>.cls-1{fill:none;stroke:#fff;stroke-linecap:round;stroke-linejoin:round;stroke-width:8.187px;}.cls-2{fill:#fff;}</style></defs><title>svgs</title><path class="cls-1" d="M365.8,390.571V421.7a12.905,12.905,0,0,1-12.905,12.9H173.368a12.905,12.905,0,0,1-12.9-12.9V156.189a12.905,12.905,0,0,1,12.905-12.9H352.9A12.905,12.905,0,0,1,365.8,156.189v81.538"/><path class="cls-1" d="M160.463,412.792h-17.9a12.906,12.906,0,0,1-12.9-12.906V134.372a12.906,12.906,0,0,1,12.905-12.906H322.1A12.906,12.906,0,0,1,335,134.372v8.912"/><line class="cls-1" x1="329.411" y1="185.972" x2="191.851" y2="185.972"/><line class="cls-1" x1="263.132" y1="210.941" x2="191.851" y2="210.941"/><line class="cls-1" x1="232.331" y1="237.727" x2="191.851" y2="237.727"/><path class="cls-1" d="M189.581,317.176c1.416-.708,31.563-19.649,44.755-27.947a12.894,12.894,0,0,1,12.558-.655l38.4,18.868a12.907,12.907,0,0,0,14.282-1.952L341.7,267.909a12.923,12.923,0,0,1,1.875-1.39l64.375-39.234"/><path class="cls-1" d="M322.6,326.256l-28.588,23.2a12.856,12.856,0,0,1-6.2,2.739c-11.206,1.684-45.866,6.967-47.387,8.108-1.816,1.362-54.933,24.516-54.933,24.516"/><circle class="cls-2" cx="407.952" cy="227.285" r="12.258"/><circle class="cls-2" cx="341.668" cy="267.129" r="12.258"/><circle class="cls-2" cx="292.183" cy="311.274" r="12.258"/><circle class="cls-2" cx="292.183" cy="351.831" r="12.258"/><circle class="cls-2" cx="239.749" cy="360.911" r="12.258"/><circle class="cls-2" cx="239.749" cy="284.488" r="12.258"/><circle class="cls-2" cx="189.581" cy="317.176" r="12.258"/><circle class="cls-2" cx="185.495" cy="384.821" r="12.258"/><circle class="cls-1" cx="382.225" cy="328.677" r="44.189"/><circle class="cls-1" cx="398.039" cy="321.186" r="4.01"/><circle class="cls-1" cx="365.802" cy="321.186" r="4.01"/><path class="cls-1" d="M369.813,335.79V347.9s-.606,10.9,10.9,10.9,11.805-11.805,11.805-11.805v-11.2"/><line class="cls-1" x1="274.175" y1="4.093" x2="274.175" y2="56.729"/><line class="cls-1" x1="203.405" y1="14.428" x2="217.028" y2="65.27"/><line class="cls-1" x1="137.72" y1="42.726" x2="164.038" y2="88.31"/><line class="cls-1" x1="81.598" y1="87.061" x2="118.817" y2="124.28"/><line class="cls-1" x1="38.864" y1="144.411" x2="84.447" y2="170.729"/><line class="cls-1" x1="12.428" y1="210.867" x2="63.27" y2="224.49"/><line class="cls-1" x1="4.093" y1="281.901" x2="56.729" y2="281.901"/><line class="cls-1" x1="14.428" y1="352.671" x2="65.27" y2="339.048"/><line class="cls-1" x1="42.726" y1="418.355" x2="68.749" y2="403.331"/><line class="cls-1" x1="87.061" y1="474.477" x2="105.671" y2="455.868"/><line class="cls-1" x1="144.411" y1="517.212" x2="170.729" y2="471.628"/><line class="cls-1" x1="210.867" y1="543.647" x2="224.49" y2="492.805"/><line class="cls-1" x1="281.901" y1="551.982" x2="281.901" y2="499.347"/><line class="cls-1" x1="352.671" y1="541.648" x2="339.048" y2="490.806"/><line class="cls-1" x1="418.355" y1="513.349" x2="392.038" y2="467.765"/><line class="cls-1" x1="474.477" y1="469.014" x2="448.331" y2="442.868"/><line class="cls-1" x1="517.212" y1="411.665" x2="479.035" y2="389.623"/><line class="cls-1" x1="543.647" y1="345.209" x2="492.805" y2="331.586"/><line class="cls-1" x1="551.982" y1="274.175" x2="499.347" y2="274.175"/><line class="cls-1" x1="541.648" y1="203.405" x2="490.806" y2="217.028"/><line class="cls-1" x1="513.349" y1="137.72" x2="479.437" y2="157.299"/><line class="cls-1" x1="469.014" y1="81.598" x2="449.798" y2="100.815"/><line class="cls-1" x1="411.665" y1="38.864" x2="385.347" y2="84.447"/><line class="cls-1" x1="345.209" y1="12.428" x2="331.586" y2="63.27"/></svg>