<svg id="Capa_1" data-name="Capa 1" xmlns="http://www.w3.org/2000/svg" viewBox="0 0 268.765 246.268"><defs><style>.cls-1,.cls-2{fill:#dadae2;}.cls-1{opacity:0.43;}.cls-3{fill:#bbbdcc;}.cls-4{fill:#999eb5;}.cls-5{fill:#737d9d;}.cls-6{fill:#042360;}.cls-7{fill:#4e5e87;}</style></defs><title>svgs</title><path class="cls-1" d="M210.564,245.594c-103.044,8.446-34.994-65.256-104.193-65.256S53.1,165.765,7.024,114.132c-46.1-51.67,147.656-203.5,206.245-41.181C236.764,138.04,320.491,236.583,210.564,245.594Z"/><path class="cls-2" d="M268.751,90.345a.623.623,0,0,1-.436.737l-20.3,5.444a.6.6,0,0,1-.737-.436c-.382-1.61-.791-3.193-1.255-4.762a.59.59,0,0,1,.409-.751l20.29-5.43a.606.606,0,0,1,.751.409C267.919,87.139,268.356,88.735,268.751,90.345Z"/><path class="cls-2" d="M268.315,143.929a.615.615,0,0,1,.436.723c-.395,1.61-.818,3.206-1.282,4.789a.614.614,0,0,1-.751.423l-41.78-11.38a.591.591,0,0,1-.41-.736c.464-1.57.887-3.166,1.269-4.763a.6.6,0,0,1,.737-.45Z"/><path class="cls-3" d="M257.945,62.564a.618.618,0,0,1-.232.819L239.483,73.9a.582.582,0,0,1-.819-.232c-.791-1.433-1.623-2.852-2.483-4.243a.6.6,0,0,1,.2-.833l18.243-10.534a.6.6,0,0,1,.819.219C256.307,59.685,257.14,61.118,257.945,62.564Z"/><path class="cls-3" d="M257.713,171.614a.635.635,0,0,1,.232.833c-.805,1.446-1.638,2.879-2.5,4.284a.6.6,0,0,1-.819.218l-35.054-20.126a.6.6,0,0,1-.218-.832c.873-1.392,1.692-2.811,2.483-4.257a.6.6,0,0,1,.819-.232Z"/><path class="cls-4" d="M240.288,38.549a.6.6,0,0,1,0,.846L225.374,54.309a.6.6,0,0,1-.859-.014q-1.7-1.781-3.48-3.479a.594.594,0,0,1-.013-.86l14.913-14.913a.6.6,0,0,1,.846,0C237.982,36.175,239.156,37.348,240.288,38.549Z"/><path class="cls-4" d="M240.274,195.616a.589.589,0,0,1,.014.846c-1.146,1.2-2.306,2.374-3.507,3.506a.6.6,0,0,1-.846,0l-25.379-24.984a.589.589,0,0,1,.014-.846q1.781-1.7,3.479-3.479a.606.606,0,0,1,.86-.027Z"/><path class="cls-5" d="M217.051,19.883a.6.6,0,0,1,.218.819L206.708,38.986a.6.6,0,0,1-.832.218c-1.392-.859-2.811-1.692-4.258-2.47a.581.581,0,0,1-.231-.818l10.561-18.3a.616.616,0,0,1,.818-.232Q214.937,18.594,217.051,19.883Z"/><path class="cls-5" d="M217.269,214.309a.612.612,0,0,1-.205.819c-1.419.859-2.851,1.692-4.3,2.483a.6.6,0,0,1-.818-.232l-15.9-27.644a.606.606,0,0,1,.232-.819c1.447-.778,2.879-1.6,4.271-2.456a.6.6,0,0,1,.833.2Z"/><path class="cls-6" d="M156.208,87.466c29.869,0,54.17,24.738,54.17,55.125s-24.3,55.126-54.17,55.126-54.17-24.725-54.17-55.126a55.421,55.421,0,0,1,20.59-43.227V99.9a3.862,3.862,0,0,0,7.723,0V94.152A53.273,53.273,0,0,1,156.208,87.466Zm46.461,55.125c0-26.129-20.849-47.4-46.461-47.4s-46.447,21.273-46.447,47.4,20.836,47.416,46.447,47.416S202.669,168.735,202.669,142.591Z"/><path class="cls-7" d="M189.775,7.862a.6.6,0,0,1,.409.75l-5.458,20.413a.594.594,0,0,1-.75.409c-1.57-.45-3.152-.873-4.762-1.255a.577.577,0,0,1-.437-.723l5.472-20.44a.623.623,0,0,1,.736-.437C186.6,6.975,188.192,7.412,189.775,7.862Z"/><path class="cls-7" d="M190.184,226.4a.591.591,0,0,1-.409.737c-1.583.464-3.18.9-4.8,1.283a.6.6,0,0,1-.723-.423l-7.191-26.239a.6.6,0,0,1,.45-.737c1.6-.369,3.193-.791,4.762-1.255a.589.589,0,0,1,.737.423Z"/><rect class="cls-6" x="182.611" y="138.798" width="7.45" height="7.6"/><path class="cls-3" d="M156.208,95.189c25.612,0,46.461,21.273,46.461,47.4s-20.849,47.416-46.461,47.416-46.447-21.272-46.447-47.416C109.761,116.462,130.6,95.189,156.208,95.189ZM190.061,146.4v-7.6h-7.45v7.6Zm-7.272-25.516-5.281-5.362-5.267,5.362,5.267,5.377Zm0,43.419-5.281-5.363-5.267,5.363,5.267,5.376Zm-18.053-13.018V133.9H147.68v17.383Zm-4.8,25.816v-7.6h-7.45v7.6Zm0-61.4v-7.6h-7.45v7.6Zm-19.757,5.185-5.267-5.362-5.281,5.362,5.281,5.377Zm0,43.419-5.267-5.363-5.281,5.363,5.281,5.376Zm-10.371-17.9v-7.6h-7.45v7.6Z"/><path class="cls-6" d="M189.788,58.88V77.069a3.862,3.862,0,0,1-7.723,0V59.139C181.82,57.611,179.091,45,156.959,45c-22.037,0-26.1,14.6-26.608,16.852v32.3a54.777,54.777,0,0,0-7.723,5.212l.055-38.505c.041-.232,4.161-23.579,34.276-23.579,15.487,0,23.551,5.554,27.59,10.207A21.169,21.169,0,0,1,189.761,58.5Z"/><polygon class="cls-6" points="177.508 115.52 182.789 120.882 177.508 126.259 172.241 120.882 177.508 115.52"/><polygon class="cls-6" points="177.508 158.938 182.789 164.301 177.508 169.677 172.241 164.301 177.508 158.938"/><rect class="cls-6" x="147.68" y="133.9" width="17.056" height="17.384"/><path class="cls-6" d="M160.9,209.247v21.791a.606.606,0,0,1-.587.614c-.832.013-1.664.027-2.483.027s-1.665-.014-2.483-.027a.618.618,0,0,1-.6-.614V209.861a.6.6,0,0,1,.628-.6c.873.028,1.746.055,2.633.055C158.978,209.315,159.933,209.274,160.9,209.247Z"/><path class="cls-6" d="M160.9,3.959V25.764c-.969-.041-1.924-.082-2.893-.082-.887,0-1.76.027-2.633.068a.612.612,0,0,1-.628-.6V3.959a.606.606,0,0,1,.6-.6c.818-.027,1.651-.027,2.483-.027s1.651,0,2.483.027A.594.594,0,0,1,160.9,3.959Z"/><rect class="cls-6" x="152.483" y="169.499" width="7.45" height="7.6"/><rect class="cls-6" x="152.483" y="108.097" width="7.45" height="7.6"/><polygon class="cls-6" points="134.909 115.52 140.176 120.882 134.909 126.259 129.628 120.882 134.909 115.52"/><polygon class="cls-6" points="134.909 158.938 140.176 164.301 134.909 169.677 129.628 164.301 134.909 158.938"/><path class="cls-6" d="M136.9,27.538a.578.578,0,0,1-.437.723c-1.6.382-3.193.8-4.762,1.269a.577.577,0,0,1-.737-.409l-5.5-20.509a.617.617,0,0,1,.41-.75c1.583-.45,3.193-.887,4.8-1.283a.616.616,0,0,1,.723.437Z"/><path class="cls-6" d="M136.464,206.736a.592.592,0,0,1,.437.737L131.4,228a.6.6,0,0,1-.723.423c-1.61-.382-3.22-.819-4.8-1.283a.6.6,0,0,1-.41-.737l5.5-20.508a.59.59,0,0,1,.737-.423C133.271,205.945,134.868,206.354,136.464,206.736Z"/><path class="cls-6" d="M130.351,94.152V99.9a3.862,3.862,0,0,1-7.723,0v-.533A54.777,54.777,0,0,1,130.351,94.152Z"/><rect class="cls-6" x="122.355" y="138.798" width="7.45" height="7.6"/><path class="cls-6" d="M114.359,36.052a.6.6,0,0,1-.232.819q-2.169,1.186-4.257,2.5a.6.6,0,0,1-.832-.205L98.4,20.7a.585.585,0,0,1,.2-.819c1.405-.86,2.838-1.692,4.284-2.5a.633.633,0,0,1,.832.232Z"/><path class="cls-6" d="M114.127,198.126a.6.6,0,0,1,.232.819l-10.643,18.448a.616.616,0,0,1-.832.218c-1.446-.791-2.879-1.624-4.284-2.483a.588.588,0,0,1-.2-.819l10.643-18.462a.6.6,0,0,1,.832-.2C111.262,196.5,112.681,197.335,114.127,198.126Z"/><path class="cls-6" d="M94.82,50.147a.589.589,0,0,1-.014.846c-1.2,1.133-2.36,2.293-3.479,3.493a.618.618,0,0,1-.86.014L75.376,39.4a.6.6,0,0,1-.014-.846c1.147-1.2,2.306-2.374,3.507-3.506a.6.6,0,0,1,.846,0Z"/><path class="cls-6" d="M94.806,184.017a.589.589,0,0,1,.014.846l-15.1,15.092a.6.6,0,0,1-.846.013c-1.2-1.146-2.36-2.306-3.507-3.506a.6.6,0,0,1,.014-.846l15.091-15.105a.606.606,0,0,1,.86.013C92.446,181.725,93.619,182.885,94.806,184.017Z"/><path class="cls-6" d="M79.538,68.745a.6.6,0,0,1,.2.833c-.859,1.391-1.692,2.811-2.469,4.257a.583.583,0,0,1-.819.232L57.938,63.383a.6.6,0,0,1-.219-.819c.792-1.446,1.624-2.879,2.484-4.284a.6.6,0,0,1,.819-.219Z"/><path class="cls-6" d="M79.742,165.433a.585.585,0,0,1-.2.819L61.022,176.936a.588.588,0,0,1-.819-.205c-.86-1.405-1.692-2.838-2.484-4.284a.618.618,0,0,1,.219-.833L76.454,160.93a.605.605,0,0,1,.819.232C78.05,162.609,78.883,164.028,79.742,165.433Z"/><path class="cls-6" d="M69.563,90.673a.589.589,0,0,1,.423.737c-.464,1.569-.887,3.165-1.269,4.762a.585.585,0,0,1-.737.436L47.336,91.082a.6.6,0,0,1-.423-.737c.382-1.61.818-3.206,1.282-4.789a.591.591,0,0,1,.737-.409Z"/><path class="cls-6" d="M69.986,143.6a.589.589,0,0,1-.423.737l-20.631,5.526a.6.6,0,0,1-.737-.409c-.464-1.583-.9-3.193-1.282-4.8a.6.6,0,0,1,.423-.723l20.644-5.54a.6.6,0,0,1,.737.437C69.1,140.436,69.522,142.018,69.986,143.6Z"/><path class="cls-6" d="M66.248,119.955a.6.6,0,0,1-.6.627H44.293a.627.627,0,0,1-.614-.6c-.014-.819-.027-1.651-.027-2.483s.013-1.651.027-2.484a.616.616,0,0,1,.614-.587H65.647a.6.6,0,0,1,.6.628c-.028.805-.055,1.624-.055,2.443S66.22,119.136,66.248,119.955Z"/></svg>