<svg id="Capa_1" data-name="Capa 1" xmlns="http://www.w3.org/2000/svg" xmlns:xlink="http://www.w3.org/1999/xlink" viewBox="0 0 367.326 146.641"><defs><style>.cls-1{font-size:39.744px;fill:#042360;font-family:Ubuntu-BoldItalic, Ubuntu;font-weight:700;font-style:italic;}.cls-2{letter-spacing:-0.02em;}.cls-3{fill:#2d2d66;}.cls-4{fill:url(#Degradado_sin_nombre_18);}.cls-5{fill:url(#Degradado_sin_nombre_18-2);}.cls-6{fill:url(#Degradado_sin_nombre_18-3);}.cls-7{fill:url(#Degradado_sin_nombre_18-4);}.cls-8{fill:url(#Degradado_sin_nombre_18-5);}.cls-9{fill:url(#Degradado_sin_nombre_18-6);}.cls-10{fill:url(#Degradado_sin_nombre_18-7);}.cls-11{fill:url(#Degradado_sin_nombre_18-8);}.cls-12{fill:#312d56;}.cls-13{fill:url(#Degradado_sin_nombre_18-9);}.cls-14{fill:url(#Degradado_sin_nombre_18-10);}.cls-15{fill:url(#Degradado_sin_nombre_18-11);}</style><linearGradient id="Degradado_sin_nombre_18" x1="148.262" y1="69.228" x2="69.82" y2="-11.88" gradientUnits="userSpaceOnUse"><stop offset="0" stop-color="#312d56" stop-opacity="0"/><stop offset="1" stop-color="#312d56"/></linearGradient><linearGradient id="Degradado_sin_nombre_18-2" x1="149.083" y1="68.433" x2="70.641" y2="-12.674" xlink:href="#Degradado_sin_nombre_18"/><linearGradient id="Degradado_sin_nombre_18-3" x1="153.636" y1="64.03" x2="75.194" y2="-17.078" xlink:href="#Degradado_sin_nombre_18"/><linearGradient id="Degradado_sin_nombre_18-4" x1="153.207" y1="64.444" x2="74.765" y2="-16.663" xlink:href="#Degradado_sin_nombre_18"/><linearGradient id="Degradado_sin_nombre_18-5" x1="155.031" y1="62.68" x2="76.589" y2="-18.427" xlink:href="#Degradado_sin_nombre_18"/><linearGradient id="Degradado_sin_nombre_18-6" x1="138.683" y1="81.692" x2="69.76" y2="157.469" xlink:href="#Degradado_sin_nombre_18"/><linearGradient id="Degradado_sin_nombre_18-7" x1="144.174" y1="86.686" x2="75.251" y2="162.463" xlink:href="#Degradado_sin_nombre_18"/><linearGradient id="Degradado_sin_nombre_18-8" x1="77.237" y1="73.32" x2="117.314" y2="73.32" xlink:href="#Degradado_sin_nombre_18"/><linearGradient id="Degradado_sin_nombre_18-9" x1="137.529" y1="80.643" x2="68.607" y2="156.419" xlink:href="#Degradado_sin_nombre_18"/><linearGradient id="Degradado_sin_nombre_18-10" x1="142.926" y1="85.552" x2="74.004" y2="161.328" xlink:href="#Degradado_sin_nombre_18"/><linearGradient id="Degradado_sin_nombre_18-11" x1="142.084" y1="84.786" x2="73.162" y2="160.562" xlink:href="#Degradado_sin_nombre_18"/></defs><title>svgs</title><text class="cls-1" transform="translate(154.243 84.269)">Global <tspan class="cls-2" x="130.953" y="0">C</tspan><tspan x="155.514" y="0">oin</tspan></text><path class="cls-3" d="M38.041,9.03q-1.4.769-2.756,1.6a.392.392,0,0,0-.135.529l6.843,11.851a.381.381,0,0,0,.533.133c.895-.555,1.8-1.09,2.73-1.6a.382.382,0,0,0,.149-.526L38.568,9.178A.392.392,0,0,0,38.041,9.03Z"/><path class="cls-3" d="M58.538,43.768,49.205,27.6a.4.4,0,0,0-.527-.15q-1.4.763-2.755,1.61a.393.393,0,0,0-.131.528l9.326,16.153a.382.382,0,0,0,.539.129q1.319-.85,2.723-1.573A.381.381,0,0,0,58.538,43.768Z"/><path class="cls-3" d="M55.883,2.091q-1.553.378-3.078.824a.391.391,0,0,0-.267.476l3.529,13.171a.38.38,0,0,0,.477.267c1.008-.3,2.028-.568,3.057-.815a.382.382,0,0,0,.282-.471L56.353,2.37A.391.391,0,0,0,55.883,2.091Z"/><path class="cls-3" d="M66.689,40.943,61.85,22.882a.394.394,0,0,0-.468-.28c-1.039.245-2.07.513-3.085.819a.394.394,0,0,0-.264.478L62.875,41.97a.38.38,0,0,0,.487.264c.993-.319,2.005-.6,3.037-.82A.38.38,0,0,0,66.689,40.943Z"/><path class="cls-3" d="M73.32,40.678c.527,0,1.05.016,1.571.042a.383.383,0,0,0,.4-.383V21.227c-.618-.022-1.235-.048-1.858-.048-.576,0-1.148.018-1.719.039a.389.389,0,0,0-.373.388V40.337a.383.383,0,0,0,.405.383C72.27,40.694,72.793,40.678,73.32,40.678Z"/><path class="cls-3" d="M75.3,14.4V.409a.39.39,0,0,0-.38-.391Q74.119,0,73.32,0T71.726.018a.391.391,0,0,0-.381.391v13.6a.386.386,0,0,0,.4.386c.562-.02,1.125-.039,1.692-.039C74.06,14.357,74.676,14.385,75.3,14.4Z"/><path class="cls-3" d="M2.915,52.805q-.444,1.526-.824,3.079a.392.392,0,0,0,.279.47l13.257,3.552a.383.383,0,0,0,.472-.282c.244-1.03.511-2.051.809-3.059a.379.379,0,0,0-.267-.476L3.391,52.538A.391.391,0,0,0,2.915,52.805Z"/><path class="cls-3" d="M41.97,62.875,23.978,58.054a.4.4,0,0,0-.479.265c-.3,1.016-.571,2.046-.813,3.087a.393.393,0,0,0,.28.467L40.943,66.69a.381.381,0,0,0,.471-.291c.224-1.032.5-2.044.82-3.037A.38.38,0,0,0,41.97,62.875Z"/><path class="cls-3" d="M10.629,35.285q-.828,1.359-1.6,2.756a.392.392,0,0,0,.148.527L21.062,45.43a.381.381,0,0,0,.527-.15q.756-1.392,1.586-2.737a.381.381,0,0,0-.134-.532L11.158,35.15A.392.392,0,0,0,10.629,35.285Z"/><path class="cls-3" d="M45.743,55.118,29.622,45.811a.393.393,0,0,0-.529.132q-.84,1.355-1.6,2.761a.394.394,0,0,0,.15.526l16.122,9.308a.382.382,0,0,0,.532-.158q.721-1.4,1.573-2.723A.382.382,0,0,0,45.743,55.118Z"/><path class="cls-3" d="M32.855,30.063l-9.694-9.694a.391.391,0,0,0-.546-.007q-1.15,1.1-2.253,2.253a.391.391,0,0,0,.007.546l9.7,9.7a.381.381,0,0,0,.548-.008Q31.7,31.7,32.847,30.61A.38.38,0,0,0,32.855,30.063Z"/><path class="cls-3" d="M51.4,48.605,38.224,35.431a.394.394,0,0,0-.546-.009q-1.161,1.1-2.254,2.258a.394.394,0,0,0,.01.546L48.605,51.4a.38.38,0,0,0,.553-.015q1.059-1.164,2.224-2.224A.38.38,0,0,0,51.4,48.605Z"/><path class="cls-4" d="M93.836,2.915q-1.527-.444-3.079-.824a.392.392,0,0,0-.47.279L86.771,15.491a.381.381,0,0,0,.283.471c1.03.244,2.051.51,3.059.807a.38.38,0,0,0,.476-.267L94.1,3.391A.391.391,0,0,0,93.836,2.915Z"/><path class="cls-5" d="M144.55,55.884q-.38-1.553-.824-3.079a.391.391,0,0,0-.476-.267L130.217,56.03a.38.38,0,0,0-.267.477c.3,1.008.566,2.029.812,3.058a.382.382,0,0,0,.471.282l13.038-3.493A.393.393,0,0,0,144.55,55.884Z"/><path class="cls-3" d="M14.124,71.345H.409a.391.391,0,0,0-.391.381Q0,72.521,0,73.32t.018,1.594a.391.391,0,0,0,.391.381H14.124a.387.387,0,0,0,.387-.4c-.019-.523-.037-1.047-.037-1.574s.018-1.052.037-1.576A.387.387,0,0,0,14.124,71.345Z"/><path class="cls-3" d="M40.678,73.32c0-.527.016-1.05.042-1.57a.383.383,0,0,0-.383-.405H21.721a.388.388,0,0,0-.388.373c-.019.533-.036,1.066-.036,1.6s.017,1.069.036,1.6a.388.388,0,0,0,.387.373H40.337a.383.383,0,0,0,.383-.4C40.694,74.37,40.678,73.847,40.678,73.32Z"/><path class="cls-6" d="M137.61,38.041q-.769-1.4-1.6-2.756a.391.391,0,0,0-.528-.135l-11.712,6.762a.38.38,0,0,0-.133.533q.831,1.344,1.594,2.732a.381.381,0,0,0,.526.149l11.7-6.758A.392.392,0,0,0,137.61,38.041Z"/><path class="cls-7" d="M111.356,10.629Q110,9.8,108.6,9.03a.392.392,0,0,0-.527.148L101.29,20.925a.381.381,0,0,0,.15.527q1.392.756,2.739,1.583a.381.381,0,0,0,.531-.134l6.78-11.744A.391.391,0,0,0,111.356,10.629Z"/><path class="cls-8" d="M116.7,32.738l9.577-9.577a.392.392,0,0,0,.006-.546q-1.1-1.15-2.253-2.253a.391.391,0,0,0-.546.007L113.9,29.948a.381.381,0,0,0,.008.548q1.15,1.088,2.239,2.234A.381.381,0,0,0,116.7,32.738Z"/><path class="cls-9" d="M90.755,144.55q1.553-.378,3.079-.824a.39.39,0,0,0,.266-.478l-4.61-16.834a.379.379,0,0,0-.476-.265c-1.009.3-2.03.563-3.059.806a.383.383,0,0,0-.283.474l4.613,16.844A.392.392,0,0,0,90.755,144.55Z"/><path class="cls-10" d="M107.183,110.237l16.3,16.039a.391.391,0,0,0,.544,0q1.151-1.1,2.253-2.252a.392.392,0,0,0-.009-.549l-16.294-16.037a.382.382,0,0,0-.545.01q-1.091,1.148-2.239,2.235A.381.381,0,0,0,107.183,110.237Z"/><path class="cls-3" d="M2.091,90.757q.378,1.552.824,3.079a.39.39,0,0,0,.476.266l13.25-3.55a.38.38,0,0,0,.267-.477c-.3-1.008-.565-2.029-.809-3.058a.383.383,0,0,0-.472-.283L2.37,90.287A.391.391,0,0,0,2.091,90.757Z"/><path class="cls-3" d="M40.943,79.951,22.966,84.768a.392.392,0,0,0-.28.467c.242,1.04.509,2.071.813,3.086a.393.393,0,0,0,.479.265L41.97,83.765a.38.38,0,0,0,.264-.487c-.319-.993-.6-2.005-.82-3.036A.38.38,0,0,0,40.943,79.951Z"/><path class="cls-11" d="M73.437,73.32c0,.522-.029,1.04-.075,1.556a.381.381,0,0,0,.38.419h59.633a.387.387,0,0,0,.387-.373c.02-.532.036-1.065.036-1.6s-.017-1.07-.036-1.6a.387.387,0,0,0-.387-.373H73.742a.381.381,0,0,0-.38.419C73.408,72.28,73.437,72.8,73.437,73.32Z"/><path class="cls-12" d="M132.75,75.3h13.464a.394.394,0,0,0,.394-.376c.021-.532.033-1.064.033-1.6s-.012-1.067-.033-1.6a.394.394,0,0,0-.394-.376H132.75a.385.385,0,0,0-.386.4c.018.524.036,1.048.036,1.576s-.018,1.051-.036,1.575A.385.385,0,0,0,132.75,75.3Z"/><path class="cls-13" d="M143.726,93.834q.444-1.526.824-3.079a.391.391,0,0,0-.277-.469l-26.835-7.308a.38.38,0,0,0-.472.281c-.246,1.03-.513,2.051-.812,3.058a.38.38,0,0,0,.265.477l26.83,7.307A.391.391,0,0,0,143.726,93.834Z"/><path class="cls-14" d="M108.6,137.61q1.4-.769,2.756-1.6a.391.391,0,0,0,.135-.528l-10.2-17.749a.381.381,0,0,0-.532-.134q-1.347.827-2.739,1.583a.381.381,0,0,0-.15.526l10.2,17.753A.392.392,0,0,0,108.6,137.61Z"/><path class="cls-15" d="M136.011,111.357q.828-1.361,1.6-2.757a.392.392,0,0,0-.148-.527l-22.507-12.92a.381.381,0,0,0-.525.149q-.761,1.39-1.6,2.733a.381.381,0,0,0,.135.533l22.513,12.924A.392.392,0,0,0,136.011,111.357Z"/><path class="cls-3" d="M73.32,105.963c-.527,0-1.05-.016-1.57-.043a.384.384,0,0,0-.405.384v18.73a.389.389,0,0,0,.373.388c.571.021,1.143.038,1.719.038.623,0,1.24-.025,1.858-.047V106.3a.384.384,0,0,0-.4-.384C74.37,105.947,73.847,105.963,73.32,105.963Z"/><path class="cls-3" d="M71.345,132.63v13.6a.392.392,0,0,0,.381.391c.53.011,1.061.018,1.594.018s1.064-.007,1.6-.018a.391.391,0,0,0,.38-.391v-14c-.619.019-1.235.047-1.858.047-.567,0-1.13-.019-1.692-.039A.386.386,0,0,0,71.345,132.63Z"/><path class="cls-3" d="M48.605,95.243,35.434,108.414a.394.394,0,0,0-.01.546q1.092,1.164,2.254,2.258a.393.393,0,0,0,.546-.009L51.4,98.036a.381.381,0,0,0-.015-.554q-1.164-1.058-2.224-2.224A.381.381,0,0,0,48.605,95.243Z"/><path class="cls-3" d="M30.065,113.783l-9.7,9.7a.391.391,0,0,0-.007.546q1.1,1.15,2.253,2.253a.391.391,0,0,0,.546-.006l9.7-9.694a.383.383,0,0,0-.008-.548q-1.148-1.091-2.235-2.239A.381.381,0,0,0,30.065,113.783Z"/><path class="cls-3" d="M43.767,88.1,27.645,97.411a.393.393,0,0,0-.15.525q.757,1.408,1.6,2.762a.393.393,0,0,0,.529.132l16.121-9.308a.381.381,0,0,0,.129-.538q-.85-1.32-1.573-2.724A.382.382,0,0,0,43.767,88.1Z"/><path class="cls-3" d="M9.03,108.6q.769,1.4,1.6,2.757a.392.392,0,0,0,.529.134l11.883-6.861a.381.381,0,0,0,.134-.532q-.828-1.345-1.586-2.736a.381.381,0,0,0-.527-.15L9.178,108.073A.391.391,0,0,0,9.03,108.6Z"/><path class="cls-3" d="M52.805,143.726q1.526.444,3.078.824a.392.392,0,0,0,.47-.279L59.884,131.1a.384.384,0,0,0-.282-.472c-1.029-.246-2.05-.514-3.057-.814a.381.381,0,0,0-.478.266L52.538,143.25A.391.391,0,0,0,52.805,143.726Z"/><path class="cls-3" d="M62.875,104.67l-4.842,18.07a.4.4,0,0,0,.265.479c1.014.306,2.045.574,3.084.819a.393.393,0,0,0,.468-.28l4.839-18.06a.381.381,0,0,0-.29-.472c-1.032-.224-2.044-.5-3.037-.82A.382.382,0,0,0,62.875,104.67Z"/><path class="cls-3" d="M55.118,100.9,45.793,117.05a.393.393,0,0,0,.13.528q1.351.845,2.755,1.61a.393.393,0,0,0,.527-.15l9.333-16.165a.381.381,0,0,0-.158-.531q-1.4-.723-2.723-1.573A.381.381,0,0,0,55.118,100.9Z"/><path class="cls-3" d="M35.285,136.011q1.359.828,2.756,1.6a.392.392,0,0,0,.527-.147l6.837-11.842a.381.381,0,0,0-.148-.526c-.927-.507-1.835-1.042-2.731-1.6a.381.381,0,0,0-.533.133L35.15,135.483A.391.391,0,0,0,35.285,136.011Z"/></svg>