<svg id="Capa_1" data-name="Capa 1" xmlns="http://www.w3.org/2000/svg" xmlns:xlink="http://www.w3.org/1999/xlink" viewBox="0 0 371.324 146.641"><defs><style>.cls-1{fill:#fff;}.cls-2{fill:url(#Degradado_sin_nombre_2);}.cls-3{fill:url(#Degradado_sin_nombre_2-2);}.cls-4{fill:url(#Degradado_sin_nombre_2-3);}.cls-5{fill:url(#Degradado_sin_nombre_2-4);}.cls-6{fill:url(#Degradado_sin_nombre_2-5);}.cls-7{fill:url(#Degradado_sin_nombre_2-6);}.cls-8{fill:url(#Degradado_sin_nombre_2-7);}.cls-9{fill:url(#Degradado_sin_nombre_2-8);}</style><linearGradient id="Degradado_sin_nombre_2" x1="148.262" y1="69.228" x2="69.82" y2="-11.88" gradientUnits="userSpaceOnUse"><stop offset="0" stop-color="#fff" stop-opacity="0"/><stop offset="1" stop-color="#fff"/></linearGradient><linearGradient id="Degradado_sin_nombre_2-2" x1="153.636" y1="64.03" x2="75.194" y2="-17.078" xlink:href="#Degradado_sin_nombre_2"/><linearGradient id="Degradado_sin_nombre_2-3" x1="153.207" y1="64.444" x2="74.765" y2="-16.663" xlink:href="#Degradado_sin_nombre_2"/><linearGradient id="Degradado_sin_nombre_2-4" x1="155.031" y1="62.68" x2="76.589" y2="-18.427" xlink:href="#Degradado_sin_nombre_2"/><linearGradient id="Degradado_sin_nombre_2-5" x1="138.683" y1="81.692" x2="69.76" y2="157.469" xlink:href="#Degradado_sin_nombre_2"/><linearGradient id="Degradado_sin_nombre_2-6" x1="144.174" y1="86.686" x2="75.251" y2="162.463" xlink:href="#Degradado_sin_nombre_2"/><linearGradient id="Degradado_sin_nombre_2-7" x1="142.926" y1="85.552" x2="74.004" y2="161.328" xlink:href="#Degradado_sin_nombre_2"/><linearGradient id="Degradado_sin_nombre_2-8" x1="142.084" y1="84.786" x2="73.162" y2="160.562" xlink:href="#Degradado_sin_nombre_2"/></defs><title>svgs</title><path class="cls-1" d="M89.451,93.263,80.759,78.1H78.543V93.263H68.829V53.1H85.417a17.912,17.912,0,0,1,8.067,1.647,11.391,11.391,0,0,1,4.942,4.517,12.94,12.94,0,0,1,1.647,6.561,11.665,11.665,0,0,1-2.414,7.442,12.34,12.34,0,0,1-7.015,4.2l9.543,15.793ZM78.543,71.449h6.022a6.069,6.069,0,0,0,4.261-1.278,4.936,4.936,0,0,0,1.363-3.778A5.006,5.006,0,0,0,88.8,62.644a5.832,5.832,0,0,0-4.232-1.364H78.543Z"/><path class="cls-1" d="M114.672,60.826v8.407h13.577v7.328H114.672V85.48h15.282v7.783h-25V53.1h25v7.726Z"/><path class="cls-1" d="M166.707,56.4a15.729,15.729,0,0,1,6.078,10H162.5a7.931,7.931,0,0,0-3.124-3.437,9.554,9.554,0,0,0-5.056-1.278,9.447,9.447,0,0,0-7.385,3.1,12.068,12.068,0,0,0-2.783,8.379q0,5.739,2.925,8.8t8.322,3.068a9.836,9.836,0,0,0,9.771-7.328H152.9V70.71H173.3v9.6a19.6,19.6,0,0,1-3.636,6.533,18.731,18.731,0,0,1-6.391,4.885,20.235,20.235,0,0,1-8.89,1.875,21.109,21.109,0,0,1-10.623-2.585,17.693,17.693,0,0,1-7.016-7.243,22.322,22.322,0,0,1-2.471-10.623,22.328,22.328,0,0,1,2.471-10.623,17.768,17.768,0,0,1,6.987-7.243A20.847,20.847,0,0,1,154.266,52.7Q161.82,52.7,166.707,56.4Z"/><path class="cls-1" d="M188.464,53.1V93.263H178.75V53.1Z"/><path class="cls-1" d="M222.405,87.809a11.407,11.407,0,0,1-4.772,4.261,16.8,16.8,0,0,1-7.64,1.59,18,18,0,0,1-11.135-3.294,11.933,11.933,0,0,1-4.771-9.2h10.338a5.455,5.455,0,0,0,1.62,3.579,4.978,4.978,0,0,0,3.55,1.306,4.124,4.124,0,0,0,2.954-1.022,3.583,3.583,0,0,0,1.079-2.727,3.521,3.521,0,0,0-.994-2.556,7.8,7.8,0,0,0-2.471-1.676q-1.478-.652-4.09-1.562a50.071,50.071,0,0,1-6.22-2.528,11.447,11.447,0,0,1-4.147-3.636,10.511,10.511,0,0,1-1.733-6.277,10.568,10.568,0,0,1,1.818-6.192,11.558,11.558,0,0,1,5.028-4.005,18.325,18.325,0,0,1,7.356-1.392q6.7,0,10.651,3.181a12.145,12.145,0,0,1,4.46,8.749h-10.51a5.4,5.4,0,0,0-1.448-3.153,4.264,4.264,0,0,0-3.153-1.165A4.066,4.066,0,0,0,205.42,61a3.34,3.34,0,0,0-1.051,2.67,3.391,3.391,0,0,0,.937,2.415,7.147,7.147,0,0,0,2.358,1.619q1.419.626,4.09,1.59a45.131,45.131,0,0,1,6.306,2.585,12.077,12.077,0,0,1,4.2,3.721,10.637,10.637,0,0,1,1.761,6.362A11.07,11.07,0,0,1,222.405,87.809Z"/><path class="cls-1" d="M258.279,53.1v7.726H247.372V93.263H237.6V60.826H226.808V53.1Z"/><path class="cls-1" d="M282.989,93.263,274.3,78.1h-2.216V93.263h-9.714V53.1h16.588a17.907,17.907,0,0,1,8.066,1.647,11.394,11.394,0,0,1,4.943,4.517,12.94,12.94,0,0,1,1.647,6.561,11.665,11.665,0,0,1-2.414,7.442,12.34,12.34,0,0,1-7.016,4.2l9.544,15.793ZM272.082,71.449H278.1a6.069,6.069,0,0,0,4.261-1.278,4.936,4.936,0,0,0,1.363-3.778,5.006,5.006,0,0,0-1.392-3.749A5.833,5.833,0,0,0,278.1,61.28h-6.022Z"/><path class="cls-1" d="M323.379,85.935H308.325l-2.5,7.328H295.6l14.713-39.879H321.5l14.714,39.879h-10.34Zm-2.5-7.385-5-14.77-5.057,14.77Z"/><path class="cls-1" d="M360.587,93.263,351.9,78.1H349.68V93.263h-9.714V53.1h16.588a17.9,17.9,0,0,1,8.066,1.647,11.389,11.389,0,0,1,4.943,4.517,12.94,12.94,0,0,1,1.647,6.561,11.665,11.665,0,0,1-2.414,7.442,12.34,12.34,0,0,1-7.016,4.2l9.544,15.793ZM349.68,71.449H355.7a6.069,6.069,0,0,0,4.261-1.278,4.936,4.936,0,0,0,1.363-3.778,5.006,5.006,0,0,0-1.392-3.749A5.833,5.833,0,0,0,355.7,61.28H349.68Z"/><path class="cls-1" d="M38.041,9.03q-1.4.769-2.756,1.6a.392.392,0,0,0-.135.529l6.843,11.851a.381.381,0,0,0,.533.133c.895-.555,1.8-1.09,2.73-1.6a.382.382,0,0,0,.149-.526L38.568,9.178A.392.392,0,0,0,38.041,9.03Z"/><path class="cls-1" d="M58.538,43.768,49.205,27.6a.4.4,0,0,0-.527-.15q-1.4.763-2.755,1.61a.393.393,0,0,0-.131.528l9.326,16.153a.382.382,0,0,0,.539.129q1.319-.85,2.723-1.573A.381.381,0,0,0,58.538,43.768Z"/><path class="cls-1" d="M55.883,2.091q-1.553.378-3.078.824a.391.391,0,0,0-.267.476l3.529,13.171a.38.38,0,0,0,.477.267c1.008-.3,2.028-.568,3.057-.815a.382.382,0,0,0,.282-.471L56.353,2.37A.391.391,0,0,0,55.883,2.091Z"/><path class="cls-1" d="M66.689,40.943,61.85,22.882a.394.394,0,0,0-.468-.28c-1.039.245-2.07.513-3.085.819a.394.394,0,0,0-.264.478L62.875,41.97a.38.38,0,0,0,.487.264c.993-.319,2.005-.6,3.037-.82A.38.38,0,0,0,66.689,40.943Z"/><path class="cls-1" d="M73.32,40.678c.527,0,1.05.016,1.571.042a.383.383,0,0,0,.4-.383V21.227c-.618-.022-1.235-.048-1.858-.048-.576,0-1.148.018-1.719.039a.389.389,0,0,0-.373.388V40.337a.383.383,0,0,0,.405.383C72.27,40.694,72.793,40.678,73.32,40.678Z"/><path class="cls-1" d="M75.3,14.4V.409a.39.39,0,0,0-.38-.391Q74.119,0,73.32,0T71.726.018a.391.391,0,0,0-.381.391v13.6a.386.386,0,0,0,.4.386c.562-.02,1.125-.039,1.692-.039C74.06,14.357,74.676,14.385,75.3,14.4Z"/><path class="cls-1" d="M2.915,52.805q-.444,1.526-.824,3.079a.392.392,0,0,0,.279.47l13.257,3.552a.383.383,0,0,0,.472-.282c.244-1.03.511-2.051.809-3.059a.379.379,0,0,0-.267-.476L3.391,52.538A.391.391,0,0,0,2.915,52.805Z"/><path class="cls-1" d="M41.97,62.875,23.978,58.054a.4.4,0,0,0-.479.265c-.3,1.016-.571,2.046-.813,3.087a.393.393,0,0,0,.28.467L40.943,66.69a.381.381,0,0,0,.471-.291c.224-1.032.5-2.044.82-3.037A.38.38,0,0,0,41.97,62.875Z"/><path class="cls-1" d="M10.629,35.285q-.828,1.359-1.6,2.756a.392.392,0,0,0,.148.527L21.062,45.43a.381.381,0,0,0,.527-.15q.756-1.392,1.586-2.737a.381.381,0,0,0-.134-.532L11.158,35.15A.392.392,0,0,0,10.629,35.285Z"/><path class="cls-1" d="M45.743,55.118,29.622,45.811a.393.393,0,0,0-.529.132q-.84,1.355-1.6,2.761a.394.394,0,0,0,.15.526l16.122,9.308a.382.382,0,0,0,.532-.158q.721-1.4,1.573-2.723A.382.382,0,0,0,45.743,55.118Z"/><path class="cls-1" d="M32.855,30.063l-9.694-9.694a.391.391,0,0,0-.546-.007q-1.15,1.1-2.253,2.253a.391.391,0,0,0,.007.546l9.7,9.7a.381.381,0,0,0,.548-.008Q31.7,31.7,32.847,30.61A.38.38,0,0,0,32.855,30.063Z"/><path class="cls-1" d="M51.4,48.605,38.224,35.431a.394.394,0,0,0-.546-.009q-1.161,1.1-2.254,2.258a.394.394,0,0,0,.01.546L48.605,51.4a.38.38,0,0,0,.553-.015q1.059-1.164,2.224-2.224A.38.38,0,0,0,51.4,48.605Z"/><path class="cls-2" d="M93.836,2.915q-1.527-.444-3.079-.824a.392.392,0,0,0-.47.279L86.771,15.491a.381.381,0,0,0,.283.471c1.03.244,2.051.51,3.059.807a.38.38,0,0,0,.476-.267L94.1,3.391A.391.391,0,0,0,93.836,2.915Z"/><path class="cls-1" d="M14.124,71.345H.409a.391.391,0,0,0-.391.381Q0,72.521,0,73.32t.018,1.594a.391.391,0,0,0,.391.381H14.124a.387.387,0,0,0,.387-.4c-.019-.523-.037-1.047-.037-1.574s.018-1.052.037-1.576A.387.387,0,0,0,14.124,71.345Z"/><path class="cls-1" d="M40.678,73.32c0-.527.016-1.05.042-1.57a.383.383,0,0,0-.383-.405H21.721a.388.388,0,0,0-.388.373c-.019.533-.036,1.066-.036,1.6s.017,1.069.036,1.6a.388.388,0,0,0,.387.373H40.337a.383.383,0,0,0,.383-.4C40.694,74.37,40.678,73.847,40.678,73.32Z"/><path class="cls-3" d="M137.61,38.041q-.769-1.4-1.6-2.756a.391.391,0,0,0-.528-.135l-11.712,6.762a.38.38,0,0,0-.133.533q.831,1.344,1.594,2.732a.381.381,0,0,0,.526.149l11.7-6.758A.392.392,0,0,0,137.61,38.041Z"/><path class="cls-4" d="M111.356,10.629Q110,9.8,108.6,9.03a.392.392,0,0,0-.527.148L101.29,20.925a.381.381,0,0,0,.15.527q1.392.756,2.739,1.583a.381.381,0,0,0,.531-.134l6.78-11.744A.391.391,0,0,0,111.356,10.629Z"/><path class="cls-5" d="M116.7,32.738l9.577-9.577a.392.392,0,0,0,.006-.546q-1.1-1.15-2.253-2.253a.391.391,0,0,0-.546.007L113.9,29.948a.381.381,0,0,0,.008.548q1.15,1.088,2.239,2.234A.381.381,0,0,0,116.7,32.738Z"/><path class="cls-6" d="M90.755,144.55q1.553-.378,3.079-.824a.39.39,0,0,0,.266-.478l-4.61-16.834a.379.379,0,0,0-.476-.265c-1.009.3-2.03.563-3.059.806a.383.383,0,0,0-.283.474l4.613,16.844A.392.392,0,0,0,90.755,144.55Z"/><path class="cls-7" d="M107.183,110.237l16.3,16.039a.391.391,0,0,0,.544,0q1.151-1.1,2.253-2.252a.392.392,0,0,0-.009-.549l-16.294-16.037a.382.382,0,0,0-.545.01q-1.091,1.148-2.239,2.235A.381.381,0,0,0,107.183,110.237Z"/><path class="cls-1" d="M2.091,90.757q.378,1.552.824,3.079a.39.39,0,0,0,.476.266l13.25-3.55a.38.38,0,0,0,.267-.477c-.3-1.008-.565-2.029-.809-3.058a.383.383,0,0,0-.472-.283L2.37,90.287A.391.391,0,0,0,2.091,90.757Z"/><path class="cls-1" d="M40.943,79.951,22.966,84.768a.392.392,0,0,0-.28.467c.242,1.04.509,2.071.813,3.086a.393.393,0,0,0,.479.265L41.97,83.765a.38.38,0,0,0,.264-.487c-.319-.993-.6-2.005-.82-3.036A.38.38,0,0,0,40.943,79.951Z"/><path class="cls-8" d="M108.6,137.61q1.4-.769,2.756-1.6a.391.391,0,0,0,.135-.528l-10.2-17.749a.381.381,0,0,0-.532-.134q-1.347.827-2.739,1.583a.381.381,0,0,0-.15.526l10.2,17.753A.392.392,0,0,0,108.6,137.61Z"/><path class="cls-9" d="M136.011,111.357q.828-1.361,1.6-2.757a.392.392,0,0,0-.148-.527l-22.507-12.92a.381.381,0,0,0-.525.149q-.761,1.39-1.6,2.733a.381.381,0,0,0,.135.533l22.513,12.924A.392.392,0,0,0,136.011,111.357Z"/><path class="cls-1" d="M73.32,105.963c-.527,0-1.05-.016-1.57-.043a.384.384,0,0,0-.405.384v18.73a.389.389,0,0,0,.373.388c.571.021,1.143.038,1.719.038.623,0,1.24-.025,1.858-.047V106.3a.384.384,0,0,0-.4-.384C74.37,105.947,73.847,105.963,73.32,105.963Z"/><path class="cls-1" d="M71.345,132.63v13.6a.392.392,0,0,0,.381.391c.53.011,1.061.018,1.594.018s1.064-.007,1.6-.018a.391.391,0,0,0,.38-.391v-14c-.619.019-1.235.047-1.858.047-.567,0-1.13-.019-1.692-.039A.386.386,0,0,0,71.345,132.63Z"/><path class="cls-1" d="M48.605,95.243,35.434,108.414a.394.394,0,0,0-.01.546q1.092,1.164,2.254,2.258a.393.393,0,0,0,.546-.009L51.4,98.036a.381.381,0,0,0-.015-.554q-1.164-1.058-2.224-2.224A.381.381,0,0,0,48.605,95.243Z"/><path class="cls-1" d="M30.065,113.783l-9.7,9.7a.391.391,0,0,0-.007.546q1.1,1.15,2.253,2.253a.391.391,0,0,0,.546-.006l9.7-9.694a.383.383,0,0,0-.008-.548q-1.148-1.091-2.235-2.239A.381.381,0,0,0,30.065,113.783Z"/><path class="cls-1" d="M43.767,88.1,27.645,97.411a.393.393,0,0,0-.15.525q.757,1.408,1.6,2.762a.393.393,0,0,0,.529.132l16.121-9.308a.381.381,0,0,0,.129-.538q-.85-1.32-1.573-2.724A.382.382,0,0,0,43.767,88.1Z"/><path class="cls-1" d="M9.03,108.6q.769,1.4,1.6,2.757a.392.392,0,0,0,.529.134l11.883-6.861a.381.381,0,0,0,.134-.532q-.828-1.345-1.586-2.736a.381.381,0,0,0-.527-.15L9.178,108.073A.391.391,0,0,0,9.03,108.6Z"/><path class="cls-1" d="M52.805,143.726q1.526.444,3.078.824a.392.392,0,0,0,.47-.279L59.884,131.1a.384.384,0,0,0-.282-.472c-1.029-.246-2.05-.514-3.057-.814a.381.381,0,0,0-.478.266L52.538,143.25A.391.391,0,0,0,52.805,143.726Z"/><path class="cls-1" d="M62.875,104.67l-4.842,18.07a.4.4,0,0,0,.265.479c1.014.306,2.045.574,3.084.819a.393.393,0,0,0,.468-.28l4.839-18.06a.381.381,0,0,0-.29-.472c-1.032-.224-2.044-.5-3.037-.82A.382.382,0,0,0,62.875,104.67Z"/><path class="cls-1" d="M55.118,100.9,45.793,117.05a.393.393,0,0,0,.13.528q1.351.845,2.755,1.61a.393.393,0,0,0,.527-.15l9.333-16.165a.381.381,0,0,0-.158-.531q-1.4-.723-2.723-1.573A.381.381,0,0,0,55.118,100.9Z"/><path class="cls-1" d="M35.285,136.011q1.359.828,2.756,1.6a.392.392,0,0,0,.527-.147l6.837-11.842a.381.381,0,0,0-.148-.526c-.927-.507-1.835-1.042-2.731-1.6a.381.381,0,0,0-.533.133L35.15,135.483A.391.391,0,0,0,35.285,136.011Z"/></svg>