<svg id="Capa_1" data-name="Capa 1" xmlns="http://www.w3.org/2000/svg" viewBox="0 0 267.572 252.17"><defs><style>.cls-1,.cls-2{fill:#dadae2;}.cls-1{opacity:0.43;}.cls-3{fill:#bbbdcc;}.cls-4{fill:#999eb5;}.cls-5{fill:#042360;}.cls-6{fill:#737d9d;}.cls-7{fill:#4e5e87;}</style></defs><title>svgs</title><path class="cls-1" d="M62.644,147.761A43.244,43.244,0,0,1,19.4,191c-23.883,0-8.785-28.669-8.785-52.552s-23.883-64.575,0-64.575S62.644,123.878,62.644,147.761Z"/><path class="cls-1" d="M46.086,1.55C149.13-6.9,131.63,21.936,200.83,21.936s15.135,48.544,61.207,100.177c46.1,51.67-212.413,234.258-161.742,48.566C118.512,103.92-63.841,10.56,46.086,1.55Z"/><path class="cls-2" d="M262.678,109.74a.624.624,0,0,1-.437.737l-20.3,5.445a.6.6,0,0,1-.737-.437c-.382-1.61-.792-3.193-1.269-4.762a.6.6,0,0,1,.423-.751l20.29-5.43a.6.6,0,0,1,.75.409C261.846,106.534,262.282,108.13,262.678,109.74Z"/><path class="cls-2" d="M262.241,163.324a.616.616,0,0,1,.437.723c-.4,1.61-.832,3.207-1.283,4.789a.613.613,0,0,1-.75.423L218.864,157.88a.581.581,0,0,1-.409-.737c.464-1.569.887-3.166,1.269-4.762a.6.6,0,0,1,.737-.451Z"/><path class="cls-3" d="M251.871,81.959a.617.617,0,0,1-.232.819L233.41,93.3a.581.581,0,0,1-.819-.232c-.791-1.432-1.624-2.851-2.483-4.243a.6.6,0,0,1,.2-.832l18.243-10.534a.6.6,0,0,1,.819.218C250.234,79.08,251.066,80.513,251.871,81.959Z"/><path class="cls-3" d="M251.639,191.009a.634.634,0,0,1,.232.833c-.805,1.446-1.637,2.879-2.5,4.284a.6.6,0,0,1-.819.219L213.5,176.218a.6.6,0,0,1-.219-.832c.86-1.392,1.692-2.811,2.484-4.257a.6.6,0,0,1,.818-.232Z"/><path class="cls-4" d="M234.215,57.944a.6.6,0,0,1,0,.846L219.3,73.7a.606.606,0,0,1-.86-.013q-1.7-1.78-3.479-3.48a.592.592,0,0,1-.014-.859l14.914-14.914a.6.6,0,0,1,.846,0C231.909,55.57,233.082,56.744,234.215,57.944Z"/><path class="cls-4" d="M234.2,215.011a.6.6,0,0,1,.014.846c-1.146,1.2-2.306,2.374-3.507,3.506a.6.6,0,0,1-.846,0l-25.38-24.983a.579.579,0,0,1,.014-.846q1.78-1.7,3.48-3.48a.605.605,0,0,1,.859-.027Z"/><path class="cls-5" d="M225.482,105.92a1.747,1.747,0,0,1-.314,1.242l-71.2,93.59a1.93,1.93,0,0,1-.259.2.832.832,0,0,1-.205.177,1.478,1.478,0,0,1-.668.218c-.041.014-.069.041-.1.041h-.068a1.559,1.559,0,0,1-.778-.218,1.924,1.924,0,0,1-.191-.15,1.793,1.793,0,0,1-.3-.232L75.143,108.008a1.685,1.685,0,0,1-.369-1.2,1.656,1.656,0,0,1,.6-1.105l25.857-21.136.041.041a1.242,1.242,0,0,1,.245-.219l22.528-11.8a1.624,1.624,0,0,1,.764-.177H172.2a1.55,1.55,0,0,1,.736.177L196.6,84.443c.082.041.123.123.191.177l.041-.041,27.985,20.263A1.6,1.6,0,0,1,225.482,105.92Zm-40.648,21.859L220.9,106.043,195.736,87.827,175.951,98.442Zm-25.12,60.01,57.663-75.811-32.939,19.854c-.041.027-.109.013-.164.04ZM173.59,96l18.721-10.056L171.817,75.683H125.206L105.8,85.835,125.206,96Zm8.119,32.789-8.924-29.514H126.024l-8.76,29.514Zm-29.2,67.242,28.109-63.968H117.824Zm-9.429-10.52L113.839,131.6,83.78,113.356Zm-28.968-57.582,8.733-29.473-20.372-10.67-23.237,18.98Z"/><polygon class="cls-3" points="220.897 106.043 184.834 127.779 175.951 98.442 195.736 87.827 220.897 106.043"/><path class="cls-4" d="M217.377,111.978l-57.663,75.811,24.56-55.917c.055-.027.123-.013.164-.04Z"/><path class="cls-6" d="M210.977,39.278a.6.6,0,0,1,.219.819L200.635,58.381a.6.6,0,0,1-.833.218c-1.392-.859-2.811-1.692-4.257-2.469a.583.583,0,0,1-.232-.819l10.561-18.3a.618.618,0,0,1,.819-.232C208.139,37.586,209.572,38.419,210.977,39.278Z"/><path class="cls-6" d="M211.2,233.7a.6.6,0,0,1-.219.819c-1.405.86-2.838,1.692-4.284,2.483a.6.6,0,0,1-.819-.232l-15.9-27.644a.6.6,0,0,1,.232-.819c1.446-.778,2.865-1.6,4.271-2.456a.6.6,0,0,1,.832.205Z"/><polygon class="cls-3" points="192.311 85.944 173.59 96 125.206 96 105.803 85.835 125.206 75.683 171.817 75.683 192.311 85.944"/><path class="cls-7" d="M183.7,27.257a.607.607,0,0,1,.41.751L178.639,48.42a.576.576,0,0,1-.737.41c-1.569-.451-3.165-.874-4.762-1.256a.577.577,0,0,1-.436-.723l5.471-20.44a.624.624,0,0,1,.737-.437C180.522,26.37,182.118,26.807,183.7,27.257Z"/><path class="cls-7" d="M184.111,245.794a.6.6,0,0,1-.41.736c-1.583.464-3.193.9-4.8,1.283a.6.6,0,0,1-.723-.423l-7.191-26.239a.6.6,0,0,1,.437-.737c1.61-.368,3.193-.791,4.776-1.255a.594.594,0,0,1,.736.423Z"/><polygon class="cls-2" points="172.785 99.275 181.709 128.789 117.264 128.789 126.024 99.275 172.785 99.275"/><polygon class="cls-3" points="180.618 132.063 152.509 196.031 117.824 132.063 180.618 132.063"/><path class="cls-5" d="M154.829,228.642v21.791a.607.607,0,0,1-.587.614c-.832.014-1.665.027-2.483.027s-1.665-.013-2.484-.027a.609.609,0,0,1-.6-.614V229.256a.6.6,0,0,1,.628-.6c.873.027,1.746.054,2.633.054C152.905,228.71,153.86,228.669,154.829,228.642Z"/><path class="cls-5" d="M154.829,23.355v21.8c-.969-.041-1.924-.082-2.893-.082-.887,0-1.76.028-2.633.069a.612.612,0,0,1-.628-.6V23.355a.6.6,0,0,1,.6-.6c.819-.027,1.651-.027,2.484-.027s1.651,0,2.483.027A.6.6,0,0,1,154.829,23.355Z"/><polygon class="cls-2" points="113.839 131.6 143.08 185.511 83.78 113.356 113.839 131.6"/><path class="cls-5" d="M130.827,46.933a.587.587,0,0,1-.436.723c-1.61.382-3.193.8-4.762,1.269a.576.576,0,0,1-.737-.409l-5.5-20.508a.617.617,0,0,1,.409-.751c1.583-.45,3.18-.887,4.8-1.283a.616.616,0,0,1,.723.437Z"/><path class="cls-5" d="M130.391,226.131a.6.6,0,0,1,.436.737l-5.5,20.522a.6.6,0,0,1-.723.423c-1.623-.382-3.22-.819-4.8-1.283a.6.6,0,0,1-.409-.736l5.5-20.509a.584.584,0,0,1,.737-.423C127.2,225.34,128.794,225.749,130.391,226.131Z"/><polygon class="cls-4" points="122.845 98.456 114.112 127.929 79.236 106.766 102.473 87.786 122.845 98.456"/><path class="cls-5" d="M108.286,55.447a.6.6,0,0,1-.232.819q-2.169,1.188-4.257,2.5a.6.6,0,0,1-.832-.2L92.308,40.1a.6.6,0,0,1,.218-.819q2.109-1.289,4.285-2.5a.613.613,0,0,1,.818.232Z"/><path class="cls-5" d="M108.054,217.521a.6.6,0,0,1,.232.819L97.629,236.788a.6.6,0,0,1-.818.218c-1.447-.791-2.879-1.623-4.285-2.483a.6.6,0,0,1-.218-.819l10.657-18.461a.6.6,0,0,1,.832-.2C105.189,215.9,106.608,216.73,108.054,217.521Z"/><path class="cls-5" d="M88.747,69.543a.6.6,0,0,1-.014.846c-1.2,1.132-2.361,2.292-3.48,3.493a.617.617,0,0,1-.859.013L69.3,58.79a.589.589,0,0,1-.014-.846c1.146-1.2,2.306-2.374,3.507-3.506a.6.6,0,0,1,.846,0Z"/><path class="cls-5" d="M88.733,203.413a.589.589,0,0,1,.014.846L73.642,219.35a.6.6,0,0,1-.846.013c-1.2-1.146-2.361-2.306-3.507-3.506a.589.589,0,0,1,.014-.846l15.091-15.1a.6.6,0,0,1,.859.014C86.372,201.12,87.532,202.28,88.733,203.413Z"/><path class="cls-5" d="M73.451,88.141a.6.6,0,0,1,.218.832c-.86,1.392-1.692,2.811-2.47,4.257a.582.582,0,0,1-.818.232L51.864,82.778a.618.618,0,0,1-.232-.819c.8-1.446,1.638-2.879,2.5-4.284a.6.6,0,0,1,.819-.218Z"/><path class="cls-5" d="M73.669,184.828a.578.578,0,0,1-.218.819l-18.5,10.684a.585.585,0,0,1-.819-.2c-.859-1.405-1.692-2.838-2.5-4.284a.635.635,0,0,1,.232-.833l18.517-10.684a.605.605,0,0,1,.818.232C71.977,182,72.809,183.423,73.669,184.828Z"/><path class="cls-5" d="M63.49,110.068a.6.6,0,0,1,.423.737c-.464,1.569-.887,3.165-1.269,4.762a.591.591,0,0,1-.737.436l-20.645-5.526a.6.6,0,0,1-.423-.737c.382-1.61.819-3.206,1.283-4.789a.591.591,0,0,1,.737-.409Z"/><path class="cls-5" d="M63.913,163a.6.6,0,0,1-.423.737l-20.631,5.526a.6.6,0,0,1-.737-.409c-.464-1.583-.9-3.193-1.283-4.8a.6.6,0,0,1,.423-.723l20.645-5.54a.6.6,0,0,1,.737.437C63.026,159.831,63.449,161.414,63.913,163Z"/><path class="cls-5" d="M60.174,139.35a.6.6,0,0,1-.6.628H38.22a.608.608,0,0,1-.614-.6c-.014-.819-.028-1.651-.028-2.483s.014-1.651.028-2.484a.6.6,0,0,1,.614-.586H59.574a.6.6,0,0,1,.6.627c-.027.805-.054,1.624-.054,2.443S60.147,138.531,60.174,139.35Z"/></svg>