<svg id="Capa_1" data-name="Capa 1" xmlns="http://www.w3.org/2000/svg" viewBox="0 0 246.682 239.058"><defs><style>.cls-1,.cls-2{fill:#dadae2;}.cls-1{opacity:0.43;}.cls-3{fill:#bbbdcc;}.cls-4{fill:#999eb5;}.cls-5{fill:#737d9d;}.cls-6{fill:#4e5e87;}.cls-7{fill:#042360;}</style></defs><title>svgs</title><path class="cls-1" d="M177.752,199.734c-103.044,8.446-42.961,39.324-112.161,39.324S50.456,190.514,4.385,138.881C-41.72,87.211,292.1-106.948,241.43,78.744,223.213,145.5,287.679,190.723,177.752,199.734Z"/><path class="cls-2" d="M244.8,87.805a.623.623,0,0,1-.437.736l-20.3,5.445a.6.6,0,0,1-.737-.437c-.382-1.61-.791-3.193-1.255-4.762a.589.589,0,0,1,.409-.75l20.29-5.431a.6.6,0,0,1,.75.409C243.968,84.6,244.4,86.194,244.8,87.805Z"/><path class="cls-2" d="M244.363,141.388a.616.616,0,0,1,.437.723c-.4,1.61-.832,3.207-1.283,4.79a.615.615,0,0,1-.75.423l-41.781-11.38a.592.592,0,0,1-.409-.737c.464-1.569.887-3.166,1.269-4.762a.6.6,0,0,1,.737-.45Z"/><path class="cls-3" d="M233.993,60.024a.616.616,0,0,1-.232.818l-18.229,10.52a.582.582,0,0,1-.819-.231c-.791-1.433-1.624-2.852-2.483-4.244a.6.6,0,0,1,.2-.832l18.244-10.534a.6.6,0,0,1,.818.218Q232.786,57.848,233.993,60.024Z"/><path class="cls-3" d="M233.761,169.074a.633.633,0,0,1,.232.832c-.805,1.446-1.637,2.879-2.5,4.284a.6.6,0,0,1-.818.219l-35.054-20.127a.6.6,0,0,1-.218-.832c.873-1.392,1.692-2.811,2.483-4.257a.6.6,0,0,1,.819-.232Z"/><path class="cls-4" d="M216.337,36.009a.6.6,0,0,1,0,.846L201.423,51.768a.606.606,0,0,1-.86-.013q-1.7-1.781-3.479-3.48a.593.593,0,0,1-.014-.859L211.984,32.5a.6.6,0,0,1,.846,0C214.031,33.634,215.2,34.808,216.337,36.009Z"/><path class="cls-4" d="M216.323,193.075a.6.6,0,0,1,.014.846c-1.146,1.2-2.306,2.374-3.507,3.507a.6.6,0,0,1-.846,0l-25.379-24.984a.578.578,0,0,1,.013-.846q1.781-1.7,3.48-3.48a.605.605,0,0,1,.859-.027Z"/><rect class="cls-2" x="173.328" y="109.582" width="25.966" height="10.752"/><path class="cls-5" d="M193.1,17.342a.6.6,0,0,1,.218.819L182.757,36.445a.606.606,0,0,1-.833.219c-1.391-.86-2.81-1.692-4.257-2.47a.583.583,0,0,1-.232-.819L188,15.077a.618.618,0,0,1,.819-.232C190.261,15.65,191.694,16.483,193.1,17.342Z"/><path class="cls-5" d="M193.318,211.768a.6.6,0,0,1-.218.819c-1.406.86-2.839,1.692-4.285,2.483a.6.6,0,0,1-.819-.232l-15.9-27.644a.605.605,0,0,1,.232-.819q2.169-1.167,4.271-2.456a.6.6,0,0,1,.832.2Z"/><rect class="cls-4" x="158.602" y="72.067" width="25.973" height="10.748" transform="translate(-4.502 144.013) rotate(-45)"/><polygon class="cls-4" points="164.814 140.897 183.166 159.263 175.566 166.863 157.2 148.497 164.814 140.897"/><path class="cls-6" d="M165.823,5.321a.607.607,0,0,1,.41.751l-5.472,20.412a.576.576,0,0,1-.737.41c-1.569-.45-3.152-.873-4.762-1.256a.577.577,0,0,1-.436-.723L160.3,4.475a.623.623,0,0,1,.737-.436C162.644,4.434,164.241,4.871,165.823,5.321Z"/><path class="cls-6" d="M166.233,223.858a.592.592,0,0,1-.41.737c-1.582.463-3.192.9-4.8,1.282a.6.6,0,0,1-.723-.423l-7.191-26.239a.6.6,0,0,1,.451-.737c1.6-.368,3.193-.791,4.762-1.255a.6.6,0,0,1,.737.423Z"/><path class="cls-7" d="M147.935,114.958v2.579H137.688a7.038,7.038,0,0,0,.477-2.579Z"/><path class="cls-7" d="M132.216,114.958h5.949a7.038,7.038,0,0,1-.477,2.579h-8.051v-2.579Z"/><path class="cls-7" d="M138.165,114.958h-5.949v-7.109A7.214,7.214,0,0,1,138.165,114.958Z"/><path class="cls-7" d="M129.637,117.537h8.051a7.235,7.235,0,1,1-8.051-9.688v9.688Z"/><path class="cls-7" d="M136.951,206.706V228.5a.606.606,0,0,1-.587.614c-.832.014-1.665.027-2.483.027s-1.665-.013-2.484-.027a.618.618,0,0,1-.6-.614V207.32a.6.6,0,0,1,.628-.6c.873.027,1.746.054,2.633.054C135.027,206.774,135.982,206.733,136.951,206.706Z"/><path class="cls-7" d="M136.951,1.419v21.8c-.969-.041-1.924-.082-2.893-.082-.887,0-1.76.028-2.633.069a.613.613,0,0,1-.628-.6V1.419a.606.606,0,0,1,.6-.6c.819-.027,1.651-.027,2.484-.027s1.651,0,2.483.027A.594.594,0,0,1,136.951,1.419Z"/><rect class="cls-5" x="124.902" y="157.011" width="10.752" height="25.98"/><rect class="cls-7" x="124.902" y="46.938" width="10.752" height="25.966"/><path class="cls-7" d="M132.216,107.849v7.109h-2.579v-7.109a6.69,6.69,0,0,1,1.283-.123A6.825,6.825,0,0,1,132.216,107.849Z"/><path class="cls-7" d="M132.216,88.992v18.857a6.825,6.825,0,0,0-1.3-.123,6.69,6.69,0,0,0-1.283.123V88.992Z"/><path class="cls-7" d="M112.95,25a.579.579,0,0,1-.437.723c-1.6.382-3.193.8-4.762,1.269a.576.576,0,0,1-.737-.409l-5.5-20.508a.618.618,0,0,1,.409-.751c1.583-.45,3.193-.887,4.8-1.282a.616.616,0,0,1,.724.436Z"/><path class="cls-7" d="M112.513,204.2a.593.593,0,0,1,.437.737l-5.5,20.522a.6.6,0,0,1-.724.423c-1.61-.382-3.22-.819-4.8-1.282a.6.6,0,0,1-.409-.737l5.5-20.509a.584.584,0,0,1,.737-.423C109.32,203.4,110.916,203.813,112.513,204.2Z"/><rect class="cls-7" x="88.37" y="64.455" width="10.748" height="25.973" transform="translate(-27.302 88.969) rotate(-45)"/><rect class="cls-7" x="80.758" y="149.898" width="25.973" height="10.748" transform="translate(-82.337 111.765) rotate(-45)"/><rect class="cls-7" x="65.22" y="109.582" width="25.966" height="10.752"/><path class="cls-7" d="M90.408,33.512a.6.6,0,0,1-.232.818q-2.169,1.188-4.257,2.5a.6.6,0,0,1-.832-.2L74.43,18.161a.6.6,0,0,1,.218-.819q2.109-1.288,4.285-2.5a.634.634,0,0,1,.832.232Z"/><path class="cls-7" d="M90.176,195.586a.6.6,0,0,1,.232.818L79.765,214.852a.615.615,0,0,1-.832.218c-1.447-.791-2.879-1.623-4.285-2.483a.6.6,0,0,1-.218-.819l10.657-18.461a.6.6,0,0,1,.832-.2C87.311,193.962,88.73,194.794,90.176,195.586Z"/><path class="cls-7" d="M70.869,47.607a.589.589,0,0,1-.014.846c-1.2,1.132-2.36,2.292-3.479,3.493a.618.618,0,0,1-.86.013l-15.091-15.1a.589.589,0,0,1-.014-.846c1.146-1.2,2.306-2.375,3.507-3.507a.6.6,0,0,1,.846,0Z"/><path class="cls-7" d="M70.855,181.477a.589.589,0,0,1,.014.846l-15.1,15.091a.6.6,0,0,1-.846.014c-1.2-1.147-2.361-2.306-3.507-3.507a.589.589,0,0,1,.014-.846l15.091-15.1a.605.605,0,0,1,.86.014C68.5,179.184,69.654,180.344,70.855,181.477Z"/><path class="cls-7" d="M55.586,66.205a.6.6,0,0,1,.2.832c-.86,1.392-1.692,2.811-2.47,4.257a.581.581,0,0,1-.818.232L33.987,60.842a.6.6,0,0,1-.219-.818c.792-1.447,1.624-2.879,2.484-4.285a.6.6,0,0,1,.818-.218Z"/><path class="cls-7" d="M55.791,162.892a.584.584,0,0,1-.2.819L37.07,174.4a.587.587,0,0,1-.818-.205c-.86-1.405-1.692-2.838-2.484-4.284a.616.616,0,0,1,.219-.832L52.5,158.39a.6.6,0,0,1,.818.232C54.1,160.068,54.931,161.487,55.791,162.892Z"/><path class="cls-7" d="M45.612,88.132a.589.589,0,0,1,.423.737c-.464,1.569-.887,3.165-1.269,4.762a.587.587,0,0,1-.737.437L23.385,88.541a.6.6,0,0,1-.423-.736c.382-1.611.818-3.207,1.282-4.79a.591.591,0,0,1,.737-.409Z"/><path class="cls-7" d="M46.035,141.061a.588.588,0,0,1-.423.736l-20.631,5.527a.6.6,0,0,1-.737-.41c-.464-1.583-.9-3.193-1.282-4.8a.6.6,0,0,1,.423-.723l20.644-5.54a.6.6,0,0,1,.737.437C45.148,137.9,45.571,139.478,46.035,141.061Z"/><path class="cls-7" d="M42.3,117.414a.6.6,0,0,1-.6.628H20.342a.617.617,0,0,1-.614-.6c-.014-.818-.028-1.651-.028-2.483s.014-1.651.028-2.483a.606.606,0,0,1,.614-.587H41.7a.6.6,0,0,1,.6.627c-.027.806-.054,1.624-.054,2.443S42.269,116.6,42.3,117.414Z"/></svg>