<svg id="Capa_1" data-name="Capa 1" xmlns="http://www.w3.org/2000/svg" viewBox="0 0 262.221 249.525"><defs><style>.cls-1,.cls-2{fill:#dadae2;}.cls-1{opacity:0.43;}.cls-3{fill:#bbbdcc;}.cls-4{fill:#999eb5;}.cls-5{fill:#737d9d;}.cls-6{fill:#4e5e87;}.cls-7{fill:#042360;}</style></defs><title>svgs</title><path class="cls-1" d="M180.88,192.83c-103.044,8.446-42.961,39.325-112.16,39.325S53.585,183.61,7.513,131.977C-38.592,80.307,139.767,0,208.966,0S290.807,183.82,180.88,192.83Z"/><path class="cls-2" d="M239.076,108.191a.625.625,0,0,1-.437.737l-20.3,5.444a.6.6,0,0,1-.737-.437c-.382-1.61-.792-3.193-1.255-4.762a.589.589,0,0,1,.409-.75l20.29-5.431a.606.606,0,0,1,.75.409C238.257,104.984,238.68,106.581,239.076,108.191Z"/><path class="cls-2" d="M238.639,161.774a.6.6,0,0,1,.437.723c-.4,1.611-.819,3.207-1.283,4.79a.614.614,0,0,1-.75.423l-41.781-11.38a.591.591,0,0,1-.409-.737c.464-1.569.887-3.165,1.269-4.762a.6.6,0,0,1,.737-.45Z"/><path class="cls-3" d="M228.269,80.41a.616.616,0,0,1-.232.818L209.808,91.749a.583.583,0,0,1-.819-.232c-.791-1.433-1.624-2.852-2.483-4.244a.6.6,0,0,1,.2-.832l18.243-10.534a.6.6,0,0,1,.819.218Q227.062,78.234,228.269,80.41Z"/><path class="cls-3" d="M228.037,189.46a.633.633,0,0,1,.232.832c-.805,1.446-1.637,2.879-2.5,4.285a.6.6,0,0,1-.819.218L189.9,174.669a.6.6,0,0,1-.219-.833c.874-1.391,1.706-2.811,2.484-4.257a.6.6,0,0,1,.818-.232Z"/><path class="cls-4" d="M210.626,56.4a.614.614,0,0,1-.013.846L195.7,72.155a.605.605,0,0,1-.86-.014q-1.7-1.781-3.479-3.479a.594.594,0,0,1-.014-.86L206.26,52.888a.6.6,0,0,1,.846,0C208.307,54.021,209.48,55.194,210.626,56.4Z"/><path class="cls-4" d="M210.6,213.461a.589.589,0,0,1,.014.846c-1.146,1.2-2.306,2.374-3.507,3.507a.6.6,0,0,1-.846,0L180.88,192.83a.591.591,0,0,1,.014-.846c1.187-1.132,2.361-2.292,3.48-3.479a.6.6,0,0,1,.859-.028Z"/><path class="cls-5" d="M187.389,37.729a.607.607,0,0,1,.2.818L177.033,56.831a.605.605,0,0,1-.833.219c-1.391-.86-2.811-1.692-4.257-2.47a.583.583,0,0,1-.232-.819l10.561-18.3a.616.616,0,0,1,.819-.232Q185.26,36.439,187.389,37.729Z"/><path class="cls-5" d="M187.594,232.155a.611.611,0,0,1-.2.818c-1.419.86-2.852,1.692-4.3,2.484a.606.606,0,0,1-.819-.232l-15.9-27.645a.6.6,0,0,1,.232-.819c1.446-.777,2.879-1.6,4.271-2.456a.6.6,0,0,1,.832.2Z"/><path class="cls-6" d="M160.1,25.707a.626.626,0,0,1,.423.751l-5.471,20.413a.6.6,0,0,1-.751.409c-1.569-.45-3.152-.873-4.762-1.255a.578.578,0,0,1-.436-.723l5.471-20.441a.624.624,0,0,1,.737-.436C156.92,24.821,158.517,25.257,160.1,25.707Z"/><path class="cls-6" d="M160.509,244.244a.592.592,0,0,1-.41.737c-1.582.464-3.179.9-4.8,1.282a.6.6,0,0,1-.723-.423L147.382,219.6a.6.6,0,0,1,.451-.737c1.6-.368,3.192-.791,4.762-1.255a.589.589,0,0,1,.736.423Z"/><path class="cls-7" d="M131.227,227.092v21.791a.606.606,0,0,1-.587.614c-.832.014-1.651.028-2.483.028s-1.665-.014-2.484-.028a.617.617,0,0,1-.6-.614V227.706a.6.6,0,0,1,.628-.6c.873.027,1.746.055,2.633.055C129.3,227.161,130.258,227.12,131.227,227.092Z"/><path class="cls-7" d="M131.227,21.805V43.61c-.969-.041-1.924-.082-2.893-.082-.887,0-1.76.027-2.633.068a.611.611,0,0,1-.628-.6V21.805a.606.606,0,0,1,.6-.6c.819-.028,1.651-.028,2.484-.028s1.651,0,2.483.028A.6.6,0,0,1,131.227,21.805Z"/><path class="cls-5" d="M171.234,146.326a17.049,17.049,0,0,0-4.35-9.312,21.339,21.339,0,0,0-9.642-5.679c-.692-.216-1.4-.409-2.237-.647.261-.148.4-.2.523-.284a17.241,17.241,0,0,0,7.927-8.381,21.707,21.707,0,0,0,1.306-10.982,17.886,17.886,0,0,0-9.643-14.5,39.172,39.172,0,0,0-13.491-4.111c-1.556-.239-3.112-.4-4.747-.6l-11.573-.409H116.13l-11.481.477H81.492c-.011.2-.034.329-.034.454-.011,3.782,0,7.553-.011,11.334,0,.466.182.534.579.534h.023c1.567,0,3.146-.023,4.724-.023,1.273,0,2.556.012,3.828.057a5.755,5.755,0,0,1,5.848,5.985c-.057,16.6-.022,33.208-.022,49.811,0,.227.011.466,0,.693a3.952,3.952,0,0,1-3.055,3.9,9.378,9.378,0,0,1-1.874.193H89.715c-1.806,0-3.6-.011-5.4-.034h-.034c-.409,0-.579.091-.658.557-.546,3.43-1.136,6.859-1.7,10.289-.159.943-.307,1.885-.466,2.953h23.236l11.471.295h9.176l11.55-.295v.079c.375-.045.693-.079,1-.113,3.328-.375,6.678-.67,9.983-1.17a37.085,37.085,0,0,0,11.5-3.645,20.641,20.641,0,0,0,10.187-11.1A31.615,31.615,0,0,0,171.234,146.326Zm-48.346-41.407a55.931,55.931,0,0,1,6.746.352,21.061,21.061,0,0,1,9.324,2.93c3.373,2.215,4.656,5.429,4.316,9.358-.341,3.9-2.636,6.36-6.031,7.95a26.867,26.867,0,0,1-8.665,2.169,69.743,69.743,0,0,1-7.382.352c-1.318,0-2.623-.022-3.941-.068h-.761V105.09a1.166,1.166,0,0,1,.25-.069C118.788,104.987,120.844,104.919,122.888,104.919Zm-6.394,34.707c.216-.012.443-.046.659-.046h.011c.284,0,.568.012.852.012,1.931,0,3.873-.023,5.8-.023,2,0,4,.023,5.985.1a31.852,31.852,0,0,1,11.857,2.487c2.975,1.329,5.44,3.248,6.45,6.485,1.522,4.906.159,9.8-5.03,12.674a26.375,26.375,0,0,1-8.439,2.737,75.363,75.363,0,0,1-12.481.886c-1.817,0-3.646-.034-5.463-.08a1.407,1.407,0,0,1-.2-.068Z"/><rect class="cls-5" x="124.114" y="65.92" width="13.946" height="19.011"/><polygon class="cls-5" points="124.149 183.656 124.149 204.768 138.072 204.768 138.072 183.292 124.149 183.656"/><polygon class="cls-5" points="103.513 204.768 117.346 204.768 117.346 183.656 103.513 183.292 103.513 204.768"/><rect class="cls-5" x="103.457" y="65.92" width="13.855" height="19.011"/><path class="cls-7" d="M107.225,45.383a.579.579,0,0,1-.436.724c-1.6.382-3.193.8-4.762,1.269a.582.582,0,0,1-.737-.41l-5.5-20.508a.617.617,0,0,1,.409-.751c1.583-.45,3.193-.886,4.8-1.282a.616.616,0,0,1,.723.436Z"/><path class="cls-7" d="M106.789,224.582a.591.591,0,0,1,.436.736l-5.5,20.522a.6.6,0,0,1-.723.423c-1.61-.382-3.22-.818-4.8-1.282a.6.6,0,0,1-.409-.737l5.5-20.508a.589.589,0,0,1,.737-.423C103.6,223.79,105.192,224.2,106.789,224.582Z"/><path class="cls-7" d="M84.684,53.9a.6.6,0,0,1-.232.818q-2.169,1.188-4.257,2.5a.6.6,0,0,1-.832-.2L68.72,38.547a.6.6,0,0,1,.2-.818q2.109-1.29,4.285-2.5a.628.628,0,0,1,.832.232Z"/><path class="cls-7" d="M84.452,215.972a.592.592,0,0,1,.232.818L74.041,235.238a.613.613,0,0,1-.832.219c-1.447-.792-2.879-1.624-4.285-2.484a.6.6,0,0,1-.2-.818l10.656-18.462a.586.586,0,0,1,.819-.205C81.6,214.348,83.006,215.18,84.452,215.972Z"/><path class="cls-7" d="M65.145,67.993a.589.589,0,0,1-.014.846c-1.187,1.132-2.361,2.292-3.48,3.493a.617.617,0,0,1-.859.014L45.7,57.241a.6.6,0,0,1-.014-.846c1.146-1.2,2.306-2.374,3.507-3.507a.6.6,0,0,1,.846,0Z"/><path class="cls-7" d="M65.131,201.863a.589.589,0,0,1,.014.846L50.04,217.8a.6.6,0,0,1-.846.014c-1.2-1.146-2.361-2.306-3.507-3.507a.6.6,0,0,1,.014-.846l15.091-15.105a.6.6,0,0,1,.859.014C62.77,199.571,63.944,200.73,65.131,201.863Z"/><path class="cls-7" d="M49.862,86.591a.6.6,0,0,1,.2.832c-.86,1.392-1.692,2.811-2.47,4.257a.58.58,0,0,1-.818.232L28.262,81.228a.612.612,0,0,1-.218-.818c.792-1.447,1.624-2.879,2.483-4.285a.607.607,0,0,1,.819-.218Z"/><path class="cls-7" d="M50.067,183.279a.584.584,0,0,1-.2.818L31.346,194.781a.59.59,0,0,1-.819-.2c-.859-1.406-1.691-2.839-2.483-4.285a.629.629,0,0,1,.218-.832l18.517-10.684a.6.6,0,0,1,.818.232C48.375,180.454,49.207,181.873,50.067,183.279Z"/><path class="cls-7" d="M39.888,108.518a.59.59,0,0,1,.423.737c-.464,1.569-.887,3.166-1.269,4.762a.578.578,0,0,1-.723.437L17.66,108.928a.605.605,0,0,1-.423-.737c.382-1.61.819-3.207,1.283-4.79a.593.593,0,0,1,.737-.409Z"/><path class="cls-7" d="M40.311,161.447a.59.59,0,0,1-.423.737L19.257,167.71a.6.6,0,0,1-.737-.41c-.464-1.582-.9-3.192-1.283-4.8a.6.6,0,0,1,.423-.723l20.659-5.54a.589.589,0,0,1,.723.437C39.424,158.281,39.847,159.864,40.311,161.447Z"/><path class="cls-7" d="M36.572,137.8a.6.6,0,0,1-.6.628H14.618a.626.626,0,0,1-.614-.6c-.014-.818-.028-1.651-.028-2.483s.014-1.651.028-2.483a.614.614,0,0,1,.614-.587H35.972a.6.6,0,0,1,.6.628c-.027.805-.054,1.623-.054,2.442S36.545,136.981,36.572,137.8Z"/></svg>