<svg id="Capa_1" data-name="Capa 1" xmlns="http://www.w3.org/2000/svg" viewBox="0 0 556.076 556.076"><defs><style>.cls-1{fill:none;stroke:#fff;stroke-linecap:round;stroke-linejoin:round;stroke-width:8.187px;}</style></defs><title>svgs</title><path class="cls-1" d="M453.074,121.11a39.906,39.906,0,1,1-13.145-9.563"/><polyline class="cls-1" points="468.013 100.815 419.762 162.454 404.915 148.019"/><path class="cls-1" d="M453.074,246.584a39.906,39.906,0,1,1-13.145-9.563"/><polyline class="cls-1" points="469.537 226.346 419.762 287.928 404.915 273.493"/><path class="cls-1" d="M453.074,372.059a39.9,39.9,0,1,1-13.145-9.564"/><polyline class="cls-1" points="469.537 352.434 419.762 413.402 404.915 398.968"/><path class="cls-1" d="M225.107,278.752l-27.219-21.445-17.321,15.671s-61.036,7.423-75.882,79.182-18.146,97.327-18.146,97.327"/><path class="cls-1" d="M180.567,272.978s23.1,133.619,44.54,182.283"/><polyline class="cls-1" points="167.365 276.394 155.823 322.467 188.564 315.591 165.721 345.561 215.468 428.475"/><line class="cls-1" x1="225.107" y1="318.342" x2="202.837" y2="381.431"/><line class="cls-1" x1="202.837" y1="239.986" x2="202.837" y2="261.206"/><path class="cls-1" d="M185.645,188.023s.7,62.573,39.462,62.573"/><path class="cls-1" d="M225.107,278.752l27.219-21.445,17.321,15.671s61.036,7.423,75.882,79.182,18.146,97.327,18.146,97.327"/><path class="cls-1" d="M269.647,272.978S246.552,406.6,225.107,455.261"/><polyline class="cls-1" points="282.849 276.394 294.391 322.467 261.65 315.591 284.493 345.561 234.746 428.475"/><line class="cls-1" x1="225.107" y1="318.342" x2="247.377" y2="381.431"/><line class="cls-1" x1="247.377" y1="239.986" x2="247.377" y2="261.206"/><path class="cls-1" d="M275.835,177.2s-11.962,73.4-50.728,73.4"/><circle class="cls-1" cx="223.87" cy="295.248" r="13.816"/><line class="cls-1" x1="329.033" y1="385.977" x2="284.493" y2="385.977"/><path class="cls-1" d="M253.975,138.534s-47.014,47.839-94.028,57.737c0,0-2.474-124.134,94.028-89.286.825.206,37.117-.618,30.518,71.14C284.493,178.125,250.676,180.6,253.975,138.534Z"/><line class="cls-1" x1="274.175" y1="4.093" x2="274.175" y2="56.729"/><line class="cls-1" x1="203.405" y1="14.428" x2="217.028" y2="65.27"/><line class="cls-1" x1="137.72" y1="42.726" x2="164.038" y2="88.31"/><line class="cls-1" x1="81.599" y1="87.061" x2="118.817" y2="124.28"/><line class="cls-1" x1="38.864" y1="144.411" x2="84.447" y2="170.729"/><line class="cls-1" x1="12.428" y1="210.867" x2="63.27" y2="224.49"/><line class="cls-1" x1="4.093" y1="281.901" x2="56.729" y2="281.901"/><line class="cls-1" x1="14.428" y1="352.671" x2="65.27" y2="339.048"/><line class="cls-1" x1="42.726" y1="418.355" x2="68.749" y2="403.332"/><line class="cls-1" x1="87.061" y1="474.477" x2="105.671" y2="455.868"/><line class="cls-1" x1="144.411" y1="517.212" x2="170.729" y2="471.629"/><line class="cls-1" x1="210.867" y1="543.648" x2="224.49" y2="492.806"/><line class="cls-1" x1="281.901" y1="551.982" x2="281.901" y2="499.347"/><line class="cls-1" x1="352.671" y1="541.648" x2="339.048" y2="490.806"/><line class="cls-1" x1="418.355" y1="513.349" x2="392.038" y2="467.766"/><line class="cls-1" x1="474.477" y1="469.014" x2="448.331" y2="442.868"/><line class="cls-1" x1="517.212" y1="411.665" x2="479.036" y2="389.624"/><line class="cls-1" x1="543.648" y1="345.209" x2="492.806" y2="331.586"/><line class="cls-1" x1="551.982" y1="274.175" x2="499.347" y2="274.175"/><line class="cls-1" x1="541.648" y1="203.405" x2="490.806" y2="217.028"/><line class="cls-1" x1="513.349" y1="137.72" x2="479.438" y2="157.299"/><line class="cls-1" x1="469.014" y1="81.599" x2="449.798" y2="100.815"/><line class="cls-1" x1="411.665" y1="38.864" x2="385.347" y2="84.447"/><line class="cls-1" x1="345.209" y1="12.428" x2="331.586" y2="63.27"/></svg>