<svg id="Capa_1" data-name="Capa 1" xmlns="http://www.w3.org/2000/svg" xmlns:xlink="http://www.w3.org/1999/xlink" viewBox="0 0 110.924 5.979"><defs><style>.cls-1{fill:url(#Degradado_sin_nombre_2);}.cls-2{fill:#fff;}</style><linearGradient id="Degradado_sin_nombre_2" x1="5.868" y1="2.989" x2="66.533" y2="2.989" gradientUnits="userSpaceOnUse"><stop offset="0" stop-color="#fff" stop-opacity="0"/><stop offset="1" stop-color="#fff"/></linearGradient></defs><title>svgs</title><path class="cls-1" d="M.116,2.989c0,.79-.043,1.575-.114,2.355a.578.578,0,0,0,.576.635H90.843a.588.588,0,0,0,.587-.565c.029-.8.055-1.612.055-2.424S91.459,1.37,91.43.565A.588.588,0,0,0,90.843,0H.578A.578.578,0,0,0,0,.635C.073,1.415.116,2.2.116,2.989Z"/><path class="cls-2" d="M89.9,5.979h20.381a.6.6,0,0,0,.6-.57q.048-1.206.049-2.42T110.875.57a.6.6,0,0,0-.6-.57H89.9a.585.585,0,0,0-.585.605c.028.793.055,1.585.055,2.385s-.027,1.591-.055,2.384A.585.585,0,0,0,89.9,5.979Z"/></svg>