<svg id="Grupo_151" data-name="Grupo 151" xmlns="http://www.w3.org/2000/svg" xmlns:xlink="http://www.w3.org/1999/xlink" width="287.049" height="114.508" viewBox="0 0 287.049 114.508">
  <defs>
    <linearGradient id="linear-gradient" x1="8.359" y1="4.566" x2="-2.302" y2="-0.949" gradientUnits="objectBoundingBox">
      <stop offset="0" stop-color="#fff" stop-opacity="0"/>
      <stop offset="1" stop-color="#fff"/>
    </linearGradient>
    <linearGradient id="linear-gradient-2" x1="1.309" y1="2.169" x2="-4.054" y2="-8.887" xlink:href="#linear-gradient"/>
    <linearGradient id="linear-gradient-3" x1="2.135" y1="2.815" x2="-3.437" y2="-5.076" xlink:href="#linear-gradient"/>
    <linearGradient id="linear-gradient-4" x1="5.044" y1="3.931" x2="-2.569" y2="-1.818" xlink:href="#linear-gradient"/>
    <linearGradient id="linear-gradient-5" x1="3.274" y1="3.368" x2="-2.953" y2="-3.071" xlink:href="#linear-gradient"/>
    <linearGradient id="linear-gradient-6" x1="6.271" y1="-2.411" x2="-1.88" y2="1.7" xlink:href="#linear-gradient"/>
    <linearGradient id="linear-gradient-7" x1="1.921" y1="-1.083" x2="-1.647" y2="2.893" xlink:href="#linear-gradient"/>
    <linearGradient id="linear-gradient-8" x1="0.064" y1="0.5" x2="0.727" y2="0.5" xlink:href="#linear-gradient"/>
    <linearGradient id="linear-gradient-9" x1="0.753" y1="-0.208" x2="-1.672" y2="6.588" xlink:href="#linear-gradient"/>
    <linearGradient id="linear-gradient-10" x1="3.287" y1="-1.59" x2="-1.735" y2="2.177" xlink:href="#linear-gradient"/>
    <linearGradient id="linear-gradient-11" x1="1.178" y1="-0.628" x2="-1.592" y2="3.982" xlink:href="#linear-gradient"/>
  </defs>
  <g id="Grupo_142" data-name="Grupo 142">
    <g id="Grupo_141" data-name="Grupo 141">
      <path id="Trazado_884" data-name="Trazado 884" d="M1043.813,8944q-1.092.6-2.152,1.248a.306.306,0,0,0-.1.415l5.342,9.253a.3.3,0,0,0,.417.1q1.048-.649,2.132-1.246a.3.3,0,0,0,.115-.411l-5.339-9.247A.306.306,0,0,0,1043.813,8944Z" transform="translate(-1014.108 -8936.95)" fill="#fff"/>
      <path id="Trazado_885" data-name="Trazado 885" d="M1057.776,8967.593l-7.289-12.624a.307.307,0,0,0-.411-.116c-.73.4-1.448.816-2.151,1.257a.305.305,0,0,0-.1.411l7.282,12.614a.3.3,0,0,0,.42.1q1.03-.665,2.127-1.23A.3.3,0,0,0,1057.776,8967.593Z" transform="translate(-1012.065 -8933.415)" fill="#fff"/>
      <path id="Trazado_886" data-name="Trazado 886" d="M1054.4,8939.909q-1.211.294-2.4.642a.307.307,0,0,0-.208.373l2.755,10.285a.3.3,0,0,0,.373.207q1.181-.349,2.388-.634a.3.3,0,0,0,.22-.369l-2.757-10.287A.306.306,0,0,0,1054.4,8939.909Z" transform="translate(-1010.763 -8938.276)" fill="#fff"/>
      <path id="Trazado_887" data-name="Trazado 887" d="M1061.784,8966.31l-3.779-14.1a.307.307,0,0,0-.366-.219c-.812.19-1.617.4-2.408.64a.307.307,0,0,0-.207.373l3.782,14.11a.3.3,0,0,0,.38.208c.774-.249,1.565-.465,2.371-.64A.3.3,0,0,0,1061.784,8966.31Z" transform="translate(-1009.708 -8934.338)" fill="#fff"/>
      <path id="Trazado_888" data-name="Trazado 888" d="M1064.4,8966.373c.411,0,.819.013,1.226.033a.3.3,0,0,0,.316-.3v-14.923c-.483-.017-.965-.036-1.452-.036-.449,0-.9.015-1.342.03a.3.3,0,0,0-.29.3v14.625a.3.3,0,0,0,.316.3C1063.582,8966.386,1063.991,8966.373,1064.4,8966.373Z" transform="translate(-1007.149 -8934.609)" fill="#fff"/>
      <path id="Trazado_889" data-name="Trazado 889" d="M1065.945,8949.924v-10.93a.308.308,0,0,0-.3-.307c-.415-.008-.829-.013-1.245-.013s-.831,0-1.245.013a.307.307,0,0,0-.3.307v10.62a.3.3,0,0,0,.312.3c.439-.017.878-.03,1.321-.03C1064.98,8949.887,1065.461,8949.908,1065.945,8949.924Z" transform="translate(-1007.149 -8938.675)" fill="#fff"/>
      <path id="Trazado_890" data-name="Trazado 890" d="M1022.722,8969.827q-.346,1.191-.643,2.4a.307.307,0,0,0,.217.367l10.353,2.774a.3.3,0,0,0,.367-.222c.191-.8.4-1.6.632-2.389a.3.3,0,0,0-.208-.373l-10.348-2.772A.305.305,0,0,0,1022.722,8969.827Z" transform="translate(-1020.447 -8928.591)" fill="#fff"/>
      <path id="Trazado_891" data-name="Trazado 891" d="M1049.266,8976.632l-14.05-3.765a.31.31,0,0,0-.374.206c-.237.793-.445,1.6-.635,2.411a.307.307,0,0,0,.219.364l14.038,3.761a.3.3,0,0,0,.369-.227c.174-.8.39-1.6.639-2.371A.3.3,0,0,0,1049.266,8976.632Z" transform="translate(-1016.493 -8927.533)" fill="#fff"/>
      <path id="Trazado_892" data-name="Trazado 892" d="M1027.421,8959.49q-.646,1.062-1.249,2.152a.306.306,0,0,0,.115.411l9.281,5.357a.3.3,0,0,0,.411-.116q.591-1.087,1.239-2.139a.3.3,0,0,0-.1-.414l-9.281-5.357A.306.306,0,0,0,1027.421,8959.49Z" transform="translate(-1019.122 -8931.937)" fill="#fff"/>
      <path id="Trazado_893" data-name="Trazado 893" d="M1051.3,8972.932l-12.589-7.268a.3.3,0,0,0-.413.1q-.656,1.055-1.249,2.156a.305.305,0,0,0,.118.408l12.589,7.271a.3.3,0,0,0,.415-.124c.376-.729.786-1.44,1.228-2.127A.3.3,0,0,0,1051.3,8972.932Z" transform="translate(-1015.577 -8929.891)" fill="#fff"/>
      <path id="Trazado_894" data-name="Trazado 894" d="M1042.613,8958.263l-7.57-7.57a.305.305,0,0,0-.426,0q-.9.86-1.76,1.76a.308.308,0,0,0,.005.428l7.572,7.571a.3.3,0,0,0,.427-.008q.849-.9,1.745-1.749A.3.3,0,0,0,1042.613,8958.263Z" transform="translate(-1016.958 -8934.788)" fill="#fff"/>
      <path id="Trazado_895" data-name="Trazado 895" d="M1054.2,8969.85l-10.286-10.287a.31.31,0,0,0-.427-.007q-.907.855-1.76,1.765a.306.306,0,0,0,.007.425l10.286,10.286a.3.3,0,0,0,.432-.013q.825-.91,1.736-1.737A.3.3,0,0,0,1054.2,8969.85Z" transform="translate(-1014.066 -8931.896)" fill="#fff"/>
      <path id="Trazado_896" data-name="Trazado 896" d="M1077.464,8940.551q-1.191-.346-2.4-.642a.307.307,0,0,0-.367.217l-2.745,10.246a.3.3,0,0,0,.22.368q1.207.284,2.389.63a.3.3,0,0,0,.373-.209l2.742-10.237A.305.305,0,0,0,1077.464,8940.551Z" transform="translate(-1004.191 -8938.276)" fill="url(#linear-gradient)"/>
      <path id="Trazado_897" data-name="Trazado 897" d="M1108.777,8972.231q-.3-1.216-.643-2.4a.306.306,0,0,0-.373-.21l-10.177,2.728a.3.3,0,0,0-.208.373c.233.787.442,1.585.634,2.387a.3.3,0,0,0,.367.222l10.181-2.728A.308.308,0,0,0,1108.777,8972.231Z" transform="translate(-995.902 -8928.591)" fill="url(#linear-gradient-2)"/>
      <path id="Trazado_898" data-name="Trazado 898" d="M1031.874,8980.69h-10.71a.306.306,0,0,0-.3.3c-.009.412-.013.828-.013,1.244s0,.832.013,1.246a.305.305,0,0,0,.3.3h10.71a.3.3,0,0,0,.3-.311c-.015-.411-.028-.819-.028-1.231s.013-.82.028-1.23A.3.3,0,0,0,1031.874,8980.69Z" transform="translate(-1020.846 -8924.979)" fill="#fff"/>
      <path id="Trazado_899" data-name="Trazado 899" d="M1048.522,8982.232c0-.411.012-.819.033-1.227a.3.3,0,0,0-.3-.315h-14.537a.3.3,0,0,0-.3.292c-.016.414-.029.831-.029,1.25s.013.836.029,1.251a.3.3,0,0,0,.3.291h14.537a.3.3,0,0,0,.3-.314C1048.534,8983.052,1048.522,8982.644,1048.522,8982.232Z" transform="translate(-1016.758 -8924.979)" fill="#fff"/>
      <path id="Trazado_900" data-name="Trazado 900" d="M1104.578,8961.643q-.6-1.091-1.249-2.152a.305.305,0,0,0-.412-.105l-9.145,5.28a.3.3,0,0,0-.1.416q.649,1.049,1.244,2.135a.3.3,0,0,0,.411.115l9.14-5.278A.3.3,0,0,0,1104.578,8961.643Z" transform="translate(-997.122 -8931.937)" fill="url(#linear-gradient-3)"/>
      <path id="Trazado_901" data-name="Trazado 901" d="M1088.365,8945.25q-1.062-.645-2.154-1.248a.306.306,0,0,0-.411.115l-5.3,9.175a.3.3,0,0,0,.117.409q1.088.592,2.139,1.238a.3.3,0,0,0,.415-.105l5.294-9.169A.308.308,0,0,0,1088.365,8945.25Z" transform="translate(-1001.411 -8936.95)" fill="url(#linear-gradient-4)"/>
      <path id="Trazado_902" data-name="Trazado 902" d="M1090.125,8960.352l7.479-7.477a.308.308,0,0,0,.005-.428q-.862-.9-1.76-1.76a.307.307,0,0,0-.427,0l-7.48,7.479a.3.3,0,0,0,.007.429q.9.85,1.748,1.745A.3.3,0,0,0,1090.125,8960.352Z" transform="translate(-999.002 -8934.788)" fill="url(#linear-gradient-5)"/>
      <path id="Trazado_903" data-name="Trazado 903" d="M1075.27,9027.336q1.213-.293,2.4-.643a.306.306,0,0,0,.208-.373l-3.6-13.146a.3.3,0,0,0-.371-.207c-.788.231-1.584.439-2.389.631a.3.3,0,0,0-.22.368l3.6,13.153A.306.306,0,0,0,1075.27,9027.336Z" transform="translate(-1004.402 -8914.46)" fill="url(#linear-gradient-6)"/>
      <path id="Trazado_904" data-name="Trazado 904" d="M1083.987,9004.15l12.726,12.525a.305.305,0,0,0,.424,0q.9-.86,1.76-1.759a.306.306,0,0,0-.007-.429l-12.724-12.523a.3.3,0,0,0-.426.008c-.568.6-1.15,1.178-1.748,1.743A.3.3,0,0,0,1083.987,9004.15Z" transform="translate(-1000.292 -8918.069)" fill="url(#linear-gradient-7)"/>
      <path id="Trazado_905" data-name="Trazado 905" d="M1022.079,8992.9q.3,1.214.643,2.4a.306.306,0,0,0,.371.209l10.348-2.772a.3.3,0,0,0,.208-.373c-.233-.786-.442-1.583-.632-2.387a.3.3,0,0,0-.367-.221l-10.353,2.773A.3.3,0,0,0,1022.079,8992.9Z" transform="translate(-1020.447 -8922.026)" fill="#fff"/>
      <path id="Trazado_906" data-name="Trazado 906" d="M1048.464,8985.761l-14.038,3.762a.309.309,0,0,0-.219.366c.19.812.4,1.615.635,2.408a.308.308,0,0,0,.374.207l14.05-3.765a.3.3,0,0,0,.206-.381c-.249-.774-.465-1.563-.639-2.37A.3.3,0,0,0,1048.464,8985.761Z" transform="translate(-1016.493 -8923.328)" fill="#fff"/>
      <path id="Trazado_907" data-name="Trazado 907" d="M1064.107,8982.232c0,.408-.021.813-.058,1.215a.3.3,0,0,0,.3.327h46.566a.3.3,0,0,0,.3-.291c.015-.415.028-.832.028-1.251s-.013-.836-.028-1.25a.3.3,0,0,0-.3-.292h-46.566a.3.3,0,0,0-.3.327C1064.086,8981.421,1064.107,8981.825,1064.107,8982.232Z" transform="translate(-1006.763 -8924.979)" fill="url(#linear-gradient-8)"/>
      <path id="Trazado_908" data-name="Trazado 908" d="M1099.1,8983.774h10.514a.307.307,0,0,0,.307-.292c.016-.415.026-.832.026-1.25s-.01-.833-.026-1.247a.308.308,0,0,0-.307-.295H1099.1a.3.3,0,0,0-.3.313c.015.408.029.816.029,1.229s-.014.822-.029,1.231A.3.3,0,0,0,1099.1,8983.774Z" transform="translate(-995.436 -8924.979)" fill="#fff"/>
      <path id="Trazado_909" data-name="Trazado 909" d="M1110.782,8996.021q.346-1.192.643-2.4a.309.309,0,0,0-.216-.368l-20.955-5.706a.3.3,0,0,0-.37.222c-.191.8-.4,1.6-.632,2.386a.3.3,0,0,0,.206.374l20.951,5.7A.3.3,0,0,0,1110.782,8996.021Z" transform="translate(-998.55 -8922.747)" fill="url(#linear-gradient-9)"/>
      <path id="Trazado_910" data-name="Trazado 910" d="M1086.87,9023.565q1.092-.6,2.152-1.247a.307.307,0,0,0,.1-.413l-7.965-13.861a.3.3,0,0,0-.415-.1q-1.052.647-2.139,1.237a.3.3,0,0,0-.118.41l7.968,13.863A.306.306,0,0,0,1086.87,9023.565Z" transform="translate(-1002.067 -8916.109)" fill="url(#linear-gradient-10)"/>
      <path id="Trazado_911" data-name="Trazado 911" d="M1105.4,9007.374q.647-1.062,1.249-2.154a.3.3,0,0,0-.117-.408l-17.575-10.09a.3.3,0,0,0-.41.115c-.4.724-.813,1.436-1.245,2.134a.3.3,0,0,0,.1.417l17.58,10.092A.305.305,0,0,0,1105.4,9007.374Z" transform="translate(-999.195 -8920.418)" fill="url(#linear-gradient-11)"/>
      <path id="Trazado_912" data-name="Trazado 912" d="M1064.4,9001.084q-.619,0-1.227-.033a.3.3,0,0,0-.316.3v14.625a.3.3,0,0,0,.29.3c.446.016.893.029,1.342.029.487,0,.969-.02,1.452-.035v-14.922a.3.3,0,0,0-.316-.3Q1065.019,9001.083,1064.4,9001.084Z" transform="translate(-1007.149 -8918.341)" fill="#fff"/>
      <path id="Trazado_913" data-name="Trazado 913" d="M1062.861,9016.855v10.622a.307.307,0,0,0,.3.307q.621.013,1.245.013c.416,0,.83,0,1.245-.013a.308.308,0,0,0,.3-.307v-10.93c-.484.016-.965.038-1.452.038-.443,0-.882-.015-1.321-.031A.3.3,0,0,0,1062.861,9016.855Z" transform="translate(-1007.149 -8913.289)" fill="#fff"/>
      <path id="Trazado_914" data-name="Trazado 914" d="M1052.02,8994.786l-10.286,10.284a.309.309,0,0,0-.007.427q.853.908,1.76,1.764a.309.309,0,0,0,.427-.007l10.286-10.287a.3.3,0,0,0-.012-.432q-.909-.826-1.736-1.737A.3.3,0,0,0,1052.02,8994.786Z" transform="translate(-1014.066 -8920.414)" fill="#fff"/>
      <path id="Trazado_915" data-name="Trazado 915" d="M1040.435,9005.7l-7.572,7.572a.3.3,0,0,0-.005.425q.861.9,1.76,1.761a.305.305,0,0,0,.426-.006l7.57-7.568a.3.3,0,0,0-.005-.429q-.9-.851-1.745-1.749A.3.3,0,0,0,1040.435,9005.7Z" transform="translate(-1016.958 -8916.854)" fill="#fff"/>
      <path id="Trazado_916" data-name="Trazado 916" d="M1049.753,8990.567l-12.59,7.271a.306.306,0,0,0-.117.408q.593,1.1,1.249,2.158a.305.305,0,0,0,.413.1l12.589-7.267a.3.3,0,0,0,.1-.421c-.442-.686-.851-1.4-1.228-2.127A.3.3,0,0,0,1049.753,8990.567Z" transform="translate(-1015.577 -8921.771)" fill="#fff"/>
      <path id="Trazado_917" data-name="Trazado 917" d="M1026.172,9004.059q.6,1.091,1.249,2.151a.306.306,0,0,0,.412.105l9.281-5.357a.3.3,0,0,0,.1-.415q-.647-1.05-1.239-2.138a.3.3,0,0,0-.411-.116l-9.281,5.358A.306.306,0,0,0,1026.172,9004.059Z" transform="translate(-1019.122 -8919.255)" fill="#fff"/>
      <path id="Trazado_918" data-name="Trazado 918" d="M1052,9025.991q1.191.346,2.4.643a.306.306,0,0,0,.367-.219l2.757-10.287a.3.3,0,0,0-.22-.368c-.8-.191-1.6-.4-2.387-.636a.3.3,0,0,0-.373.209l-2.757,10.285A.307.307,0,0,0,1052,9025.991Z" transform="translate(-1010.763 -8913.759)" fill="#fff"/>
      <path id="Trazado_919" data-name="Trazado 919" d="M1058.806,9000.371l-3.782,14.108a.308.308,0,0,0,.207.375c.792.238,1.6.448,2.409.64a.307.307,0,0,0,.365-.219l3.779-14.1a.3.3,0,0,0-.227-.369c-.806-.175-1.6-.391-2.371-.639A.3.3,0,0,0,1058.806,9000.371Z" transform="translate(-1009.708 -8918.636)" fill="#fff"/>
      <path id="Trazado_920" data-name="Trazado 920" d="M1055.105,8998.13l-7.282,12.613a.307.307,0,0,0,.1.413q1.054.659,2.151,1.257a.31.31,0,0,0,.412-.117l7.287-12.622a.3.3,0,0,0-.123-.415q-1.1-.565-2.127-1.23A.3.3,0,0,0,1055.105,8998.13Z" transform="translate(-1012.065 -8919.343)" fill="#fff"/>
      <path id="Trazado_921" data-name="Trazado 921" d="M1041.661,9021.188q1.062.646,2.152,1.246a.3.3,0,0,0,.411-.113l5.34-9.247a.3.3,0,0,0-.117-.413c-.723-.395-1.432-.813-2.132-1.244a.294.294,0,0,0-.417.1l-5.342,9.254A.3.3,0,0,0,1041.661,9021.188Z" transform="translate(-1014.108 -8914.979)" fill="#fff"/>
    </g>
  </g>
  <text id="Global_Coin" data-name="Global Coin" transform="translate(125.049 65.321)" fill="#fff" font-size="30" font-family="Ubuntu-BoldItalic, Ubuntu" font-weight="700" font-style="italic"><tspan x="0" y="0">Global Coin</tspan></text>
</svg>
