<svg id="Capa_1" data-name="Capa 1" xmlns="http://www.w3.org/2000/svg" xmlns:xlink="http://www.w3.org/1999/xlink" viewBox="0 0 219.79 86.356"><defs><style>.cls-1,.cls-13{fill:#fff;}.cls-2{fill:url(#Degradado_sin_nombre_2);}.cls-3{fill:url(#Degradado_sin_nombre_2-2);}.cls-4{fill:url(#Degradado_sin_nombre_2-3);}.cls-5{fill:url(#Degradado_sin_nombre_2-4);}.cls-6{fill:url(#Degradado_sin_nombre_2-5);}.cls-7{fill:url(#Degradado_sin_nombre_2-6);}.cls-8{fill:url(#Degradado_sin_nombre_2-7);}.cls-9{fill:url(#Degradado_sin_nombre_2-8);}.cls-10{fill:url(#Degradado_sin_nombre_2-9);}.cls-11{fill:url(#Degradado_sin_nombre_2-10);}.cls-12{fill:url(#Degradado_sin_nombre_2-11);}.cls-13{font-size:23.405px;font-family:Ubuntu-BoldItalic, Ubuntu;font-weight:700;font-style:italic;}.cls-14{letter-spacing:-0.02em;}</style><linearGradient id="Degradado_sin_nombre_2" x1="87.311" y1="40.768" x2="41.117" y2="-6.996" gradientUnits="userSpaceOnUse"><stop offset="0" stop-color="#fff" stop-opacity="0"/><stop offset="1" stop-color="#fff"/></linearGradient><linearGradient id="Degradado_sin_nombre_2-2" x1="87.795" y1="40.3" x2="41.6" y2="-7.464" xlink:href="#Degradado_sin_nombre_2"/><linearGradient id="Degradado_sin_nombre_2-3" x1="90.476" y1="37.707" x2="44.281" y2="-10.057" xlink:href="#Degradado_sin_nombre_2"/><linearGradient id="Degradado_sin_nombre_2-4" x1="90.223" y1="37.951" x2="44.029" y2="-9.813" xlink:href="#Degradado_sin_nombre_2"/><linearGradient id="Degradado_sin_nombre_2-5" x1="91.298" y1="36.912" x2="45.103" y2="-10.852" xlink:href="#Degradado_sin_nombre_2"/><linearGradient id="Degradado_sin_nombre_2-6" x1="81.67" y1="48.108" x2="41.082" y2="92.733" xlink:href="#Degradado_sin_nombre_2"/><linearGradient id="Degradado_sin_nombre_2-7" x1="84.904" y1="51.049" x2="44.315" y2="95.674" xlink:href="#Degradado_sin_nombre_2"/><linearGradient id="Degradado_sin_nombre_2-8" x1="45.484" y1="43.178" x2="69.086" y2="43.178" xlink:href="#Degradado_sin_nombre_2"/><linearGradient id="Degradado_sin_nombre_2-9" x1="80.991" y1="47.49" x2="40.402" y2="92.115" xlink:href="#Degradado_sin_nombre_2"/><linearGradient id="Degradado_sin_nombre_2-10" x1="84.169" y1="50.381" x2="43.581" y2="95.006" xlink:href="#Degradado_sin_nombre_2"/><linearGradient id="Degradado_sin_nombre_2-11" x1="83.673" y1="49.93" x2="43.085" y2="94.555" xlink:href="#Degradado_sin_nombre_2"/></defs><title>LOGO 17JUN</title><path class="cls-1" d="M22.4,5.318q-.822.453-1.623.941a.232.232,0,0,0-.079.312l4.029,6.979a.224.224,0,0,0,.314.078c.528-.326,1.063-.641,1.608-.94a.225.225,0,0,0,.088-.31L22.713,5.405A.232.232,0,0,0,22.4,5.318Z"/><path class="cls-1" d="M34.473,25.775l-5.5-9.52a.232.232,0,0,0-.311-.088q-.827.448-1.622.948a.231.231,0,0,0-.077.311l5.492,9.512a.224.224,0,0,0,.317.076q.777-.5,1.6-.927A.223.223,0,0,0,34.473,25.775Z"/><path class="cls-1" d="M32.91,1.231q-.915.223-1.813.485A.231.231,0,0,0,30.939,2l2.079,7.757a.223.223,0,0,0,.281.156c.593-.176,1.194-.334,1.8-.479a.226.226,0,0,0,.166-.278L33.186,1.4A.23.23,0,0,0,32.91,1.231Z"/><path class="cls-1" d="M39.273,24.111l-2.85-10.636a.231.231,0,0,0-.275-.165c-.612.145-1.219.3-1.817.483a.23.23,0,0,0-.155.281l2.851,10.642a.226.226,0,0,0,.287.156c.585-.188,1.18-.351,1.788-.483A.225.225,0,0,0,39.273,24.111Z"/><path class="cls-1" d="M43.178,23.955c.31,0,.618.01.925.025a.226.226,0,0,0,.238-.226V12.5c-.364-.013-.727-.027-1.094-.027-.34,0-.676.01-1.012.022a.229.229,0,0,0-.22.229v11.03a.226.226,0,0,0,.238.226C42.56,23.965,42.868,23.955,43.178,23.955Z"/><path class="cls-1" d="M44.341,8.483V.241a.229.229,0,0,0-.224-.23Q43.649,0,43.178,0t-.939.011a.229.229,0,0,0-.224.23V8.25a.228.228,0,0,0,.236.228c.331-.012.662-.023,1-.023C43.614,8.455,43.977,8.471,44.341,8.483Z"/><path class="cls-1" d="M1.716,31.1q-.261.9-.485,1.813a.232.232,0,0,0,.164.277L9.2,35.279a.225.225,0,0,0,.277-.167q.216-.909.477-1.8A.224.224,0,0,0,9.8,33.03L2,30.94A.23.23,0,0,0,1.716,31.1Z"/><path class="cls-1" d="M24.716,37.027l-10.6-2.839a.231.231,0,0,0-.281.156c-.179.6-.337,1.2-.479,1.818a.231.231,0,0,0,.165.275l10.586,2.836a.224.224,0,0,0,.278-.171c.132-.607.3-1.2.483-1.788A.226.226,0,0,0,24.716,37.027Z"/><path class="cls-1" d="M6.259,20.779q-.486.8-.941,1.623a.232.232,0,0,0,.087.311l7,4.04a.225.225,0,0,0,.311-.088q.445-.819.934-1.612a.225.225,0,0,0-.079-.313l-7-4.04A.232.232,0,0,0,6.259,20.779Z"/><path class="cls-1" d="M26.938,32.459l-9.493-5.481a.231.231,0,0,0-.312.078q-.495.8-.941,1.626a.231.231,0,0,0,.088.309l9.495,5.482a.223.223,0,0,0,.312-.093q.426-.825.927-1.6A.224.224,0,0,0,26.938,32.459Z"/><path class="cls-1" d="M19.348,17.7,13.64,12a.231.231,0,0,0-.322,0q-.678.649-1.327,1.327a.231.231,0,0,0,0,.322l5.71,5.71a.225.225,0,0,0,.323-.005q.64-.678,1.316-1.319A.224.224,0,0,0,19.348,17.7Z"/><path class="cls-1" d="M30.268,28.623,22.51,20.865a.233.233,0,0,0-.322,0q-.682.645-1.327,1.33a.231.231,0,0,0,.006.321l7.756,7.757a.225.225,0,0,0,.326-.009q.624-.686,1.31-1.31A.225.225,0,0,0,30.268,28.623Z"/><path class="cls-2" d="M55.26,1.716q-.9-.261-1.813-.485a.232.232,0,0,0-.277.164L51.1,9.123a.225.225,0,0,0,.167.277c.606.144,1.208.3,1.8.475a.224.224,0,0,0,.281-.157L55.417,2A.231.231,0,0,0,55.26,1.716Z"/><path class="cls-3" d="M85.125,32.91q-.224-.915-.485-1.813a.23.23,0,0,0-.28-.158L76.684,33a.223.223,0,0,0-.156.281c.175.593.333,1.2.477,1.8a.226.226,0,0,0,.278.166l7.678-2.057A.231.231,0,0,0,85.125,32.91Z"/><path class="cls-1" d="M8.318,42.015H.241a.229.229,0,0,0-.23.224Q0,42.707,0,43.178t.011.939a.229.229,0,0,0,.23.224H8.318a.227.227,0,0,0,.227-.235c-.01-.309-.021-.617-.021-.928s.011-.619.021-.928A.227.227,0,0,0,8.318,42.015Z"/><path class="cls-1" d="M23.955,43.178c0-.31.01-.618.025-.925a.226.226,0,0,0-.226-.238H12.791a.228.228,0,0,0-.228.22c-.011.313-.021.627-.021.943s.01.63.021.943a.228.228,0,0,0,.228.22H23.754a.226.226,0,0,0,.226-.238C23.965,43.8,23.955,43.488,23.955,43.178Z"/><path class="cls-4" d="M81.038,22.4q-.453-.822-.941-1.623a.231.231,0,0,0-.311-.079l-6.9,3.982A.225.225,0,0,0,72.81,25q.489.791.939,1.609a.223.223,0,0,0,.309.087l6.894-3.979A.231.231,0,0,0,81.038,22.4Z"/><path class="cls-5" d="M65.577,6.259q-.8-.488-1.623-.941a.231.231,0,0,0-.31.087l-3.995,6.918a.225.225,0,0,0,.089.31q.82.446,1.613.932a.222.222,0,0,0,.312-.079l3.993-6.915A.232.232,0,0,0,65.577,6.259Z"/><path class="cls-6" d="M68.721,19.28l5.64-5.64a.231.231,0,0,0,0-.322q-.649-.678-1.327-1.327a.23.23,0,0,0-.321,0l-5.642,5.641a.225.225,0,0,0,0,.323q.678.64,1.319,1.316A.225.225,0,0,0,68.721,19.28Z"/><path class="cls-7" d="M53.445,85.125q.915-.222,1.813-.485a.229.229,0,0,0,.157-.281L52.7,74.445a.223.223,0,0,0-.28-.156c-.594.175-1.2.331-1.8.475a.225.225,0,0,0-.166.278l2.717,9.92A.23.23,0,0,0,53.445,85.125Z"/><path class="cls-8" d="M63.12,64.918l9.6,9.446a.23.23,0,0,0,.32,0q.678-.648,1.327-1.326a.232.232,0,0,0-.005-.323l-9.6-9.445a.225.225,0,0,0-.321.006q-.642.676-1.319,1.316A.224.224,0,0,0,63.12,64.918Z"/><path class="cls-1" d="M1.231,53.446q.223.915.485,1.814A.231.231,0,0,0,2,55.417l7.8-2.091a.224.224,0,0,0,.157-.281c-.175-.593-.333-1.2-.477-1.8a.224.224,0,0,0-.277-.166L1.4,53.17A.231.231,0,0,0,1.231,53.446Z"/><path class="cls-1" d="M24.111,47.083,13.525,49.92a.231.231,0,0,0-.165.275c.142.612.3,1.219.479,1.817a.231.231,0,0,0,.281.156l10.6-2.839a.225.225,0,0,0,.156-.287c-.188-.584-.351-1.18-.483-1.788A.225.225,0,0,0,24.111,47.083Z"/><path class="cls-9" d="M43.247,43.178c0,.308-.017.613-.044.916a.224.224,0,0,0,.223.247H78.544a.227.227,0,0,0,.228-.219c.012-.314.022-.628.022-.944s-.01-.63-.022-.943a.228.228,0,0,0-.228-.22H43.426a.224.224,0,0,0-.223.247C43.23,42.566,43.247,42.871,43.247,43.178Z"/><path class="cls-1" d="M78.176,44.341h7.929a.232.232,0,0,0,.232-.221q.019-.469.019-.942t-.019-.941a.232.232,0,0,0-.232-.222H78.176a.227.227,0,0,0-.227.236c.011.308.021.616.021.927s-.011.62-.021.928A.226.226,0,0,0,78.176,44.341Z"/><path class="cls-10" d="M84.64,55.259q.263-.9.485-1.813a.231.231,0,0,0-.163-.277l-15.8-4.3a.225.225,0,0,0-.278.166c-.145.606-.3,1.208-.478,1.8a.224.224,0,0,0,.156.281l15.8,4.3A.23.23,0,0,0,84.64,55.259Z"/><path class="cls-11" d="M63.954,81.038q.824-.453,1.624-.941a.23.23,0,0,0,.079-.311L59.649,69.333a.224.224,0,0,0-.313-.079q-.793.487-1.613.932a.225.225,0,0,0-.088.31l6.009,10.455A.23.23,0,0,0,63.954,81.038Z"/><path class="cls-12" d="M80.1,65.578q.486-.8.941-1.623a.232.232,0,0,0-.087-.311L67.7,56.035a.225.225,0,0,0-.31.088q-.447.819-.938,1.609a.224.224,0,0,0,.079.314l13.258,7.611A.231.231,0,0,0,80.1,65.578Z"/><path class="cls-1" d="M43.178,62.4c-.31,0-.618-.009-.925-.025a.226.226,0,0,0-.238.226v11.03a.229.229,0,0,0,.22.229c.336.012.672.022,1.012.022.367,0,.73-.015,1.094-.027V62.6a.226.226,0,0,0-.238-.226C43.8,62.392,43.488,62.4,43.178,62.4Z"/><path class="cls-1" d="M42.015,78.105v8.011a.231.231,0,0,0,.224.23q.468.01.939.01t.939-.01a.23.23,0,0,0,.224-.23V77.873c-.364.012-.727.028-1.094.028-.334,0-.665-.011-1-.023A.228.228,0,0,0,42.015,78.105Z"/><path class="cls-1" d="M28.623,56.089l-7.756,7.756a.231.231,0,0,0-.006.321q.643.686,1.327,1.33a.232.232,0,0,0,.322,0l7.758-7.758a.225.225,0,0,0-.009-.326q-.686-.623-1.31-1.31A.225.225,0,0,0,28.623,56.089Z"/><path class="cls-1" d="M17.7,67.006,12,72.717a.23.23,0,0,0,0,.321q.649.678,1.327,1.327a.231.231,0,0,0,.322,0l5.709-5.709a.224.224,0,0,0,0-.322q-.675-.642-1.316-1.319A.225.225,0,0,0,17.7,67.006Z"/><path class="cls-1" d="M25.775,51.883,16.28,57.365a.231.231,0,0,0-.088.309q.446.829.941,1.627a.232.232,0,0,0,.312.077L26.938,53.9a.224.224,0,0,0,.076-.317q-.5-.777-.927-1.6A.223.223,0,0,0,25.775,51.883Z"/><path class="cls-1" d="M5.318,63.954q.453.824.941,1.623a.23.23,0,0,0,.312.079l7-4.04a.225.225,0,0,0,.079-.313q-.487-.793-.934-1.612a.224.224,0,0,0-.31-.088l-7,4.041A.231.231,0,0,0,5.318,63.954Z"/><path class="cls-1" d="M31.1,84.64q.9.261,1.813.485a.23.23,0,0,0,.276-.164L35.265,77.2a.226.226,0,0,0-.166-.278c-.606-.145-1.207-.3-1.8-.479a.222.222,0,0,0-.281.156l-2.079,7.757A.231.231,0,0,0,31.1,84.64Z"/><path class="cls-1" d="M37.027,61.64,34.176,72.282a.231.231,0,0,0,.155.281c.6.181,1.2.338,1.817.483a.232.232,0,0,0,.275-.165l2.85-10.636a.225.225,0,0,0-.171-.278c-.608-.132-1.2-.294-1.788-.482A.224.224,0,0,0,37.027,61.64Z"/><path class="cls-1" d="M32.459,59.418l-5.492,9.513a.231.231,0,0,0,.077.311q.8.5,1.623.947a.231.231,0,0,0,.31-.088l5.5-9.519a.225.225,0,0,0-.093-.313q-.825-.426-1.6-.927A.224.224,0,0,0,32.459,59.418Z"/><path class="cls-1" d="M20.779,80.1q.8.487,1.623.942a.232.232,0,0,0,.311-.087l4.026-6.974a.225.225,0,0,0-.088-.31c-.545-.3-1.08-.614-1.607-.94a.224.224,0,0,0-.314.078l-4.03,6.98A.231.231,0,0,0,20.779,80.1Z"/><text class="cls-13" transform="translate(94.307 50.145)">Global <tspan class="cls-14" x="77.118" y="0">C</tspan><tspan x="91.582" y="0">oin</tspan></text></svg>