<svg id="Capa_1" data-name="Capa 1" xmlns="http://www.w3.org/2000/svg" viewBox="0 0 79.148 76.425"><defs><style>.cls-1{fill:#fff;}</style></defs><title>GlobalCoinFinal</title><path class="cls-1" d="M27.293,16.554,20.453,4.707a.288.288,0,0,0-.386-.11q-1.029.559-2.019,1.18a.288.288,0,0,0-.1.387L24.787,18a.278.278,0,0,0,.395.094q.966-.622,2-1.153A.278.278,0,0,0,27.293,16.554Z"/><path class="cls-1" d="M33.267,14.484,29.72,1.248a.287.287,0,0,0-.342-.205c-.762.179-1.518.376-2.261.6a.288.288,0,0,0-.194.35l3.549,13.244a.279.279,0,0,0,.357.194c.727-.234,1.469-.437,2.225-.6A.28.28,0,0,0,33.267,14.484Z"/><path class="cls-1" d="M38.127,14.29c.386,0,.769.012,1.151.031a.281.281,0,0,0,.3-.281v-14C39.121.019,38.669,0,38.212,0c-.422,0-.841.013-1.259.028a.285.285,0,0,0-.274.285V14.04a.281.281,0,0,0,.3.281C37.357,14.3,37.741,14.29,38.127,14.29Z"/><path class="cls-1" d="M15.151,30.558,1.965,27.025a.289.289,0,0,0-.351.194c-.222.744-.418,1.5-.6,2.262a.288.288,0,0,0,.206.342L14.4,33.353a.279.279,0,0,0,.346-.213c.164-.756.367-1.5.6-2.225A.278.278,0,0,0,15.151,30.558Z"/><path class="cls-1" d="M17.916,24.873,6.1,18.052a.288.288,0,0,0-.388.1q-.615.993-1.172,2.024a.289.289,0,0,0,.11.385l11.816,6.822a.278.278,0,0,0,.389-.115q.531-1.029,1.153-2A.278.278,0,0,0,17.916,24.873Z"/><path class="cls-1" d="M22.06,20.1l-9.655-9.654a.287.287,0,0,0-.4-.007q-.851.8-1.652,1.655a.289.289,0,0,0,.007.4l9.653,9.653a.28.28,0,0,0,.406-.011q.775-.854,1.63-1.63A.28.28,0,0,0,22.06,20.1Z"/><path class="cls-1" d="M14.2,38.213c0-.387.012-.77.031-1.151a.281.281,0,0,0-.281-.3H.311a.284.284,0,0,0-.284.274c-.015.39-.027.78-.027,1.174s.012.784.027,1.174a.283.283,0,0,0,.283.273H13.954a.281.281,0,0,0,.281-.3C14.216,38.982,14.2,38.6,14.2,38.213Z"/><path class="cls-1" d="M14.4,43.072,1.223,46.6a.289.289,0,0,0-.205.343c.178.762.373,1.517.6,2.262a.289.289,0,0,0,.351.194l13.186-3.533a.28.28,0,0,0,.194-.357c-.234-.728-.437-1.47-.6-2.226A.28.28,0,0,0,14.4,43.072Z"/><path class="cls-1" d="M38.127,62.136c-.386,0-.77-.012-1.151-.032a.282.282,0,0,0-.3.281V76.112a.285.285,0,0,0,.274.285c.418.015.837.028,1.259.028.457,0,.909-.019,1.362-.035V62.385a.282.282,0,0,0-.3-.281C38.9,62.124,38.513,62.136,38.127,62.136Z"/><path class="cls-1" d="M20.013,54.28l-9.652,9.652a.288.288,0,0,0-.008.4q.8.853,1.652,1.655a.288.288,0,0,0,.4-.006l9.655-9.655a.28.28,0,0,0-.011-.406q-.853-.776-1.63-1.629A.279.279,0,0,0,20.013,54.28Z"/><path class="cls-1" d="M16.468,49.046,4.652,55.868a.289.289,0,0,0-.11.385q.555,1.032,1.172,2.024a.289.289,0,0,0,.388.1l11.814-6.822a.277.277,0,0,0,.094-.394q-.623-.968-1.153-2A.279.279,0,0,0,16.468,49.046Z"/><path class="cls-1" d="M30.472,61.188,26.923,74.431a.289.289,0,0,0,.194.351c.743.224,1.5.421,2.261.6a.287.287,0,0,0,.342-.2l3.547-13.236a.279.279,0,0,0-.213-.345c-.756-.165-1.5-.367-2.225-.6A.278.278,0,0,0,30.472,61.188Z"/><path class="cls-1" d="M24.787,58.423,17.952,70.261a.288.288,0,0,0,.1.387q.99.62,2.019,1.18a.288.288,0,0,0,.386-.11l6.84-11.847a.279.279,0,0,0-.115-.389q-1.029-.529-2-1.153A.28.28,0,0,0,24.787,58.423Z"/></svg>