<svg id="Capa_1" data-name="Capa 1" xmlns="http://www.w3.org/2000/svg" xmlns:xlink="http://www.w3.org/1999/xlink" viewBox="0 0 341.177 146.232"><defs><style>.cls-1{fill:#fff;}.cls-2{fill:url(#Degradado_sin_nombre_2);}.cls-3{fill:url(#Degradado_sin_nombre_2-2);}.cls-4{fill:url(#Degradado_sin_nombre_2-3);}.cls-5{fill:url(#Degradado_sin_nombre_2-4);}.cls-6{fill:url(#Degradado_sin_nombre_2-5);}.cls-7{fill:url(#Degradado_sin_nombre_2-6);}.cls-8{fill:url(#Degradado_sin_nombre_2-7);}.cls-9{fill:url(#Degradado_sin_nombre_2-8);}</style><linearGradient id="Degradado_sin_nombre_2" x1="148.262" y1="68.819" x2="69.82" y2="-12.289" gradientUnits="userSpaceOnUse"><stop offset="0" stop-color="#fff" stop-opacity="0"/><stop offset="1" stop-color="#fff"/></linearGradient><linearGradient id="Degradado_sin_nombre_2-2" x1="153.636" y1="63.621" x2="75.194" y2="-17.486" xlink:href="#Degradado_sin_nombre_2"/><linearGradient id="Degradado_sin_nombre_2-3" x1="153.207" y1="64.036" x2="74.765" y2="-17.072" xlink:href="#Degradado_sin_nombre_2"/><linearGradient id="Degradado_sin_nombre_2-4" x1="155.031" y1="62.272" x2="76.589" y2="-18.836" xlink:href="#Degradado_sin_nombre_2"/><linearGradient id="Degradado_sin_nombre_2-5" x1="138.683" y1="81.284" x2="69.76" y2="157.06" xlink:href="#Degradado_sin_nombre_2"/><linearGradient id="Degradado_sin_nombre_2-6" x1="144.174" y1="86.278" x2="75.251" y2="162.054" xlink:href="#Degradado_sin_nombre_2"/><linearGradient id="Degradado_sin_nombre_2-7" x1="142.926" y1="85.143" x2="74.004" y2="160.92" xlink:href="#Degradado_sin_nombre_2"/><linearGradient id="Degradado_sin_nombre_2-8" x1="142.084" y1="84.377" x2="73.162" y2="160.154" xlink:href="#Degradado_sin_nombre_2"/></defs><title>svgs</title><path class="cls-1" d="M75.3,0a.391.391,0,0,0-.38-.391c-.531-.011-1.062-.018-1.6-.018s-1.064.007-1.594.018A.391.391,0,0,0,71.345,0"/><path class="cls-1" d="M78.422,52.941V92.6H68.829V52.941Z"/><path class="cls-1" d="M120.27,92.6h-9.592L94.634,68.256V92.6H85.041V52.941h9.593l16.044,24.571V52.941h9.592Z"/><path class="cls-1" d="M157.742,56.2a15.534,15.534,0,0,1,6,9.873H153.591a7.833,7.833,0,0,0-3.086-3.394,10.332,10.332,0,0,0-12.285,1.795,11.919,11.919,0,0,0-2.748,8.274q0,5.667,2.888,8.7t8.219,3.03a9.919,9.919,0,0,0,6-1.88,10.021,10.021,0,0,0,3.647-5.357H144.11v-6.9h20.139v9.481a19.345,19.345,0,0,1-3.59,6.451,18.494,18.494,0,0,1-6.311,4.824,19.987,19.987,0,0,1-8.779,1.851,20.849,20.849,0,0,1-10.49-2.552,17.472,17.472,0,0,1-6.928-7.152,22.043,22.043,0,0,1-2.44-10.491,22.041,22.041,0,0,1,2.44-10.49,17.531,17.531,0,0,1,6.9-7.152,20.579,20.579,0,0,1,10.406-2.553Q152.917,52.548,157.742,56.2Z"/><path class="cls-1" d="M190,92.6l-8.583-14.978h-2.188V92.6h-9.593V52.941h16.381a17.685,17.685,0,0,1,7.965,1.627,11.245,11.245,0,0,1,4.881,4.46,12.779,12.779,0,0,1,1.627,6.479,11.521,11.521,0,0,1-2.384,7.349,12.192,12.192,0,0,1-6.928,4.151L200.6,92.6ZM179.227,71.06h5.946a5.988,5.988,0,0,0,4.208-1.262,4.871,4.871,0,0,0,1.346-3.73,4.948,4.948,0,0,0-1.374-3.7,5.765,5.765,0,0,0-4.18-1.346h-5.946Z"/><path class="cls-1" d="M214.9,60.57v8.3h13.407v7.236H214.9v8.808H230V92.6H205.311V52.941H230V60.57Z"/><path class="cls-1" d="M262.334,87.216a11.268,11.268,0,0,1-4.713,4.208,16.6,16.6,0,0,1-7.544,1.57,17.771,17.771,0,0,1-11-3.253,11.785,11.785,0,0,1-4.712-9.088h10.209a5.387,5.387,0,0,0,1.6,3.534,4.911,4.911,0,0,0,3.506,1.29,4.07,4.07,0,0,0,2.917-1.009,3.537,3.537,0,0,0,1.065-2.693,3.477,3.477,0,0,0-.981-2.524,7.691,7.691,0,0,0-2.44-1.655q-1.461-.645-4.039-1.543a49.538,49.538,0,0,1-6.143-2.5,11.3,11.3,0,0,1-4.095-3.59,10.389,10.389,0,0,1-1.711-6.2,10.438,10.438,0,0,1,1.795-6.115,11.416,11.416,0,0,1,4.965-3.955,18.108,18.108,0,0,1,7.265-1.374q6.618,0,10.518,3.141a11.988,11.988,0,0,1,4.4,8.639H252.825a5.328,5.328,0,0,0-1.43-3.113,4.211,4.211,0,0,0-3.113-1.15,4.015,4.015,0,0,0-2.722.9,3.294,3.294,0,0,0-1.038,2.636,3.348,3.348,0,0,0,.926,2.384,7.034,7.034,0,0,0,2.329,1.6q1.4.618,4.038,1.571a44.56,44.56,0,0,1,6.227,2.552,11.927,11.927,0,0,1,4.151,3.675,10.5,10.5,0,0,1,1.739,6.282A10.938,10.938,0,0,1,262.334,87.216Z"/><path class="cls-1" d="M293.832,85.365H278.966L276.5,92.6H266.4l14.53-39.38h11.051L306.51,92.6H296.3Zm-2.468-7.292-4.937-14.586-4.993,14.586Z"/><path class="cls-1" d="M330.575,92.6l-8.583-14.978H319.8V92.6h-9.592V52.941h16.38a17.693,17.693,0,0,1,7.966,1.627,11.245,11.245,0,0,1,4.881,4.46,12.778,12.778,0,0,1,1.626,6.479,11.521,11.521,0,0,1-2.384,7.349,12.189,12.189,0,0,1-6.928,4.151l9.424,15.6ZM319.8,71.06h5.947a5.987,5.987,0,0,0,4.207-1.262,4.871,4.871,0,0,0,1.346-3.73,4.948,4.948,0,0,0-1.374-3.7,5.761,5.761,0,0,0-4.179-1.346H319.8Z"/><path class="cls-1" d="M38.041,8.621q-1.4.769-2.756,1.6a.392.392,0,0,0-.135.529L41.993,22.6a.381.381,0,0,0,.533.134q1.342-.833,2.73-1.6a.381.381,0,0,0,.149-.525L38.568,8.769A.393.393,0,0,0,38.041,8.621Z"/><path class="cls-1" d="M58.538,43.359,49.205,27.193a.394.394,0,0,0-.527-.149q-1.4.762-2.755,1.609a.394.394,0,0,0-.131.529l9.326,16.153a.381.381,0,0,0,.539.128q1.319-.851,2.723-1.573A.381.381,0,0,0,58.538,43.359Z"/><path class="cls-1" d="M55.883,1.682q-1.553.38-3.078.824a.391.391,0,0,0-.267.476l3.529,13.172a.379.379,0,0,0,.477.266c1.008-.3,2.028-.568,3.057-.814a.383.383,0,0,0,.282-.472L56.353,1.961A.392.392,0,0,0,55.883,1.682Z"/><path class="cls-1" d="M66.689,40.534,61.85,22.473a.394.394,0,0,0-.468-.28c-1.039.245-2.07.513-3.085.82a.393.393,0,0,0-.264.478l4.842,18.071a.382.382,0,0,0,.487.264c.993-.319,2.005-.6,3.037-.82A.382.382,0,0,0,66.689,40.534Z"/><path class="cls-1" d="M73.32,40.269c.527,0,1.05.016,1.571.043a.384.384,0,0,0,.4-.384V20.818c-.618-.022-1.235-.047-1.858-.047-.576,0-1.148.017-1.719.038a.389.389,0,0,0-.373.388V39.928a.384.384,0,0,0,.405.384C72.27,40.285,72.793,40.269,73.32,40.269Z"/><path class="cls-1" d="M71.345,0V13.6a.386.386,0,0,0,.4.386c.562-.02,1.125-.039,1.692-.039.623,0,1.239.028,1.858.048V0"/><path class="cls-1" d="M2.915,52.4q-.444,1.527-.824,3.079a.392.392,0,0,0,.279.47L15.627,59.5a.383.383,0,0,0,.472-.283c.244-1.03.511-2.05.809-3.058a.38.38,0,0,0-.267-.477L3.391,52.129A.391.391,0,0,0,2.915,52.4Z"/><path class="cls-1" d="M41.97,62.467,23.978,57.646a.394.394,0,0,0-.479.265c-.3,1.015-.571,2.046-.813,3.086a.392.392,0,0,0,.28.467l17.977,4.817a.38.38,0,0,0,.471-.291c.224-1.031.5-2.043.82-3.036A.38.38,0,0,0,41.97,62.467Z"/><path class="cls-1" d="M10.629,34.876q-.828,1.361-1.6,2.757a.391.391,0,0,0,.148.526l11.884,6.862a.381.381,0,0,0,.527-.15q.756-1.392,1.586-2.737a.38.38,0,0,0-.134-.531L11.158,34.742A.392.392,0,0,0,10.629,34.876Z"/><path class="cls-1" d="M45.743,54.71,29.622,45.4a.393.393,0,0,0-.529.132q-.84,1.354-1.6,2.762a.393.393,0,0,0,.15.525L43.767,58.13a.382.382,0,0,0,.532-.158q.721-1.4,1.573-2.724A.38.38,0,0,0,45.743,54.71Z"/><path class="cls-1" d="M32.855,29.654,23.161,19.96a.391.391,0,0,0-.546-.006q-1.15,1.1-2.253,2.253a.391.391,0,0,0,.007.546l9.7,9.7a.381.381,0,0,0,.548-.009Q31.7,31.291,32.847,30.2A.381.381,0,0,0,32.855,29.654Z"/><path class="cls-1" d="M51.4,48.2,38.224,35.023a.393.393,0,0,0-.546-.009q-1.161,1.095-2.254,2.258a.394.394,0,0,0,.01.546L48.605,50.989a.381.381,0,0,0,.553-.015q1.059-1.165,2.224-2.224A.382.382,0,0,0,51.4,48.2Z"/><path class="cls-2" d="M93.836,2.506q-1.527-.444-3.079-.824a.392.392,0,0,0-.47.279L86.771,15.083a.382.382,0,0,0,.283.471c1.03.243,2.051.509,3.059.806a.379.379,0,0,0,.476-.267L94.1,2.982A.392.392,0,0,0,93.836,2.506Z"/><path class="cls-1" d="M14.124,70.937H.409a.391.391,0,0,0-.391.38q-.018.8-.018,1.6t.018,1.594a.391.391,0,0,0,.391.38H14.124a.387.387,0,0,0,.387-.4c-.019-.524-.037-1.047-.037-1.575s.018-1.052.037-1.576A.387.387,0,0,0,14.124,70.937Z"/><path class="cls-1" d="M40.678,72.912c0-.527.016-1.05.042-1.571a.383.383,0,0,0-.383-.4H21.721a.388.388,0,0,0-.388.373c-.019.532-.036,1.065-.036,1.6s.017,1.069.036,1.6a.387.387,0,0,0,.387.373H40.337a.382.382,0,0,0,.383-.4C40.694,73.962,40.678,73.439,40.678,72.912Z"/><path class="cls-3" d="M137.61,37.632q-.769-1.4-1.6-2.756a.389.389,0,0,0-.528-.134L123.771,41.5a.381.381,0,0,0-.133.533q.831,1.344,1.594,2.732a.381.381,0,0,0,.526.149l11.7-6.758A.392.392,0,0,0,137.61,37.632Z"/><path class="cls-4" d="M111.356,10.22Q110,9.394,108.6,8.621a.392.392,0,0,0-.527.148L101.29,20.517a.38.38,0,0,0,.15.526q1.392.756,2.739,1.584a.381.381,0,0,0,.531-.134l6.78-11.744A.392.392,0,0,0,111.356,10.22Z"/><path class="cls-5" d="M116.7,32.33l9.577-9.577a.392.392,0,0,0,.006-.546q-1.1-1.152-2.253-2.253a.391.391,0,0,0-.546.006L113.9,29.539a.381.381,0,0,0,.008.548q1.15,1.088,2.239,2.235A.383.383,0,0,0,116.7,32.33Z"/><path class="cls-6" d="M90.755,144.142q1.553-.379,3.079-.824a.39.39,0,0,0,.266-.478l-4.61-16.835a.381.381,0,0,0-.476-.265c-1.009.3-2.03.563-3.059.807a.382.382,0,0,0-.283.473l4.613,16.845A.393.393,0,0,0,90.755,144.142Z"/><path class="cls-7" d="M107.183,109.828l16.3,16.039a.392.392,0,0,0,.544,0q1.151-1.1,2.253-2.253a.391.391,0,0,0-.009-.548l-16.294-16.037a.38.38,0,0,0-.545.01q-1.091,1.146-2.239,2.234A.381.381,0,0,0,107.183,109.828Z"/><path class="cls-1" d="M2.091,90.348q.378,1.552.824,3.079a.391.391,0,0,0,.476.267l13.25-3.551a.379.379,0,0,0,.267-.476c-.3-1.008-.565-2.029-.809-3.059a.382.382,0,0,0-.472-.282L2.37,89.878A.392.392,0,0,0,2.091,90.348Z"/><path class="cls-1" d="M40.943,79.542,22.966,84.359a.393.393,0,0,0-.28.467c.242,1.04.509,2.071.813,3.087a.4.4,0,0,0,.479.265L41.97,83.357a.38.38,0,0,0,.264-.487c-.319-.993-.6-2.005-.82-3.037A.381.381,0,0,0,40.943,79.542Z"/><path class="cls-8" d="M108.6,137.2q1.4-.769,2.756-1.6a.391.391,0,0,0,.135-.528l-10.2-17.75a.382.382,0,0,0-.532-.134q-1.347.827-2.739,1.583a.381.381,0,0,0-.15.526l10.2,17.753A.392.392,0,0,0,108.6,137.2Z"/><path class="cls-9" d="M136.011,110.948q.828-1.359,1.6-2.756a.393.393,0,0,0-.148-.528L114.955,94.745a.38.38,0,0,0-.525.149q-.761,1.39-1.6,2.732a.381.381,0,0,0,.135.533l22.513,12.924A.392.392,0,0,0,136.011,110.948Z"/><path class="cls-1" d="M73.32,105.554c-.527,0-1.05-.016-1.57-.042a.383.383,0,0,0-.405.383v18.73a.388.388,0,0,0,.373.388c.571.021,1.143.039,1.719.039.623,0,1.24-.026,1.858-.047V105.9a.383.383,0,0,0-.4-.383C74.37,105.538,73.847,105.554,73.32,105.554Z"/><path class="cls-1" d="M71.345,132.221v13.6a.391.391,0,0,0,.381.391q.8.018,1.594.018t1.6-.018a.391.391,0,0,0,.38-.391v-14c-.619.019-1.235.047-1.858.047-.567,0-1.13-.019-1.692-.039A.387.387,0,0,0,71.345,132.221Z"/><path class="cls-1" d="M48.605,94.835,35.434,108.006a.393.393,0,0,0-.01.545q1.092,1.164,2.254,2.258a.393.393,0,0,0,.546-.008L51.4,97.627a.38.38,0,0,0-.015-.553q-1.164-1.059-2.224-2.224A.38.38,0,0,0,48.605,94.835Z"/><path class="cls-1" d="M30.065,113.374l-9.7,9.7a.391.391,0,0,0-.007.546q1.1,1.15,2.253,2.253a.391.391,0,0,0,.546-.007l9.7-9.694a.383.383,0,0,0-.008-.548q-1.148-1.089-2.235-2.238A.381.381,0,0,0,30.065,113.374Z"/><path class="cls-1" d="M43.767,87.694,27.645,97a.394.394,0,0,0-.15.526q.757,1.407,1.6,2.761a.393.393,0,0,0,.529.132l16.121-9.307a.382.382,0,0,0,.129-.539q-.85-1.32-1.573-2.723A.382.382,0,0,0,43.767,87.694Z"/><path class="cls-1" d="M9.03,108.191q.769,1.4,1.6,2.756a.392.392,0,0,0,.529.135l11.883-6.861a.382.382,0,0,0,.134-.532q-.828-1.345-1.586-2.737a.381.381,0,0,0-.527-.15L9.178,107.664A.392.392,0,0,0,9.03,108.191Z"/><path class="cls-1" d="M52.805,143.317q1.526.444,3.078.824a.391.391,0,0,0,.47-.279l3.531-13.174a.382.382,0,0,0-.282-.471c-1.029-.247-2.05-.515-3.057-.814a.38.38,0,0,0-.478.266l-3.529,13.172A.391.391,0,0,0,52.805,143.317Z"/><path class="cls-1" d="M62.875,104.262l-4.842,18.07a.4.4,0,0,0,.265.478c1.014.306,2.045.574,3.084.819a.393.393,0,0,0,.468-.28l4.839-18.06a.382.382,0,0,0-.29-.472c-1.032-.224-2.044-.5-3.037-.819A.38.38,0,0,0,62.875,104.262Z"/><path class="cls-1" d="M55.118,100.489l-9.325,16.152a.394.394,0,0,0,.13.529q1.351.844,2.755,1.609a.394.394,0,0,0,.527-.149l9.333-16.166a.381.381,0,0,0-.158-.531q-1.4-.722-2.723-1.573A.381.381,0,0,0,55.118,100.489Z"/><path class="cls-1" d="M35.285,135.6q1.359.828,2.756,1.6a.392.392,0,0,0,.527-.148l6.837-11.842a.382.382,0,0,0-.148-.526c-.927-.507-1.835-1.042-2.731-1.6a.382.382,0,0,0-.533.133L35.15,135.074A.392.392,0,0,0,35.285,135.6Z"/></svg>