<svg id="Capa_1" data-name="Capa 1" xmlns="http://www.w3.org/2000/svg" xmlns:xlink="http://www.w3.org/1999/xlink" viewBox="0 0 107.469 107.469"><defs><style>.cls-1{fill:#fff;}.cls-2{fill:url(#Degradado_sin_nombre_2);}.cls-3{fill:url(#Degradado_sin_nombre_2-2);}.cls-4{fill:url(#Degradado_sin_nombre_2-3);}.cls-5{fill:url(#Degradado_sin_nombre_2-4);}.cls-6{fill:url(#Degradado_sin_nombre_2-5);}.cls-7{fill:url(#Degradado_sin_nombre_2-6);}.cls-8{fill:url(#Degradado_sin_nombre_2-7);}.cls-9{fill:url(#Degradado_sin_nombre_2-8);}.cls-10{fill:url(#Degradado_sin_nombre_2-9);}.cls-11{fill:url(#Degradado_sin_nombre_2-10);}.cls-12{fill:url(#Degradado_sin_nombre_2-11);}</style><linearGradient id="Degradado_sin_nombre_2" x1="108.657" y1="50.735" x2="51.169" y2="-8.707" gradientUnits="userSpaceOnUse"><stop offset="0" stop-color="#fff" stop-opacity="0"/><stop offset="1" stop-color="#fff"/></linearGradient><linearGradient id="Degradado_sin_nombre_2-2" x1="109.259" y1="50.153" x2="51.771" y2="-9.289" xlink:href="#Degradado_sin_nombre_2"/><linearGradient id="Degradado_sin_nombre_2-3" x1="112.596" y1="46.926" x2="55.108" y2="-12.516" xlink:href="#Degradado_sin_nombre_2"/><linearGradient id="Degradado_sin_nombre_2-4" x1="112.282" y1="47.23" x2="54.794" y2="-12.212" xlink:href="#Degradado_sin_nombre_2"/><linearGradient id="Degradado_sin_nombre_2-5" x1="113.619" y1="45.937" x2="56.13" y2="-13.505" xlink:href="#Degradado_sin_nombre_2"/><linearGradient id="Degradado_sin_nombre_2-6" x1="101.637" y1="59.87" x2="51.126" y2="115.405" xlink:href="#Degradado_sin_nombre_2"/><linearGradient id="Degradado_sin_nombre_2-7" x1="105.661" y1="63.53" x2="55.15" y2="119.065" xlink:href="#Degradado_sin_nombre_2"/><linearGradient id="Degradado_sin_nombre_2-8" x1="56.605" y1="53.735" x2="85.977" y2="53.735" xlink:href="#Degradado_sin_nombre_2"/><linearGradient id="Degradado_sin_nombre_2-9" x1="100.792" y1="59.101" x2="50.28" y2="114.636" xlink:href="#Degradado_sin_nombre_2"/><linearGradient id="Degradado_sin_nombre_2-10" x1="104.747" y1="62.699" x2="54.235" y2="118.233" xlink:href="#Degradado_sin_nombre_2"/><linearGradient id="Degradado_sin_nombre_2-11" x1="104.13" y1="62.137" x2="53.618" y2="117.672" xlink:href="#Degradado_sin_nombre_2"/></defs><title>LOGO 17JUN</title><path class="cls-1" d="M27.879,6.618q-1.023.564-2.02,1.172a.286.286,0,0,0-.1.387l5.014,8.686a.28.28,0,0,0,.391.1c.656-.406,1.322-.8,2-1.17a.28.28,0,0,0,.109-.386l-5.01-8.678A.289.289,0,0,0,27.879,6.618Z"/><path class="cls-1" d="M42.9,32.076l-6.84-11.847a.288.288,0,0,0-.386-.11q-1.029.559-2.019,1.18a.287.287,0,0,0-.1.387L40.4,33.524a.278.278,0,0,0,.395.094q.966-.622,2-1.153A.278.278,0,0,0,42.9,32.076Z"/><path class="cls-1" d="M40.956,1.532q-1.139.278-2.257.6a.285.285,0,0,0-.2.349l2.586,9.653a.278.278,0,0,0,.35.2c.738-.22,1.486-.416,2.24-.6a.281.281,0,0,0,.207-.346L41.3,1.737A.288.288,0,0,0,40.956,1.532Z"/><path class="cls-1" d="M48.875,30.006,45.328,16.77a.287.287,0,0,0-.343-.2c-.761.179-1.517.375-2.26.6a.288.288,0,0,0-.194.35L46.08,30.759a.278.278,0,0,0,.357.193c.727-.233,1.469-.436,2.225-.6A.28.28,0,0,0,48.875,30.006Z"/><path class="cls-1" d="M53.735,29.812c.386,0,.769.012,1.15.031a.281.281,0,0,0,.3-.281V15.556c-.453-.016-.905-.034-1.362-.034-.422,0-.841.013-1.26.028a.285.285,0,0,0-.273.284V29.562a.281.281,0,0,0,.3.281C52.965,29.824,53.348,29.812,53.735,29.812Z"/><path class="cls-1" d="M55.182,10.556V.3A.286.286,0,0,0,54.9.013C54.515.005,54.125,0,53.735,0s-.78.005-1.169.013A.286.286,0,0,0,52.287.3v9.968a.283.283,0,0,0,.293.283c.412-.014.824-.028,1.24-.028C54.277,10.522,54.728,10.542,55.182,10.556Z"/><path class="cls-1" d="M2.136,38.7q-.326,1.119-.6,2.257a.288.288,0,0,0,.205.344l9.716,2.6A.28.28,0,0,0,11.8,43.7c.18-.755.375-1.5.593-2.242a.278.278,0,0,0-.2-.349L2.485,38.5A.287.287,0,0,0,2.136,38.7Z"/><path class="cls-1" d="M30.759,46.08,17.573,42.547a.287.287,0,0,0-.351.194c-.223.744-.418,1.5-.6,2.262a.288.288,0,0,0,.2.342l13.175,3.53a.28.28,0,0,0,.346-.213c.164-.756.367-1.5.6-2.225A.278.278,0,0,0,30.759,46.08Z"/><path class="cls-1" d="M7.79,25.859q-.608,1-1.172,2.02a.289.289,0,0,0,.108.387l8.71,5.028a.279.279,0,0,0,.386-.109q.555-1.022,1.162-2.006a.279.279,0,0,0-.1-.39L8.177,25.761A.286.286,0,0,0,7.79,25.859Z"/><path class="cls-1" d="M33.524,40.4,21.71,33.574a.288.288,0,0,0-.388.1q-.616.993-1.172,2.024a.289.289,0,0,0,.11.385L32.076,42.9a.278.278,0,0,0,.389-.115q.529-1.029,1.153-2A.278.278,0,0,0,33.524,40.4Z"/><path class="cls-1" d="M24.079,22.032l-7.1-7.1a.286.286,0,0,0-.4-.005q-.843.807-1.651,1.651a.286.286,0,0,0,.005.4l7.106,7.106a.278.278,0,0,0,.4-.006q.8-.841,1.638-1.641A.279.279,0,0,0,24.079,22.032Z"/><path class="cls-1" d="M37.668,35.621l-9.655-9.654a.287.287,0,0,0-.4-.007q-.851.8-1.652,1.655a.289.289,0,0,0,.007.4l9.653,9.653a.28.28,0,0,0,.406-.011q.775-.853,1.63-1.63A.28.28,0,0,0,37.668,35.621Z"/><path class="cls-2" d="M68.77,2.136q-1.119-.326-2.257-.6a.288.288,0,0,0-.344.205l-2.577,9.616a.279.279,0,0,0,.208.345c.754.179,1.5.374,2.242.591a.278.278,0,0,0,.349-.2l2.574-9.609A.285.285,0,0,0,68.77,2.136Z"/><path class="cls-3" d="M105.937,40.956q-.278-1.139-.6-2.257a.286.286,0,0,0-.349-.2l-9.551,2.559a.28.28,0,0,0-.2.35c.219.738.415,1.486.595,2.241a.28.28,0,0,0,.345.207l9.556-2.561A.287.287,0,0,0,105.937,40.956Z"/><path class="cls-1" d="M10.351,52.287H.3a.286.286,0,0,0-.286.279C.005,52.955,0,53.344,0,53.735s.005.78.013,1.168a.286.286,0,0,0,.286.279H10.351a.284.284,0,0,0,.284-.293c-.014-.384-.027-.767-.027-1.154s.013-.771.027-1.155A.284.284,0,0,0,10.351,52.287Z"/><path class="cls-1" d="M29.812,53.735c0-.387.012-.77.031-1.151a.281.281,0,0,0-.281-.3H15.918a.285.285,0,0,0-.284.274c-.014.39-.026.78-.026,1.174s.012.784.026,1.173a.285.285,0,0,0,.284.274H29.562a.281.281,0,0,0,.281-.3C29.824,54.5,29.812,54.121,29.812,53.735Z"/><path class="cls-4" d="M100.851,27.879q-.564-1.023-1.172-2.02a.286.286,0,0,0-.387-.1l-8.583,4.955a.28.28,0,0,0-.1.391q.609.984,1.168,2a.279.279,0,0,0,.386.109l8.578-4.953A.286.286,0,0,0,100.851,27.879Z"/><path class="cls-5" d="M81.61,7.79q-1-.608-2.02-1.172a.287.287,0,0,0-.386.108l-4.971,8.61a.28.28,0,0,0,.11.386q1.02.554,2.007,1.16a.279.279,0,0,0,.389-.1l4.969-8.607A.286.286,0,0,0,81.61,7.79Z"/><path class="cls-6" d="M85.523,23.993l7.018-7.019a.286.286,0,0,0,.005-.4q-.807-.843-1.651-1.651a.286.286,0,0,0-.4.005l-7.021,7.02a.279.279,0,0,0,.007.4q.842.8,1.64,1.637A.28.28,0,0,0,85.523,23.993Z"/><path class="cls-7" d="M66.512,105.937q1.138-.278,2.256-.6a.288.288,0,0,0,.2-.351L65.585,92.645a.28.28,0,0,0-.349-.194c-.739.218-1.487.413-2.242.591a.28.28,0,0,0-.207.347l3.381,12.345A.287.287,0,0,0,66.512,105.937Z"/><path class="cls-8" d="M78.551,80.79,90.5,92.545a.287.287,0,0,0,.4,0q.845-.809,1.652-1.651a.288.288,0,0,0-.007-.4L80.6,78.742a.278.278,0,0,0-.4.007q-.8.84-1.641,1.638A.279.279,0,0,0,78.551,80.79Z"/><path class="cls-1" d="M1.532,66.513q.278,1.138.6,2.257a.285.285,0,0,0,.349.2l9.711-2.6a.277.277,0,0,0,.2-.349c-.218-.739-.413-1.487-.593-2.242a.28.28,0,0,0-.345-.207l-9.716,2.6A.288.288,0,0,0,1.532,66.513Z"/><path class="cls-1" d="M30.006,58.594l-13.175,3.53a.288.288,0,0,0-.2.342c.178.763.373,1.518.6,2.262a.289.289,0,0,0,.351.2l13.186-3.534a.278.278,0,0,0,.193-.357c-.233-.727-.436-1.469-.6-2.225A.28.28,0,0,0,30.006,58.594Z"/><path class="cls-9" d="M53.82,53.735c0,.382-.021.762-.055,1.14a.279.279,0,0,0,.278.307h43.7a.284.284,0,0,0,.284-.273c.014-.39.026-.781.026-1.174s-.012-.784-.026-1.174a.284.284,0,0,0-.284-.274h-43.7a.28.28,0,0,0-.278.308C53.8,52.972,53.82,53.352,53.82,53.735Z"/><path class="cls-1" d="M97.289,55.182h9.868a.288.288,0,0,0,.288-.276c.016-.389.024-.78.024-1.171s-.008-.782-.024-1.172a.288.288,0,0,0-.288-.276H97.289a.283.283,0,0,0-.283.293c.014.384.027.768.027,1.155s-.014.77-.027,1.154A.283.283,0,0,0,97.289,55.182Z"/><path class="cls-10" d="M105.334,68.769q.326-1.119.6-2.257a.287.287,0,0,0-.2-.344L86.068,60.812a.28.28,0,0,0-.347.207c-.18.754-.376,1.5-.595,2.241a.278.278,0,0,0,.195.349l19.662,5.355A.287.287,0,0,0,105.334,68.769Z"/><path class="cls-11" d="M79.59,100.851q1.024-.564,2.02-1.172a.287.287,0,0,0,.1-.387L74.233,86.284a.28.28,0,0,0-.39-.1q-.987.606-2.007,1.16a.279.279,0,0,0-.11.386l7.478,13.01A.287.287,0,0,0,79.59,100.851Z"/><path class="cls-12" d="M99.679,81.611q.606-1,1.172-2.021a.287.287,0,0,0-.109-.386L84.248,69.735a.279.279,0,0,0-.385.11q-.558,1.019-1.169,2a.281.281,0,0,0,.1.391l16.5,9.471A.287.287,0,0,0,99.679,81.611Z"/><path class="cls-1" d="M53.735,77.658c-.387,0-.77-.012-1.151-.032a.281.281,0,0,0-.3.281V91.634a.284.284,0,0,0,.273.284c.419.016.838.029,1.26.029.457,0,.909-.019,1.362-.035V77.907a.281.281,0,0,0-.3-.281C54.5,77.646,54.121,77.658,53.735,77.658Z"/><path class="cls-1" d="M52.287,97.2v9.969a.286.286,0,0,0,.279.286c.389.009.778.013,1.169.013s.78,0,1.168-.013a.286.286,0,0,0,.279-.286V96.912c-.454.014-.905.035-1.362.035-.416,0-.828-.014-1.24-.029A.284.284,0,0,0,52.287,97.2Z"/><path class="cls-1" d="M35.621,69.8l-9.653,9.653a.289.289,0,0,0-.007.4q.8.854,1.652,1.655a.287.287,0,0,0,.4-.007l9.655-9.654a.28.28,0,0,0-.011-.406q-.853-.775-1.63-1.629A.28.28,0,0,0,35.621,69.8Z"/><path class="cls-1" d="M22.034,83.389,14.928,90.5a.286.286,0,0,0-.005.4q.807.843,1.651,1.651a.286.286,0,0,0,.4-.005l7.105-7.1a.28.28,0,0,0-.006-.4q-.84-.8-1.637-1.64A.279.279,0,0,0,22.034,83.389Z"/><path class="cls-1" d="M32.076,64.568,20.26,71.39a.289.289,0,0,0-.11.385q.555,1.032,1.172,2.024a.288.288,0,0,0,.387.1l11.815-6.822a.277.277,0,0,0,.094-.394q-.622-.968-1.153-2A.279.279,0,0,0,32.076,64.568Z"/><path class="cls-1" d="M6.618,79.59q.564,1.024,1.172,2.02a.286.286,0,0,0,.387.1l8.709-5.028a.278.278,0,0,0,.1-.39q-.606-.986-1.162-2.005a.28.28,0,0,0-.386-.11L6.726,79.2A.287.287,0,0,0,6.618,79.59Z"/><path class="cls-1" d="M38.7,105.333q1.119.326,2.257.6a.287.287,0,0,0,.344-.2l2.587-9.656a.28.28,0,0,0-.206-.345c-.755-.181-1.5-.377-2.241-.6a.278.278,0,0,0-.35.195L38.5,104.984A.285.285,0,0,0,38.7,105.333Z"/><path class="cls-1" d="M46.08,76.71,42.531,89.953a.289.289,0,0,0,.194.351c.743.224,1.5.421,2.261.6a.287.287,0,0,0,.342-.2l3.547-13.236a.279.279,0,0,0-.213-.345c-.756-.165-1.5-.367-2.225-.6A.278.278,0,0,0,46.08,76.71Z"/><path class="cls-1" d="M40.4,73.945,33.56,85.783a.287.287,0,0,0,.1.387q.99.62,2.019,1.18a.288.288,0,0,0,.386-.11L42.9,75.393A.279.279,0,0,0,42.786,75q-1.029-.53-2-1.153A.28.28,0,0,0,40.4,73.945Z"/><path class="cls-1" d="M25.859,99.679q1,.608,2.02,1.172a.288.288,0,0,0,.387-.108l5.01-8.679a.278.278,0,0,0-.109-.385q-1.017-.558-2-1.171a.279.279,0,0,0-.39.1l-5.015,8.686A.286.286,0,0,0,25.859,99.679Z"/></svg>