<svg id="Capa_1" data-name="Capa 1" xmlns="http://www.w3.org/2000/svg" viewBox="0 0 810.253 810.253"><defs><style>.cls-1{fill:#fff;}</style></defs><title>svgs</title><path class="cls-1" d="M210.194,49.9q-7.722,4.251-15.231,8.835a2.162,2.162,0,0,0-.742,2.921l37.807,65.483a2.108,2.108,0,0,0,2.946.737q7.421-4.6,15.086-8.826a2.1,2.1,0,0,0,.821-2.9L213.105,50.71A2.167,2.167,0,0,0,210.194,49.9Z"/><path class="cls-1" d="M323.45,241.835l-51.57-89.323a2.178,2.178,0,0,0-2.912-.826q-7.762,4.213-15.223,8.895a2.171,2.171,0,0,0-.722,2.918l51.53,89.252a2.1,2.1,0,0,0,2.976.711q7.29-4.7,15.048-8.693A2.107,2.107,0,0,0,323.45,241.835Z"/><path class="cls-1" d="M308.78,11.553q-8.578,2.094-17.011,4.552a2.16,2.16,0,0,0-1.475,2.631l19.5,72.779a2.1,2.1,0,0,0,2.637,1.47c5.566-1.657,11.206-3.136,16.892-4.5a2.111,2.111,0,0,0,1.557-2.6l-19.5-72.788A2.167,2.167,0,0,0,308.78,11.553Z"/><path class="cls-1" d="M368.487,226.227l-26.74-99.794a2.171,2.171,0,0,0-2.584-1.547c-5.744,1.353-11.438,2.835-17.045,4.526a2.178,2.178,0,0,0-1.46,2.643L347.413,231.9a2.1,2.1,0,0,0,2.691,1.46c5.486-1.764,11.077-3.292,16.778-4.53A2.106,2.106,0,0,0,368.487,226.227Z"/><path class="cls-1" d="M405.127,224.762c2.911,0,5.8.09,8.676.235a2.119,2.119,0,0,0,2.235-2.119V117.286c-3.415-.12-6.825-.26-10.269-.26-3.182,0-6.341.095-9.5.213a2.144,2.144,0,0,0-2.06,2.143v103.5A2.119,2.119,0,0,0,396.449,225C399.325,224.852,402.215,224.762,405.127,224.762Z"/><path class="cls-1" d="M416.038,79.589V2.258A2.158,2.158,0,0,0,413.936.1q-4.393-.1-8.809-.1t-8.81.1a2.158,2.158,0,0,0-2.1,2.159V77.411a2.133,2.133,0,0,0,2.21,2.132c3.105-.111,6.213-.214,9.345-.214C409.213,79.329,412.62,79.483,416.038,79.589Z"/><path class="cls-1" d="M16.1,291.771q-2.454,8.431-4.552,17.011a2.167,2.167,0,0,0,1.541,2.6l73.255,19.628a2.112,2.112,0,0,0,2.6-1.561c1.351-5.689,2.825-11.33,4.471-16.9a2.1,2.1,0,0,0-1.472-2.634L18.735,290.3A2.162,2.162,0,0,0,16.1,291.771Z"/><path class="cls-1" d="M231.9,347.414l-99.416-26.639a2.176,2.176,0,0,0-2.643,1.465c-1.678,5.611-3.155,11.305-4.494,17.053a2.173,2.173,0,0,0,1.549,2.581l99.328,26.615a2.107,2.107,0,0,0,2.606-1.606c1.238-5.7,2.766-11.291,4.53-16.778A2.105,2.105,0,0,0,231.9,347.414Z"/><path class="cls-1" d="M58.73,194.963q-4.572,7.514-8.835,15.231a2.167,2.167,0,0,0,.815,2.911l65.668,37.913a2.1,2.1,0,0,0,2.909-.827q4.18-7.691,8.765-15.123a2.105,2.105,0,0,0-.74-2.937l-65.661-37.91A2.162,2.162,0,0,0,58.73,194.963Z"/><path class="cls-1" d="M252.751,304.552l-89.074-51.427a2.173,2.173,0,0,0-2.924.729q-4.641,7.484-8.833,15.259a2.178,2.178,0,0,0,.829,2.9l89.086,51.434a2.108,2.108,0,0,0,2.934-.874q3.993-7.748,8.693-15.049A2.1,2.1,0,0,0,252.751,304.552Z"/><path class="cls-1" d="M181.54,166.109l-53.563-53.562a2.164,2.164,0,0,0-3.018-.037q-6.357,6.09-12.448,12.449a2.163,2.163,0,0,0,.036,3.018l53.575,53.575a2.1,2.1,0,0,0,3.027-.048q6.007-6.35,12.347-12.369A2.107,2.107,0,0,0,181.54,166.109Z"/><path class="cls-1" d="M283.992,268.562,211.2,195.773a2.174,2.174,0,0,0-3.017-.049q-6.412,6.051-12.453,12.477a2.175,2.175,0,0,0,.053,3.015l72.775,72.776a2.106,2.106,0,0,0,3.06-.083q5.846-6.435,12.288-12.288A2.106,2.106,0,0,0,283.992,268.562Z"/><path class="cls-1" d="M518.483,16.1q-8.431-2.454-17.011-4.552a2.167,2.167,0,0,0-2.6,1.541L479.447,85.6a2.111,2.111,0,0,0,1.564,2.6c5.691,1.345,11.332,2.816,16.9,4.455a2.1,2.1,0,0,0,2.632-1.474l19.411-72.445A2.16,2.16,0,0,0,518.483,16.1Z"/><path class="cls-1" d="M798.7,308.783q-2.094-8.58-4.552-17.013a2.16,2.16,0,0,0-2.631-1.475l-72.013,19.3a2.1,2.1,0,0,0-1.472,2.635c1.651,5.569,3.127,11.209,4.483,16.9a2.112,2.112,0,0,0,2.6,1.56l72.04-19.3A2.166,2.166,0,0,0,798.7,308.783Z"/><path class="cls-1" d="M78.044,394.214H2.258a2.158,2.158,0,0,0-2.159,2.1Q0,400.71,0,405.127t.1,8.808a2.159,2.159,0,0,0,2.159,2.1H78.044a2.134,2.134,0,0,0,2.134-2.209c-.1-2.892-.2-5.785-.2-8.7s.1-5.812.2-8.7A2.135,2.135,0,0,0,78.044,394.214Z"/><path class="cls-1" d="M224.762,405.127c0-2.912.09-5.8.235-8.678a2.119,2.119,0,0,0-2.119-2.235H120.015a2.142,2.142,0,0,0-2.141,2.061c-.107,2.941-.2,5.886-.2,8.853s.093,5.909.2,8.849a2.142,2.142,0,0,0,2.141,2.061H222.878A2.119,2.119,0,0,0,225,413.8C224.852,410.928,224.762,408.038,224.762,405.127Z"/><path class="cls-1" d="M760.358,210.193q-4.252-7.722-8.835-15.231a2.162,2.162,0,0,0-2.921-.742l-64.713,37.363a2.105,2.105,0,0,0-.737,2.943q4.593,7.425,8.809,15.1a2.1,2.1,0,0,0,2.906.823L759.542,213.1A2.167,2.167,0,0,0,760.358,210.193Z"/><path class="cls-1" d="M615.289,58.729q-7.514-4.572-15.231-8.834a2.166,2.166,0,0,0-2.911.815l-37.475,64.911a2.106,2.106,0,0,0,.828,2.911q7.695,4.173,15.132,8.747a2.106,2.106,0,0,0,2.936-.74L616.031,61.65A2.161,2.161,0,0,0,615.289,58.729Z"/><path class="cls-1" d="M644.789,180.894l52.917-52.917a2.164,2.164,0,0,0,.036-3.018q-6.088-6.359-12.449-12.449a2.164,2.164,0,0,0-3.018.036l-52.929,52.929a2.106,2.106,0,0,0,.048,3.028q6.349,6.008,12.369,12.347A2.107,2.107,0,0,0,644.789,180.894Z"/><path class="cls-1" d="M501.46,798.7q8.58-2.092,17.012-4.551a2.161,2.161,0,0,0,1.472-2.643l-25.475-93.018a2.1,2.1,0,0,0-2.629-1.462c-5.572,1.639-11.213,3.11-16.9,4.455a2.11,2.11,0,0,0-1.56,2.615l25.49,93.075A2.167,2.167,0,0,0,501.46,798.7Z"/><path class="cls-1" d="M592.231,609.107l90.044,88.624a2.164,2.164,0,0,0,3.006.024q6.359-6.09,12.449-12.448a2.163,2.163,0,0,0-.048-3.03l-90.033-88.612a2.106,2.106,0,0,0-3.014.056q-6.021,6.334-12.369,12.347A2.1,2.1,0,0,0,592.231,609.107Z"/><path class="cls-1" d="M11.552,501.471q2.094,8.578,4.552,17.011a2.16,2.16,0,0,0,2.631,1.475L91.951,500.34a2.1,2.1,0,0,0,1.472-2.634c-1.646-5.57-3.12-11.211-4.471-16.9a2.112,2.112,0,0,0-2.6-1.561L13.093,498.873A2.167,2.167,0,0,0,11.552,501.471Z"/><path class="cls-1" d="M226.227,441.764,126.9,468.379a2.172,2.172,0,0,0-1.549,2.581c1.339,5.748,2.815,11.443,4.493,17.053a2.177,2.177,0,0,0,2.644,1.465L231.9,462.84a2.107,2.107,0,0,0,1.46-2.692c-1.764-5.486-3.292-11.077-4.53-16.778A2.107,2.107,0,0,0,226.227,441.764Z"/><path class="cls-1" d="M405.771,405.127c0,2.884-.158,5.747-.415,8.6a2.108,2.108,0,0,0,2.1,2.316h329.5a2.142,2.142,0,0,0,2.141-2.062c.108-2.94.2-5.884.2-8.85s-.093-5.911-.2-8.851a2.142,2.142,0,0,0-2.141-2.062h-329.5a2.108,2.108,0,0,0-2.1,2.317C405.613,399.38,405.771,402.242,405.771,405.127Z"/><path class="cls-1" d="M733.5,416.04h74.4a2.179,2.179,0,0,0,2.175-2.08q.174-4.405.179-8.833t-.179-8.833a2.179,2.179,0,0,0-2.175-2.079H733.5a2.135,2.135,0,0,0-2.135,2.209c.1,2.893.2,5.787.2,8.7s-.1,5.81-.2,8.7A2.135,2.135,0,0,0,733.5,416.04Z"/><path class="cls-1" d="M794.151,518.475q2.454-8.433,4.552-17.013a2.167,2.167,0,0,0-1.532-2.595L648.9,458.487a2.113,2.113,0,0,0-2.612,1.557c-1.356,5.688-2.833,11.329-4.484,16.9a2.1,2.1,0,0,0,1.463,2.633l148.247,40.374A2.16,2.16,0,0,0,794.151,518.475Z"/><path class="cls-1" d="M600.062,760.356q7.722-4.251,15.231-8.835a2.162,2.162,0,0,0,.744-2.917l-56.368-98.072a2.1,2.1,0,0,0-2.937-.743q-7.44,4.567-15.132,8.747a2.107,2.107,0,0,0-.831,2.908l56.38,98.093A2.165,2.165,0,0,0,600.062,760.356Z"/><path class="cls-1" d="M751.52,615.295q4.573-7.514,8.835-15.231a2.165,2.165,0,0,0-.82-2.913L635.176,525.763a2.1,2.1,0,0,0-2.9.825q-4.2,7.68-8.809,15.1a2.107,2.107,0,0,0,.742,2.946l124.4,71.41A2.161,2.161,0,0,0,751.52,615.295Z"/><path class="cls-1" d="M405.127,585.491c-2.912,0-5.8-.09-8.678-.235a2.119,2.119,0,0,0-2.235,2.118V690.867a2.144,2.144,0,0,0,2.06,2.143c3.154.118,6.313.213,9.5.213,3.444,0,6.854-.14,10.269-.261V587.374a2.119,2.119,0,0,0-2.235-2.118C410.928,585.4,408.038,585.491,405.127,585.491Z"/><path class="cls-1" d="M394.214,732.838V808a2.158,2.158,0,0,0,2.1,2.159q4.393.1,8.81.1t8.809-.1a2.158,2.158,0,0,0,2.1-2.159V730.659c-3.418.107-6.825.261-10.269.261-3.132,0-6.24-.1-9.345-.214A2.132,2.132,0,0,0,394.214,732.838Z"/><path class="cls-1" d="M268.562,526.261l-72.776,72.776a2.176,2.176,0,0,0-.053,3.015q6.034,6.429,12.454,12.476a2.173,2.173,0,0,0,3.017-.048l72.788-72.788a2.106,2.106,0,0,0-.083-3.06q-6.435-5.845-12.288-12.288A2.106,2.106,0,0,0,268.562,526.261Z"/><path class="cls-1" d="M166.124,628.7l-53.577,53.576a2.163,2.163,0,0,0-.036,3.018q6.088,6.359,12.448,12.449a2.164,2.164,0,0,0,3.018-.036l53.565-53.565a2.108,2.108,0,0,0-.044-3.026q-6.336-6.021-12.346-12.369A2.106,2.106,0,0,0,166.124,628.7Z"/><path class="cls-1" d="M241.835,486.8l-89.086,51.433a2.176,2.176,0,0,0-.829,2.9q4.187,7.778,8.832,15.26a2.172,2.172,0,0,0,2.924.728L252.751,505.7a2.1,2.1,0,0,0,.711-2.976q-4.7-7.292-8.693-15.049A2.107,2.107,0,0,0,241.835,486.8Z"/><path class="cls-1" d="M49.9,600.059q4.252,7.722,8.835,15.231a2.161,2.161,0,0,0,2.921.742l65.662-37.91a2.105,2.105,0,0,0,.739-2.938q-4.573-7.436-8.764-15.122a2.1,2.1,0,0,0-2.909-.827L50.71,597.148A2.168,2.168,0,0,0,49.9,600.059Z"/><path class="cls-1" d="M291.769,794.149Q300.2,796.6,308.78,798.7a2.166,2.166,0,0,0,2.6-1.54l19.5-72.794a2.112,2.112,0,0,0-1.557-2.6c-5.686-1.363-11.326-2.842-16.892-4.5a2.1,2.1,0,0,0-2.637,1.471l-19.5,72.784A2.161,2.161,0,0,0,291.769,794.149Z"/><path class="cls-1" d="M347.413,578.35l-26.754,99.844a2.177,2.177,0,0,0,1.46,2.643c5.607,1.692,11.3,3.173,17.045,4.526a2.17,2.17,0,0,0,2.584-1.547l26.739-99.791a2.106,2.106,0,0,0-1.605-2.605c-5.7-1.238-11.292-2.766-16.778-4.53A2.1,2.1,0,0,0,347.413,578.35Z"/><path class="cls-1" d="M304.553,557.5l-51.529,89.251a2.171,2.171,0,0,0,.722,2.918q7.467,4.667,15.223,8.894a2.178,2.178,0,0,0,2.912-.826l51.569-89.321a2.107,2.107,0,0,0-.873-2.934q-7.749-3.993-15.048-8.693A2.1,2.1,0,0,0,304.553,557.5Z"/><path class="cls-1" d="M194.963,751.523q7.514,4.573,15.231,8.835a2.165,2.165,0,0,0,2.911-.815l37.778-65.434a2.1,2.1,0,0,0-.821-2.9c-5.118-2.8-10.139-5.76-15.086-8.826a2.108,2.108,0,0,0-2.946.736L194.221,748.6A2.162,2.162,0,0,0,194.963,751.523Z"/></svg>