<svg id="Capa_1" data-name="Capa 1" xmlns="http://www.w3.org/2000/svg" viewBox="0 0 41.694 29.985"><defs><style>.cls-1{fill:#041f60;}</style></defs><title>LOGO Y HAMBURGUESA EN AZUL</title><path class="cls-1" d="M0,3.95H41.285a.391.391,0,0,0,.391-.381q.018-.795.018-1.594T41.676.381A.391.391,0,0,0,41.285,0H.394A.387.387,0,0,0,.008.4c.02.562.039,1.124.039,1.691C.047,2.714.019,3.331,0,3.95Z"/><path class="cls-1" d="M0,16.967H41.285a.391.391,0,0,0,.391-.38q.018-.8.018-1.594t-.018-1.6a.391.391,0,0,0-.391-.38H.394a.387.387,0,0,0-.386.4c.02.562.039,1.124.039,1.691C.047,15.732.019,16.349,0,16.967Z"/><path class="cls-1" d="M0,29.985H41.285a.391.391,0,0,0,.391-.38q.018-.8.018-1.595t-.018-1.594a.391.391,0,0,0-.391-.381H.394a.388.388,0,0,0-.386.4c.02.562.039,1.125.039,1.692C.047,28.75.019,29.366,0,29.985Z"/></svg>