<svg id="Capa_1" data-name="Capa 1" xmlns="http://www.w3.org/2000/svg" viewBox="0 0 407.534 407.534"><defs><style>.cls-1{fill:none;stroke:#fff;stroke-linecap:round;stroke-linejoin:round;stroke-width:6px;}</style></defs><title>GlobalCoinFinal</title><path class="cls-1" d="M332.047,88.759a29.247,29.247,0,1,1-9.634-7.009"/><polyline class="cls-1" points="342.995 73.885 307.633 119.058 296.752 108.48"/><path class="cls-1" d="M332.047,180.716a29.247,29.247,0,1,1-9.634-7.009"/><polyline class="cls-1" points="344.112 165.884 307.633 211.015 296.752 200.437"/><path class="cls-1" d="M332.047,272.672a29.241,29.241,0,1,1-9.634-7.009"/><polyline class="cls-1" points="344.112 258.291 307.633 302.972 296.752 292.393"/><path class="cls-1" d="M164.975,204.29l-19.948-15.716-12.694,11.485s-38.3,9.459-48.9,10.956c-10.509,1.484-15.7,74.531-15.7,74.531"/><path class="cls-1" d="M132.333,200.059s16.474,33.393,32.19,69.057"/><polyline class="cls-1" points="122.658 202.562 114.199 236.328 146.473 229.551"/><line class="cls-1" x1="164.975" y1="233.305" x2="157.711" y2="253.885"/><line class="cls-1" x1="146.473" y1="173.022" x2="146.473" y2="188.574"/><path class="cls-1" d="M164.975,204.29l19.948-15.716,12.694,11.485c-.125,2.248,30.718,9.644,50.863,12.965,11.853,1.953,14.339,72.522,14.339,72.522"/><path class="cls-1" d="M197.617,200.059s-17.377,33.393-33.094,69.057"/><polyline class="cls-1" points="207.293 202.562 215.752 236.328 191.757 231.289"/><line class="cls-1" x1="164.975" y1="233.305" x2="172.094" y2="253.472"/><line class="cls-1" x1="184.266" y1="173.022" x2="184.266" y2="188.574"/><path class="cls-1" d="M162.684,71.281s-6.627-6.02-12.45-.955c0,0-2.726.817-5.471,5.659-.352-.594-12.182,2.74-15.162,12.861.362,9.259.452,31.847.452,31.847s-8.291.911-4.408,11.772c2.294,6.024,4,16.734,10.246,17.519.045.616.407,9.875,4.789,14.819s14.142,20.022,24,19.307,22.351-16.168,25.274-18.546c2.833-3.61,4.81-6.23,5.349-15.864-.044-.616,6.876-3.355,8.734-16.144s-3.046-12.125-3.046-12.125,7.014-20.627.791-30.7c-6.75-8.8-14.019-19.411-21.761-19.469C179.4,71.307,170.966,61.7,162.684,71.281Z"/><rect class="cls-1" x="156.479" y="211.491" width="16.993" height="16.993" transform="translate(203.875 -52.222) rotate(45)"/><path class="cls-1" d="M67.731,285.546s98.38,39,195.088,0"/><line class="cls-1" x1="200.936" y1="3" x2="200.936" y2="41.575"/><line class="cls-1" x1="149.07" y1="10.574" x2="159.054" y2="47.834"/><line class="cls-1" x1="100.932" y1="31.313" x2="120.219" y2="64.72"/><line class="cls-1" x1="59.802" y1="63.805" x2="87.078" y2="91.082"/><line class="cls-1" x1="28.482" y1="105.835" x2="61.889" y2="125.123"/><line class="cls-1" x1="9.108" y1="154.539" x2="46.369" y2="164.523"/><line class="cls-1" x1="3" y1="206.598" x2="41.575" y2="206.598"/><line class="cls-1" x1="10.574" y1="258.464" x2="47.834" y2="248.48"/><line class="cls-1" x1="31.313" y1="306.602" x2="50.384" y2="295.592"/><line class="cls-1" x1="63.805" y1="347.733" x2="77.444" y2="334.094"/><line class="cls-1" x1="105.835" y1="379.052" x2="125.123" y2="345.645"/><line class="cls-1" x1="154.539" y1="398.426" x2="164.523" y2="361.165"/><line class="cls-1" x1="206.598" y1="404.534" x2="206.598" y2="365.959"/><line class="cls-1" x1="258.464" y1="396.961" x2="248.48" y2="359.7"/><line class="cls-1" x1="306.602" y1="376.221" x2="287.315" y2="342.814"/><line class="cls-1" x1="347.733" y1="343.729" x2="328.571" y2="324.567"/><line class="cls-1" x1="379.052" y1="301.699" x2="351.073" y2="285.546"/><line class="cls-1" x1="398.426" y1="252.995" x2="361.165" y2="243.011"/><line class="cls-1" x1="404.534" y1="200.936" x2="365.959" y2="200.936"/><line class="cls-1" x1="396.961" y1="149.07" x2="359.7" y2="159.054"/><line class="cls-1" x1="376.221" y1="100.932" x2="351.368" y2="115.281"/><line class="cls-1" x1="343.729" y1="59.802" x2="329.646" y2="73.885"/><line class="cls-1" x1="301.699" y1="28.482" x2="282.411" y2="61.889"/><line class="cls-1" x1="252.995" y1="9.108" x2="243.011" y2="46.369"/></svg>